<svg width="21" height="20" viewBox="0 0 21 20" fill="none" xmlns="http://www.w3.org/2000/svg">
<g id="Icon">
<path id="Vector" d="M10.5 11.829C10.3537 11.829 10.21 11.7905 10.0833 11.7175L2.58331 7.38648C2.18465 7.15621 2.04813 6.64636 2.2784 6.2477C2.35153 6.12109 2.45669 6.01593 2.58331 5.94279L10.0833 1.61499C10.3413 1.46688 10.6586 1.46688 10.9166 1.61499L18.4166 5.94279C18.8153 6.17306 18.9518 6.68291 18.7215 7.08157C18.6484 7.20819 18.5433 7.31334 18.4166 7.38648L10.9166 11.7175C10.7899 11.7905 10.6462 11.829 10.5 11.829Z" fill="#D3D7DB"/>
<path id="Vector_2" d="M18.4166 9.27651L16.7799 8.33203L10.9166 11.7179C10.6588 11.8666 10.3412 11.8666 10.0833 11.7179L4.22007 8.33203L2.58331 9.27651C2.18465 9.50677 2.04813 10.0166 2.2784 10.4153C2.35153 10.5419 2.45669 10.6471 2.58331 10.7202L10.0833 15.0512C10.3412 15.1999 10.6588 15.1999 10.9166 15.0512L18.4166 10.7202C18.8153 10.4899 18.9518 9.98007 18.7215 9.58141C18.6484 9.4548 18.5433 9.34964 18.4166 9.27651Z" fill="#BABEC2"/>
<path id="Vector_3" d="M18.4166 12.6095L16.7799 11.665L10.9166 15.0509C10.6588 15.1996 10.3412 15.1996 10.0833 15.0509L4.22007 11.665L2.58331 12.6095C2.18465 12.8398 2.04813 13.3496 2.2784 13.7483C2.35153 13.8749 2.45669 13.9801 2.58331 14.0532L10.0833 18.3842C10.3412 18.5329 10.6588 18.5329 10.9166 18.3842L18.4166 14.0532C18.8153 13.8229 18.9518 13.3131 18.7215 12.9144C18.6484 12.7878 18.5433 12.6826 18.4166 12.6095Z" fill="#9FA3A6"/>
</g>
</svg>
