<svg width="40" height="39" viewBox="0 0 40 39" fill="none" xmlns="http://www.w3.org/2000/svg">
<path d="M9.59995 3.39922L31 1.69922V2.19922L29.1 30.6992C29.1 30.6992 29.1 30.9992 28.7 30.9992C28.3 30.9992 2.69995 31.5992 2.69995 31.5992V31.3992L5.99995 11.0992L7.19995 3.69922C7.19995 3.49922 7.39995 3.39922 7.49995 3.39922C7.59995 3.49922 9.59995 3.39922 9.59995 3.39922Z" fill="#7DC7FF"/>
<path d="M9.29998 4.29922L29.7 2.69922L28.2 28.5992L4.59998 29.1992L7.59998 9.79922L8.39998 4.49922L9.29998 4.29922Z" fill="#B5DFFF"/>
<path d="M31.0999 1.69959C31.0999 1.69959 31.1999 1.59959 31.2999 1.89959C31.3999 2.19959 31.5999 2.79959 31.5999 2.79959V3.09959L29.7999 31.8996C29.7999 31.8996 29.5999 32.0996 29.3999 32.0996C29.1999 32.0996 3.69993 32.4996 3.69993 32.4996C3.69993 32.4996 3.49993 32.5996 3.19993 32.3996C2.89993 32.1996 2.79993 31.7996 2.79993 31.7996L28.9999 31.0996C28.9999 31.0996 29.1999 31.0996 29.2999 30.6996C29.3999 30.2996 31.0999 1.69959 31.0999 1.69959Z" fill="#45AEFF"/>
<path d="M3.59993 32.4996C3.39993 32.4996 3.19993 32.3996 3.09993 32.1996L2.89993 31.8996C2.79993 31.7996 2.79993 31.5996 2.79993 31.3996L7.29993 3.69961C7.29993 3.59961 7.39993 3.49961 7.59993 3.39961L30.9999 1.59961C31.1999 1.59961 31.2999 1.69961 31.3999 1.79961L31.5999 2.39961C31.5999 2.49961 31.6999 2.69961 31.6999 2.79961L29.9999 31.5996C29.9999 31.7996 29.7999 31.9996 29.5999 31.9996L3.59993 32.4996ZM31.0999 1.69961L7.59993 3.59961C7.49993 3.59961 7.39993 3.69961 7.39993 3.79961L2.89993 31.4996C2.89993 31.5996 2.89993 31.6996 2.99993 31.8996L3.19993 32.1996C3.19993 32.2996 3.39993 32.3996 3.59993 32.3996L29.5999 31.8996C29.6999 31.8996 29.8999 31.7996 29.8999 31.5996L31.5999 2.79961C31.5999 2.69961 31.5999 2.49961 31.4999 2.39961L31.2999 1.89961C31.1999 1.79961 31.1999 1.79961 31.0999 1.69961Z" fill="black"/>
<path d="M2.79994 31.6992C2.69994 31.5992 2.79994 31.5992 2.79994 31.5992L28.7999 30.9992C28.9999 30.9992 29.0999 30.8992 29.0999 30.6992L30.9999 1.79922C30.9999 1.79922 30.9999 1.69922 31.0999 1.69922C31.0999 1.69922 31.1999 1.69922 31.1999 1.79922L29.2999 30.6992C29.2999 30.8992 29.0999 31.0992 28.8999 31.0992L2.79994 31.6992Z" fill="black"/>
<path d="M4.5 29.2992L8.3 4.59922C8.3 4.39922 8.5 4.29922 8.6 4.29922L29.8 2.69922V2.79922L28.1 28.6992H28L4.5 29.2992ZM29.7 2.79922L8.7 4.39922C8.6 4.39922 8.5 4.49922 8.4 4.59922L4.6 29.1992L28 28.4992L29.7 2.79922Z" fill="black"/>
<path d="M15 9.59922C14.9 9.49922 15 9.39922 15 9.39922L26.6 8.69922C26.6 8.69922 26.7 8.69922 26.7 8.79922C26.7 8.79922 26.7 8.89922 26.6 8.89922L15 9.59922Z" fill="black"/>
<path d="M15.7999 7.3C15.6999 7.2 15.7999 7.2 15.7999 7.2L26.7999 6.5C26.7999 6.5 26.8999 6.5 26.8999 6.6C26.8999 6.6 26.8999 6.7 26.7999 6.7L15.7999 7.3Z" fill="black"/>
<path d="M10.2999 12.0988C10.1999 11.9988 10.2999 11.9988 10.2999 11.9988L26.2999 11.2988C26.2999 11.2988 26.3999 11.2988 26.3999 11.3988C26.3999 11.3988 26.3999 11.4988 26.2999 11.4988L10.2999 12.0988Z" fill="black"/>
<path d="M9.89991 14.5996C9.79991 14.4996 9.89991 14.4996 9.89991 14.4996L25.9999 13.5996C25.9999 13.5996 26.0999 13.5996 26.0999 13.6996C26.0999 13.6996 26.0999 13.7996 25.9999 13.7996L9.89991 14.5996Z" fill="black"/>
<path d="M9.50001 17C9.40001 16.9 9.50001 16.9 9.50001 16.9L25.7 16C25.7 16 25.8 16 25.8 16.1C25.8 16.1 25.8 16.2 25.7 16.2L9.50001 17Z" fill="black"/>
<path d="M9.00001 19.4996C8.90001 19.3996 9.00001 19.3996 9.00001 19.3996L25.5 18.5996C25.5 18.5996 25.6 18.5996 25.6 18.6996C25.6 18.6996 25.6 18.7996 25.5 18.7996L9.00001 19.4996Z" fill="black"/>
<path d="M8.50001 21.9996C8.40001 21.8996 8.50001 21.8996 8.50001 21.8996L25.3 21.0996C25.3 21.0996 25.4 21.0996 25.4 21.1996C25.4 21.1996 25.4 21.2996 25.3 21.2996L8.50001 21.9996Z" fill="black"/>
<path d="M8.0999 24.4996C7.9999 24.3996 7.9999 24.3996 8.0999 24.3996L25.1999 23.5996C25.1999 23.5996 25.2999 23.5996 25.2999 23.6996C25.2999 23.6996 25.2999 23.7996 25.1999 23.7996L8.0999 24.4996Z" fill="black"/>
<path d="M21.8999 23.5002L22.9999 23.1002C24.3999 22.7002 25.9999 24.3002 26.7999 26.8002C27.5999 29.3002 27.0999 31.6002 25.6999 32.0002L24.5999 32.4002" fill="#F5B114"/>
<path d="M24.548 32.3127C25.9201 31.8891 26.4248 29.5778 25.6753 27.1504C24.9259 24.7229 23.2061 23.0985 21.834 23.5221C20.462 23.9457 19.9573 26.2569 20.7067 28.6844C21.4562 31.1118 23.176 32.7363 24.548 32.3127Z" fill="#FEC523"/>
<path d="M24.5 31.4988C24.5 31.4988 23.8 31.3988 23.1 30.6988C22.4 29.9988 22 28.7988 21.8 28.1988C21.6 27.5988 21.5 26.2988 21.6 25.6988C21.7 25.0988 21.9 24.7988 21.9 24.7988L22.1 24.4988L22.3 24.2988C22.3 24.2988 21.9 24.2988 21.8 24.3988C21.7 24.4988 21 24.9988 21 26.0988C21 27.1988 21.2 28.3988 21.5 29.0988C21.8 29.7988 22.4 30.7988 22.9 31.1988C23.4 31.5988 23.8 31.9988 24.5 31.4988Z" fill="#EDA005"/>
<path d="M25.7999 27.5992L26.8999 27.1992C26.8999 27.1992 27.2999 29.1992 27.0999 30.0992C26.8999 30.9992 26.6999 31.2992 26.3999 31.5992C26.0999 31.8992 25.8999 31.9992 25.8999 31.9992L24.8999 32.2992C24.8999 32.2992 25.5999 31.6992 25.7999 30.9992C25.9999 30.2992 25.9999 30.0992 25.9999 30.0992V29.1992L25.8999 28.2992L25.7999 27.5992Z" fill="#EDA005"/>
<path d="M24.2 32.5003C22.9 32.5003 21.5 30.9003 20.8 28.7003C20 26.2003 20.5 23.9003 21.9 23.5003C22.6 23.3003 23.3 23.6003 24.1 24.3003C24.8 25.0003 25.4 26.0003 25.8 27.2003C26.6 29.7003 26.1 32.0003 24.7 32.4003C24.5 32.4003 24.3 32.5003 24.2 32.5003ZM21.9 23.6003C20.6 24.0003 20.1 26.3003 20.9 28.7003C21.6 31.1003 23.3 32.7003 24.7 32.3003C26.1 31.9003 26.5 29.6003 25.7 27.2003C25.3 26.0003 24.7 25.0003 24 24.3003C23.3 23.6003 22.5 23.4003 21.9 23.6003Z" fill="black"/>
<path d="M24.5999 32.3999L25.6999 31.9999C26.2999 31.7999 26.7999 31.1999 26.9999 30.1999C27.1999 29.1999 27.0999 28.0999 26.7999 26.8999C26.4999 25.6999 25.7999 24.6999 25.0999 23.9999C24.3999 23.2999 23.5999 22.9999 22.9999 23.1999L21.8999 23.5999V23.4999L22.9999 23.0999C23.6999 22.8999 24.3999 23.1999 25.1999 23.8999C25.8999 24.5999 26.4999 25.5999 26.8999 26.7999C27.2999 27.9999 27.3999 29.1999 27.0999 30.1999C26.8999 31.1999 26.3999 31.7999 25.6999 32.0999L24.5999 32.3999Z" fill="black"/>
<path d="M23.9 31.8003C23.5 31.8003 23 31.6003 22.5 31.1003C21.9 30.5003 21.5 29.6003 21.1 28.6003C20.5 26.6003 20.8 24.6003 21.8 24.3003C22.8 24.0003 24.2 25.4003 24.8 27.4003C25.4 29.4003 25.1 31.4003 24.1 31.7003C24.1 31.7003 24 31.8003 23.9 31.8003ZM22.2 24.3003C22.1 24.3003 22 24.3003 21.9 24.3003C20.9 24.6003 20.6 26.5003 21.2 28.5003C21.5 29.5003 22 30.3003 22.5 30.9003C23 31.5003 23.6 31.7003 24.1 31.6003C25.1 31.3003 25.4 29.4003 24.8 27.4003C24.3 25.6003 23.1 24.3003 22.2 24.3003Z" fill="black"/>
<path d="M24.5 31.4992C23.9 31.4992 23.3 30.9992 22.8 30.2992C22.4 29.7992 22 29.0992 21.8 28.2992C21.3 26.4992 21.4 24.7992 22.3 24.1992V24.2992C21.5 24.8992 21.3 26.5992 21.9 28.2992C22.1 29.0992 22.5 29.6992 22.9 30.2992C23.4 30.9992 24 31.3992 24.5 31.3992V31.4992Z" fill="black"/>
<path d="M20.3999 24.0002L21.4999 23.6002C22.8999 23.2002 24.4999 24.8002 25.2999 27.3002C26.0999 29.8002 25.5999 32.1002 24.1999 32.5002L23.0999 32.8002" fill="#F5B114"/>
<path d="M23.0649 32.8088C24.4369 32.3852 24.9416 30.0739 24.1922 27.6465C23.4427 25.219 21.7229 23.5946 20.3509 24.0182C18.9788 24.4418 18.4741 26.753 19.2236 29.1805C19.973 31.6079 21.6928 33.2324 23.0649 32.8088Z" fill="#FEC523"/>
<path d="M23 31.8992C23 31.8992 22.3 31.7992 21.6 31.0992C20.9 30.3992 20.5 29.1992 20.3 28.5992C20.1 27.9992 20 26.6992 20.1 26.0992C20.2 25.4992 20.4 25.1992 20.4 25.1992L20.6 24.8992L20.8 24.6992C20.8 24.6992 20.4 24.6992 20.3 24.7992C20.2 24.8992 19.5 25.3992 19.5 26.4992C19.5 27.5992 19.7 28.7992 20 29.4992C20.3 30.1992 20.9 31.1992 21.4 31.5992C21.9 31.9992 22.3 32.3992 23 31.8992Z" fill="#EDA005"/>
<path d="M24.2999 27.9996L25.3999 27.5996C25.3999 27.5996 25.7999 29.5996 25.5999 30.4996C25.3999 31.3996 25.1999 31.6996 24.8999 31.9996C24.5999 32.2996 24.3999 32.3996 24.3999 32.3996L23.3999 32.6996C23.3999 32.6996 24.0999 32.0996 24.2999 31.3996C24.4999 30.6996 24.4999 30.4996 24.4999 30.4996V29.5996L24.3999 28.6996L24.2999 27.9996Z" fill="#EDA005"/>
<path d="M22.7 32.8994C21.4 32.8994 20 31.2994 19.3 29.0994C18.9 27.8994 18.8 26.6994 19.1 25.6994C19.3 24.6994 19.8 24.0994 20.5 23.7994C21.9 23.3994 23.6 24.9994 24.4 27.4994C24.8 28.6994 24.9 29.8994 24.6 30.8994C24.4 31.8994 23.9 32.5994 23.2 32.7994C23 32.8994 22.8 32.8994 22.7 32.8994ZM20.4 23.9994C19.8 24.1994 19.3 24.7994 19.1 25.7994C18.9 26.7994 19 27.8994 19.3 29.0994C20 31.4994 21.7 33.0994 23.1 32.6994C23.7 32.4994 24.2 31.8994 24.4 30.8994C24.6 29.8994 24.5 28.7994 24.2 27.5994C23.4 25.1994 21.7 23.5994 20.4 23.9994Z" fill="black"/>
<path d="M23.0999 32.8002L24.1999 32.4002C25.4999 32.0002 25.9999 29.7002 25.1999 27.3002C24.4999 24.9002 22.7999 23.3002 21.3999 23.7002L20.2999 24.1002V24.0002L21.3999 23.6002C22.7999 23.2002 24.4999 24.8002 25.2999 27.3002C26.0999 29.8002 25.5999 32.1002 24.1999 32.5002L23.0999 32.8002Z" fill="black"/>
<path d="M22.3999 32.2004C21.3999 32.2004 20.2999 30.9004 19.6999 29.0004C19.0999 27.0004 19.3999 25.0004 20.3999 24.7004C20.8999 24.5004 21.4999 24.8004 22.0999 25.4004C22.6999 26.0004 23.0999 26.9004 23.4999 27.9004C24.0999 29.9004 23.7999 31.9004 22.7999 32.2004C22.5999 32.2004 22.4999 32.2004 22.3999 32.2004ZM20.6999 24.8004C20.5999 24.8004 20.4999 24.8004 20.3999 24.8004C19.3999 25.1004 19.0999 27.0004 19.6999 29.0004C20.2999 31.0004 21.5999 32.4004 22.5999 32.1004C23.5999 31.8004 23.8999 29.9004 23.2999 27.9004C22.9999 26.9004 22.4999 26.1004 21.9999 25.5004C21.5999 25.0004 21.0999 24.8004 20.6999 24.8004Z" fill="black"/>
<path d="M23 31.9992C22.4 31.9992 21.8 31.4992 21.3 30.7992C20.9 30.2992 20.5 29.5992 20.3 28.7992C19.8 26.9992 19.9 25.2992 20.8 24.6992V24.7992C20 25.3992 19.8 27.0992 20.4 28.7992C20.6 29.5992 21 30.1992 21.4 30.7992C21.9 31.4992 22.5 31.8992 23 31.8992V31.9992Z" fill="black"/>
<path d="M18.8999 24.3986L19.9999 23.9986C21.3999 23.5986 22.9999 25.1986 23.7999 27.6986C24.5999 30.1986 24.0999 32.3986 22.6999 32.8986L21.5999 33.1986" fill="#F5B114"/>
<path d="M21.5682 33.297C22.9402 32.8734 23.4449 30.5622 22.6955 28.1347C21.946 25.7073 20.2262 24.0828 18.8542 24.5064C17.4821 24.93 16.9774 27.2413 17.7269 29.6687C18.4763 32.0962 20.1961 33.7206 21.5682 33.297Z" fill="#FEC523"/>
<path d="M21.5 32.3992C21.5 32.3992 20.8 32.2992 20.1 31.5992C19.4 30.8992 19 29.6992 18.8 29.0992C18.6 28.4992 18.5 27.1992 18.6 26.5992C18.7 25.9992 18.9 25.6992 18.9 25.6992L19.1 25.3992L19.3 25.1992C19.3 25.1992 18.9 25.1992 18.8 25.2992C18.7 25.3992 18 25.8992 18 26.9992C18 28.0992 18.2 29.2992 18.5 29.9992C18.8 30.6992 19.4 31.6992 19.9 32.0992C20.4 32.4992 20.7 32.8992 21.5 32.3992Z" fill="#EDA005"/>
<path d="M22.7999 28.4996L23.8999 28.0996C23.8999 28.0996 24.2999 30.0996 24.0999 30.9996C23.8999 31.8996 23.6999 32.1996 23.3999 32.4996C23.0999 32.7996 22.8999 32.8996 22.8999 32.8996L21.8999 33.1996C21.8999 33.1996 22.5999 32.5996 22.7999 31.8996C22.9999 31.1996 22.9999 30.9996 22.9999 30.9996V30.0996L22.8999 29.1996L22.7999 28.4996Z" fill="#EDA005"/>
<path d="M21.1 33.399C20.6 33.399 20 33.099 19.4 32.599C18.7 31.899 18.1 30.899 17.7 29.699C17.3 28.499 17.2 27.299 17.5 26.299C17.7 25.299 18.2 24.699 18.9 24.399C20.3 23.999 22 25.599 22.8 28.099C23.6 30.599 23.1 32.899 21.7 33.299C21.4 33.399 21.3 33.399 21.1 33.399ZM18.9 24.499C18.3 24.699 17.8 25.299 17.6 26.299C17.4 27.299 17.5 28.399 17.8 29.599C18.1 30.799 18.8 31.799 19.5 32.499C20.2 33.199 21 33.499 21.6 33.299C22.9 32.899 23.4 30.599 22.6 28.199C21.9 25.699 20.2 24.099 18.9 24.499Z" fill="black"/>
<path d="M21.5999 33.3002L22.6999 32.9002C23.9999 32.5002 24.4999 30.2002 23.6999 27.8002C22.9999 25.4002 21.2999 23.8002 19.8999 24.2002L18.7999 24.6002V24.5002L19.8999 24.1002C21.2999 23.7002 22.9999 25.3002 23.7999 27.8002C24.5999 30.3002 24.0999 32.6002 22.6999 33.0002L21.5999 33.3002Z" fill="black"/>
<path d="M20.9 32.7004C20.5 32.7004 20 32.5004 19.5 32.0004C18.9 31.4004 18.5 30.5004 18.1 29.5004C17.5 27.5004 17.8 25.5004 18.8 25.2004C19.3 25.0004 19.9 25.3004 20.5 25.9004C21.1 26.5004 21.5 27.4004 21.9 28.4004C22.5 30.4004 22.2 32.4004 21.2 32.7004C21 32.7004 20.9 32.7004 20.9 32.7004ZM19.2 25.2004C19.1 25.2004 19 25.2004 18.9 25.2004C17.9 25.5004 17.6 27.4004 18.2 29.4004C18.5 30.4004 19 31.2004 19.5 31.8004C20 32.4004 20.6 32.6004 21.1 32.5004C22.1 32.2004 22.4 30.3004 21.8 28.3004C21.5 27.3004 21 26.5004 20.5 25.9004C20 25.5004 19.6 25.2004 19.2 25.2004Z" fill="black"/>
<path d="M21.5 32.4992C20.9 32.4992 20.3 31.9992 19.8 31.2992C19.4 30.7992 19 30.0992 18.8 29.2992C18.3 27.4992 18.4 25.7992 19.3 25.1992V25.2992C18.5 25.8992 18.3 27.5992 18.9 29.2992C19.1 30.0992 19.5 30.6992 19.9 31.2992C20.4 31.9992 21 32.3992 21.5 32.3992V32.4992Z" fill="black"/>
<path d="M35.5 32.2988L35.4 33.4988C35.3 34.8988 33.2 35.9988 30.7 35.7988C28.2 35.5988 26.1 34.3988 26.2 32.9988L26.3 31.7988" fill="#F5B114"/>
<path d="M35.4969 32.3293C35.5653 30.895 33.5636 29.6341 31.0258 29.5131C28.4881 29.3921 26.3755 30.4568 26.3071 31.8911C26.2387 33.3255 28.2405 34.5864 30.7782 34.7074C33.3159 34.8284 35.4285 33.7637 35.4969 32.3293Z" fill="#FEC523"/>
<path d="M27.1 32.1001C27.1 32.1001 27.4 31.4001 28.4 31.0001C29.4 30.6001 30.6 30.6001 31.2 30.6001C31.8 30.6001 33.1 30.9001 33.6 31.3001C34.1 31.7001 34.4 31.9001 34.4 31.9001L34.6 32.2001L34.7 32.4001C34.7 32.4001 34.8 32.0001 34.8 31.9001C34.8 31.8001 34.5 30.9001 33.5 30.5001C32.5 30.1001 31.3 29.9001 30.5 30.0001C29.7 30.1001 28.6 30.3001 28.1 30.6001C27.6 30.9001 26.9 31.2001 27.1 32.1001Z" fill="#EDA005"/>
<path d="M30.4 34.5992L30.2999 35.7992C30.2999 35.7992 28.3 35.4992 27.6 34.9992C26.9 34.4992 26.6 34.1992 26.4 33.8992C26.2 33.5992 26.2 33.1992 26.2 33.1992V32.1992C26.2 32.1992 26.5 33.0992 27.1 33.4992C27.7 33.8992 27.9 33.9992 27.9 33.9992L28.7 34.2992L29.6 34.4992L30.4 34.5992Z" fill="#EDA005"/>
<path d="M31.2 34.7005C31.1 34.7005 30.9 34.7005 30.8 34.7005C28.2 34.6005 26.2 33.3005 26.3 31.9005C26.4 30.5005 28.5 29.4005 31.1 29.5005C33.7 29.6005 35.7 30.9005 35.6 32.3005C35.6 33.0005 35.1 33.6005 34.1 34.1005C33.3 34.5005 32.3 34.7005 31.2 34.7005ZM30.6 29.6005C28.3 29.6005 26.4 30.6005 26.3 31.9005C26.2 33.3005 28.2 34.5005 30.8 34.6005C32 34.7005 33.2 34.4005 34.1 34.0005C35 33.6005 35.5 33.0005 35.5 32.3005C35.6 30.9005 33.6 29.7005 31 29.6005C30.9 29.6005 30.8 29.6005 30.6 29.6005Z" fill="black"/>
<path d="M31.1 35.9004C31 35.9004 30.8 35.9004 30.7 35.9004C28.1 35.8004 26.1 34.5004 26.2 33.1004L26.3 31.9004H26.4L26.3 33.1004C26.2 34.5004 28.2 35.7004 30.7 35.8004C31.9 35.9004 33.1 35.6004 34 35.2004C34.9 34.8004 35.4 34.2004 35.4 33.5004L35.5 32.3004H35.6L35.5 33.5004C35.5 34.2004 35 34.8004 34 35.3004C33.3 35.7004 32.2 35.9004 31.1 35.9004Z" fill="black"/>
<path d="M31.2 33.8987C31.1 33.8987 31 33.8987 30.8 33.8987C29.8 33.8987 28.8 33.5987 28.1 33.1987C27.4 32.7987 27 32.2987 27 31.6987C27 31.1987 27.5 30.6987 28.2 30.3987C29 30.0987 29.9 29.8987 31 29.9987C33.1 30.0987 34.9 31.0987 34.8 32.0987C34.8 32.5987 34.3 33.0987 33.6 33.3987C32.9 33.6987 32.1 33.8987 31.2 33.8987ZM30.6 29.9987C29.7 29.9987 28.9 30.0987 28.2 30.3987C27.5 30.6987 27.1 31.1987 27 31.6987C27 32.1987 27.4 32.6987 28 33.0987C28.7 33.4987 29.7 33.6987 30.7 33.7987C31.7 33.8987 32.7 33.6987 33.4 33.3987C34.1 33.0987 34.5 32.5987 34.6 32.0987C34.6 31.0987 33 30.0987 30.9 29.9987C30.9 29.9987 30.8 29.9987 30.6 29.9987Z" fill="black"/>
<path d="M34.6 32.4994C34.3 31.5994 32.8 30.7994 30.9 30.6994C30.1 30.6994 29.4 30.6994 28.7 30.8994C27.9 31.0994 27.3 31.5994 27.1 32.0994H27C27.2 31.5994 27.8 31.0994 28.7 30.8994C29.4 30.6994 30.1 30.5994 30.9 30.6994C32.8 30.6994 34.4 31.4994 34.6 32.4994Z" fill="black"/>
<path d="M35.5999 30.6992L35.4999 31.8992C35.3999 33.2992 33.2999 34.3992 30.7999 34.1992C28.2999 33.9992 26.1999 32.7992 26.2999 31.3992L26.3999 30.1992" fill="#F5B114"/>
<path d="M35.5908 30.6887C35.6592 29.2543 33.6574 27.9935 31.1197 27.8725C28.582 27.7515 26.4693 28.8162 26.4009 30.2505C26.3325 31.6849 28.3343 32.9457 30.872 33.0668C33.4098 33.1878 35.5224 32.1231 35.5908 30.6887Z" fill="#FEC523"/>
<path d="M27.1999 30.5005C27.1999 30.5005 27.4999 29.8005 28.4999 29.4005C29.4999 29.0005 30.6999 29.0005 31.2999 29.0005C31.8999 29.0005 33.1999 29.3005 33.6999 29.7005C34.1999 30.1005 34.4999 30.3005 34.4999 30.3005L34.6999 30.6005L34.7999 30.8005C34.7999 30.8005 34.8999 30.4005 34.8999 30.3005C34.8999 30.2005 34.5999 29.3005 33.5999 28.9005C32.5999 28.5005 31.3999 28.3005 30.5999 28.4005C29.7999 28.5005 28.6999 28.7005 28.1999 29.0005C27.6999 29.3005 26.9999 29.6005 27.1999 30.5005Z" fill="#EDA005"/>
<path d="M30.4999 32.9992L30.3999 34.1992C30.3999 34.1992 28.3999 33.8992 27.6999 33.3992C26.9999 32.8992 26.6999 32.5992 26.4999 32.2992C26.2999 31.9992 26.2999 31.6992 26.2999 31.6992V30.6992C26.2999 30.6992 26.5999 31.5992 27.1999 31.9992C27.7999 32.3992 27.9999 32.4992 27.9999 32.4992L28.7999 32.7992L29.6999 32.9992H30.4999Z" fill="#EDA005"/>
<path d="M31.3 33.0989C31.2 33.0989 31 33.0989 30.9 33.0989C28.3 32.9989 26.3 31.6989 26.4 30.2989C26.5 28.8989 28.6 27.7989 31.2 27.8989C33.8 27.9989 35.8 29.2989 35.7 30.6989C35.7 31.3989 35.2 31.9989 34.2 32.4989C33.4 32.8989 32.4 33.0989 31.3 33.0989ZM30.7 27.9989C28.4 27.9989 26.5 28.9989 26.4 30.2989C26.3 31.6989 28.3 32.8989 30.9 32.9989C32.1 33.0989 33.3 32.7989 34.2 32.3989C35.1 31.9989 35.6 31.3989 35.6 30.6989C35.7 29.2989 33.7 28.0989 31.1 27.9989C31 27.9989 30.8 27.9989 30.7 27.9989Z" fill="black"/>
<path d="M31.2 34.2988C31.1 34.2988 30.9 34.2988 30.8 34.2988C28.2 34.1988 26.2 32.8988 26.3 31.4988L26.4 30.2988H26.5L26.4 31.4988C26.3 32.8988 28.3 34.0988 30.9 34.1988C32.1 34.2988 33.3 33.9988 34.2 33.5988C35.1 33.1988 35.6 32.5988 35.6 31.8988L35.7 30.6988H35.8L35.7 31.8988C35.7 32.5988 35.2 33.1988 34.2 33.6988C33.3 34.0988 32.3 34.2988 31.2 34.2988Z" fill="black"/>
<path d="M31.3 32.1995C31.2 32.1995 31.1 32.1995 30.9 32.1995C29.9 32.1995 28.9 31.8995 28.2 31.4995C27.5 31.0995 27.1 30.5995 27.1 29.9995C27.1 29.4995 27.6 28.9995 28.3 28.6995C29.1 28.3995 30 28.1995 31.1 28.2995C33.2 28.3995 35 29.3995 34.9 30.3995C34.9 30.8995 34.4 31.3995 33.7 31.6995C33 32.0995 32.2 32.1995 31.3 32.1995ZM30.7 28.3995C29.8 28.3995 29 28.4995 28.3 28.7995C27.6 29.0995 27.2 29.5995 27.1 30.0995C27.1 30.5995 27.5 31.0995 28.1 31.4995C28.8 31.8995 29.8 32.0995 30.8 32.1995C31.8 32.1995 32.8 32.0995 33.5 31.7995C34.2 31.4995 34.6 30.9995 34.7 30.4995C34.7 29.4995 33.1 28.4995 31 28.3995C31 28.3995 30.8 28.3995 30.7 28.3995Z" fill="black"/>
<path d="M34.7 30.8998C34.4 29.9998 32.9 29.1998 31 29.0998C30.2 29.0998 29.5 29.0998 28.8 29.2998C28 29.4998 27.4 29.9998 27.2 30.4998H27.1C27.3 29.9998 27.9 29.4998 28.8 29.2998C29.5 29.0998 30.2 28.9998 31 29.0998C32.9 29.0998 34.5 29.8998 34.7 30.8998Z" fill="black"/>
<path d="M35.6999 29.0996L35.5999 30.2996C35.4999 31.6996 33.3999 32.7996 30.8999 32.5996C28.3999 32.3996 26.2999 31.1996 26.3999 29.7996L26.4999 28.5996" fill="#F5B114"/>
<path d="M35.6522 29.0989C35.7206 27.6645 33.7188 26.4036 31.1811 26.2826C28.6434 26.1616 26.5307 27.2263 26.4623 28.6607C26.3939 30.095 28.3957 31.3559 30.9334 31.4769C33.4712 31.5979 35.5838 30.5332 35.6522 29.0989Z" fill="#FEC523"/>
<path d="M27.2999 28.8989C27.2999 28.8989 27.5999 28.1989 28.5999 27.7989C29.5999 27.3989 30.7999 27.3989 31.3999 27.3989C31.9999 27.3989 33.2999 27.6989 33.7999 28.0989C34.2999 28.4989 34.5999 28.6989 34.5999 28.6989L34.7999 28.9989L34.8999 29.1989C34.8999 29.1989 34.9999 28.7989 34.9999 28.6989C34.9999 28.5989 34.6999 27.6989 33.6999 27.2989C32.6999 26.8989 31.4999 26.6989 30.6999 26.7989C29.8999 26.8989 28.7999 27.0989 28.2999 27.3989C27.7999 27.6989 27.0999 28.0989 27.2999 28.8989Z" fill="#EDA005"/>
<path d="M30.4999 31.3996L30.3999 32.5996C30.3999 32.5996 28.3999 32.2996 27.6999 31.7996C26.9999 31.2996 26.6999 30.9996 26.4999 30.6996C26.2999 30.3996 26.2999 30.0996 26.2999 30.0996V29.0996C26.2999 29.0996 26.5999 29.9996 27.1999 30.3996C27.7999 30.7996 27.9999 30.8996 27.9999 30.8996L28.7999 31.1996L29.6999 31.3996H30.4999Z" fill="#EDA005"/>
<path d="M31.3999 31.4993C31.2999 31.4993 31.0999 31.4993 30.9999 31.4993C28.3999 31.3993 26.3999 30.0993 26.4999 28.6993C26.5999 27.2993 28.6999 26.1993 31.2999 26.2993C33.8999 26.3993 35.8999 27.6993 35.7999 29.0993C35.7999 29.7993 35.2999 30.3993 34.2999 30.8993C33.4999 31.2993 32.4999 31.4993 31.3999 31.4993ZM30.7999 26.3993C28.4999 26.3993 26.5999 27.3993 26.4999 28.6993C26.3999 30.0993 28.3999 31.2993 30.9999 31.3993C32.1999 31.4993 33.3999 31.2993 34.2999 30.7993C35.1999 30.3993 35.6999 29.7993 35.6999 29.0993C35.7999 27.6993 33.7999 26.4993 31.1999 26.3993C31.0999 26.3993 30.8999 26.3993 30.7999 26.3993Z" fill="black"/>
<path d="M31.3 32.6992C31.2 32.6992 31 32.6992 30.9 32.6992C28.3 32.5992 26.3 31.2992 26.4 29.8992L26.5 28.6992H26.6L26.5 29.8992C26.4 31.2992 28.4 32.4992 30.9 32.5992C32.1 32.6992 33.3 32.3992 34.2 31.9992C35.1 31.5992 35.6 30.9992 35.6 30.2992L35.7 29.0992H35.8L35.7 30.2992C35.7 30.9992 35.2 31.5992 34.2 32.0992C33.4 32.4992 32.4 32.6992 31.3 32.6992Z" fill="black"/>
<path d="M31.4 30.6995C31.3 30.6995 31.2 30.6995 31 30.6995C30 30.6995 28.9999 30.3995 28.2999 29.9995C27.5999 29.5995 27.2 29.0995 27.2 28.4995C27.2 27.9995 27.7 27.4995 28.4 27.1995C29.1999 26.8995 30.1 26.6995 31.2 26.7995C33.4 26.8995 35 27.8995 35 28.8995C35 29.3995 34.4999 29.8995 33.7999 30.1995C33.0999 30.4994 32.2 30.6995 31.4 30.6995ZM30.7999 26.7995C29.8999 26.7995 29.1 26.8995 28.4 27.1995C27.7 27.4995 27.3 27.9995 27.2 28.4995C27.2 28.9995 27.6 29.4995 28.2 29.8995C28.9 30.2995 29.9 30.4995 30.9 30.5995C31.9 30.5995 32.8999 30.4994 33.5999 30.1995C34.2999 29.8995 34.6999 29.3995 34.7999 28.8995C34.7999 27.8995 33.2 26.8995 31.1 26.7995C31 26.7995 30.8999 26.7995 30.7999 26.7995Z" fill="black"/>
<path d="M34.7999 29.3002C34.4999 28.4002 33 27.6002 31.1 27.5002C30.3 27.5002 29.6 27.5002 28.9 27.7002C28.1 27.9002 27.4999 28.4002 27.2999 28.9002H27.2C27.4 28.4002 28 27.9002 28.9 27.7002C29.6 27.5002 30.3 27.4002 31.1 27.5002C33 27.5002 34.5999 28.3002 34.7999 29.3002Z" fill="black"/>
<path d="M29.4 34.2988L29.3 35.4988C29.2 36.8988 27.1 37.9988 24.6 37.7988C22.1 37.5988 20 36.3988 20.1 34.9988L20.2 33.7988" fill="#F5B114"/>
<path d="M29.4579 34.2864C29.5263 32.852 27.5245 31.5911 24.9868 31.4701C22.4491 31.3491 20.3364 32.4138 20.268 33.8482C20.1996 35.2825 22.2014 36.5434 24.7391 36.6644C27.2768 36.7854 29.3895 35.7207 29.4579 34.2864Z" fill="#FEC523"/>
<path d="M20.9999 34.1001C20.9999 34.1001 21.2999 33.4001 22.2999 33.0001C23.2999 32.6001 24.4999 32.6001 25.0999 32.6001C25.6999 32.6001 26.9999 32.9001 27.4999 33.3001C27.9999 33.7001 28.2999 33.9001 28.2999 33.9001L28.4999 34.2001L28.5999 34.4001C28.5999 34.4001 28.6999 34.0001 28.6999 33.9001C28.6999 33.8001 28.3999 32.9001 27.2999 32.5001C26.1999 32.1001 25.0999 31.9001 24.2999 32.0001C23.4999 32.1001 22.3999 32.3001 21.8999 32.6001C21.3999 32.9001 20.7999 33.2001 20.9999 34.1001Z" fill="#EDA005"/>
<path d="M24.3 36.5992L24.2 37.7992C24.2 37.7992 22.2 37.4992 21.5 36.9992C20.8 36.4992 20.5 36.1992 20.3 35.8992C20.1 35.5992 20.1 35.1992 20.1 35.1992V34.1992C20.1 34.1992 20.4 35.0992 21 35.4992C21.6 35.8992 21.8 35.9992 21.8 35.9992L22.6 36.2992L23.5 36.4992L24.3 36.5992Z" fill="#EDA005"/>
<path d="M25.1 36.7005C25 36.7005 24.8 36.7005 24.7 36.7005C22.1 36.6005 20.1 35.3005 20.2 33.9005C20.3 32.5005 22.4 31.4005 25 31.5005C26.2 31.6005 27.4 31.9005 28.2 32.4005C29.1 32.9005 29.5 33.6005 29.5 34.3005C29.5 35.0005 29 35.6005 28 36.1005C27.2 36.5005 26.2 36.7005 25.1 36.7005ZM24.5 31.5005C22.2 31.5005 20.3 32.5005 20.2 33.8005C20.1 35.2005 22.1 36.4005 24.7 36.5005C25.9 36.6005 27.1 36.3005 28 35.9005C28.9 35.5005 29.4 34.9005 29.4 34.2005C29.4 33.5005 29 32.9005 28.2 32.4005C27.4 31.9005 26.2 31.6005 25 31.5005C24.8 31.5005 24.7 31.5005 24.5 31.5005Z" fill="black"/>
<path d="M24.9999 37.9004C24.8999 37.9004 24.6999 37.9004 24.5999 37.9004C21.9999 37.8004 19.9999 36.5004 20.0999 35.1004L20.1999 33.9004H20.2999L20.1999 35.1004C20.0999 36.5004 22.0999 37.7004 24.5999 37.8004C25.7999 37.9004 26.9999 37.6004 27.8999 37.2004C28.7999 36.8004 29.2999 36.2004 29.2999 35.5004L29.3999 34.3004H29.4999L29.3999 35.5004C29.3999 36.2004 28.8999 36.8004 27.8999 37.3004C27.1999 37.6004 26.0999 37.9004 24.9999 37.9004Z" fill="black"/>
<path d="M25.1 35.7991C25 35.7991 24.9 35.7991 24.7 35.7991C22.6 35.6991 20.8 34.6991 20.9 33.5991C20.9 33.0991 21.4 32.5991 22.1 32.2991C22.9 31.9991 23.8 31.7991 24.9 31.8991C27 31.9991 28.8 32.9991 28.7 33.9991C28.7 34.4991 28.2 34.9991 27.5 35.2991C26.8 35.6991 26 35.7991 25.1 35.7991ZM24.5 31.9991C23.6 31.9991 22.8 32.0991 22.1 32.3991C21.4 32.6991 21 33.1991 20.9 33.6991C20.9 34.6991 22.5 35.6991 24.6 35.7991C25.6 35.7991 26.6 35.6991 27.3 35.3991C28 35.0991 28.4 34.5991 28.5 34.0991C28.5 33.0991 26.9 32.0991 24.8 31.9991C24.8 31.9991 24.7 31.9991 24.5 31.9991Z" fill="black"/>
<path d="M28.4999 34.3998C28.1999 33.4998 26.5999 32.6998 24.7999 32.5998C23.9999 32.5998 23.2999 32.5998 22.5999 32.7998C21.7999 32.9998 21.1999 33.4998 20.9999 33.9998H20.8999C21.0999 33.4998 21.6999 32.9998 22.5999 32.7998C23.2999 32.5998 23.9999 32.4998 24.7999 32.5998C26.6999 32.6998 28.2999 33.3998 28.4999 34.3998Z" fill="black"/>
<path d="M29.5 32.6992L29.4 33.8992C29.3 35.2992 27.2 36.3992 24.7 36.1992C22.2 35.9992 20.1 34.7992 20.2 33.3992L20.3 32.1992" fill="#F5B114"/>
<path d="M29.5089 32.7043C29.5773 31.27 27.5755 30.0091 25.0378 29.8881C22.5001 29.7671 20.3874 30.8318 20.319 32.2661C20.2506 33.7005 22.2524 34.9614 24.7901 35.0824C27.3278 35.2034 29.4405 34.1387 29.5089 32.7043Z" fill="#FEC523"/>
<path d="M21.0999 32.5005C21.0999 32.5005 21.3999 31.8005 22.3999 31.4005C23.3999 31.0005 24.5999 31.0005 25.1999 31.0005C25.7999 31.0005 27.0999 31.3005 27.5999 31.7005C28.0999 32.1005 28.3999 32.3005 28.3999 32.3005L28.5999 32.6005L28.6999 32.8005C28.6999 32.8005 28.7999 32.4005 28.7999 32.3005C28.7999 32.2005 28.4999 31.3005 27.3999 30.9005C26.2999 30.5005 25.1999 30.3005 24.3999 30.4005C23.5999 30.5005 22.4999 30.7005 21.9999 31.0005C21.4999 31.3005 20.8999 31.6005 21.0999 32.5005Z" fill="#EDA005"/>
<path d="M24.4 34.9996L24.2999 36.1996C24.2999 36.1996 22.3 35.8996 21.6 35.3996C20.9 34.8996 20.6 34.5996 20.4 34.2996C20.2 33.9996 20.2 33.5996 20.2 33.5996V32.5996C20.2 32.5996 20.5 33.4996 21.1 33.8996C21.7 34.2996 22 34.3996 22 34.3996L22.7999 34.6996L23.7 34.8996L24.4 34.9996Z" fill="#EDA005"/>
<path d="M25.2 35.0989C25.1 35.0989 24.9 35.0989 24.8 35.0989C22.2 34.9989 20.2 33.6989 20.3 32.2989C20.4 30.8989 22.5 29.7989 25.1 29.8989C27.7 29.9989 29.7 31.2989 29.6 32.6989C29.6 33.3989 29.1 33.9989 28.1 34.4989C27.3 34.8989 26.3 35.0989 25.2 35.0989ZM24.6 29.9989C22.3 29.9989 20.4 30.9989 20.3 32.2989C20.2 33.6989 22.2 34.8989 24.8 34.9989C26 35.0989 27.2 34.7989 28.1 34.3989C29 33.9989 29.5 33.3989 29.5 32.6989C29.6 31.2989 27.6 30.0989 25.1 29.9989C24.9 29.9989 24.8 29.9989 24.6 29.9989Z" fill="black"/>
<path d="M25.1 36.2988C25 36.2988 24.8 36.2988 24.7 36.2988C22.1 36.1988 20.1 34.8988 20.2 33.4988L20.3 32.2988H20.4L20.3 33.4988C20.2 34.8988 22.2 36.0988 24.8 36.1988C26 36.2988 27.2 35.9988 28.1 35.5988C29 35.1988 29.5 34.5988 29.5 33.8988L29.6 32.6988H29.7L29.6 33.8988C29.6 34.5988 29.1 35.1988 28.1 35.6988C27.2 36.0988 26.2 36.2988 25.1 36.2988Z" fill="black"/>
<path d="M25.2 34.1988C25.1 34.1988 25 34.1988 24.8 34.1988C23.8 34.1988 22.8 33.8988 22.1 33.4988C21.4 33.0988 21 32.5988 21 31.9988C21 31.4988 21.5 30.9988 22.2 30.6988C23 30.3988 24 30.2988 25 30.2988C27.1 30.3988 28.9 31.3988 28.8 32.3988C28.8 32.8988 28.3 33.3988 27.6 33.6988C26.9 34.0988 26.1 34.1988 25.2 34.1988ZM24.6 30.3988C23.7 30.3988 22.9 30.4988 22.2 30.7988C21.5 31.0988 21.1 31.5988 21 32.0988C21 32.5988 21.4 33.0988 22 33.4988C22.7 33.8988 23.7 34.0988 24.7 34.1988C25.7 34.2988 26.7 34.0988 27.4 33.7988C28.1 33.4988 28.5 32.9988 28.6 32.4988C28.6 31.4988 27 30.4988 24.9 30.3988C24.9 30.3988 24.8 30.3988 24.6 30.3988Z" fill="black"/>
<path d="M28.6 32.8998C28.3 31.9998 26.7 31.1998 24.9 31.0998C24.1 31.0998 23.4 31.0998 22.7 31.2998C21.9 31.4998 21.3 31.9998 21.1 32.4998H21C21.2 31.9998 21.8 31.4998 22.7 31.2998C23.4 31.0998 24.1 30.9998 24.9 31.0998C26.8 31.0998 28.4 31.8998 28.6 32.8998Z" fill="black"/>
</svg>
