<svg width="20" height="20" viewBox="0 0 20 20" fill="none" xmlns="http://www.w3.org/2000/svg">
<g id="Icon">
<path id="Vector" d="M16.6667 18.3337C16.4864 18.3338 16.311 18.2753 16.167 18.1668L14.4442 16.8753L12.723 18.1668C12.5788 18.2754 12.4033 18.3341 12.2229 18.3341C12.0425 18.3341 11.8669 18.2754 11.7228 18.1668L10 16.8753L8.27718 18.1668C8.13305 18.2754 7.95753 18.3341 7.7771 18.3341C7.59667 18.3341 7.42115 18.2754 7.27702 18.1668L5.55583 16.8753L3.83301 18.1668C3.70925 18.2597 3.56205 18.3163 3.40793 18.3302C3.25381 18.3442 3.09886 18.3149 2.96045 18.2457C2.82204 18.1765 2.70564 18.0701 2.62432 17.9384C2.54299 17.8068 2.49994 17.6551 2.5 17.5003L2.5 2.50033C2.49994 2.39087 2.52145 2.28248 2.56331 2.18135C2.60516 2.08022 2.66654 1.98833 2.74394 1.91093C2.82133 1.83354 2.91322 1.77216 3.01436 1.7303C3.11549 1.68844 3.22388 1.66693 3.33333 1.66699L16.6667 1.66699C16.7761 1.66693 16.8845 1.68844 16.9856 1.7303C17.0868 1.77216 17.1787 1.83354 17.2561 1.91093C17.3335 1.98833 17.3948 2.08022 17.4367 2.18135C17.4785 2.28248 17.5001 2.39087 17.5 2.50033V17.5003C17.5 17.6098 17.4785 17.7182 17.4366 17.8193C17.3948 17.9204 17.3334 18.0123 17.256 18.0897C17.1786 18.1671 17.0867 18.2284 16.9856 18.2703C16.8845 18.3122 16.7761 18.3337 16.6667 18.3337Z" fill="#45AEFF"/>
<path id="Vector_2" d="M13.3334 6.66667L8.33337 6.66667C8.11236 6.66667 7.9004 6.57887 7.74412 6.42259C7.58784 6.26631 7.50004 6.05435 7.50004 5.83333C7.50004 5.61232 7.58784 5.40036 7.74412 5.24408C7.9004 5.0878 8.11236 5 8.33337 5L13.3334 5C13.5544 5 13.7663 5.0878 13.9226 5.24408C14.0789 5.40036 14.1667 5.61232 14.1667 5.83333C14.1667 6.05435 14.0789 6.26631 13.9226 6.42259C13.7663 6.57887 13.5544 6.66667 13.3334 6.66667ZM13.3334 10H6.66671C6.44569 10 6.23373 9.9122 6.07745 9.75592C5.92117 9.59964 5.83337 9.38768 5.83337 9.16667C5.83337 8.94565 5.92117 8.73369 6.07745 8.57741C6.23373 8.42113 6.44569 8.33333 6.66671 8.33333L13.3334 8.33333C13.5544 8.33333 13.7663 8.42113 13.9226 8.57741C14.0789 8.73369 14.1667 8.94565 14.1667 9.16667C14.1667 9.38768 14.0789 9.59964 13.9226 9.75592C13.7663 9.9122 13.5544 10 13.3334 10ZM13.3334 13.3333L6.66671 13.3333C6.44569 13.3333 6.23373 13.2455 6.07745 13.0893C5.92117 12.933 5.83337 12.721 5.83337 12.5C5.83337 12.279 5.92117 12.067 6.07745 11.9107C6.23373 11.7545 6.44569 11.6667 6.66671 11.6667H13.3334C13.5544 11.6667 13.7663 11.7545 13.9226 11.9107C14.0789 12.067 14.1667 12.279 14.1667 12.5C14.1667 12.721 14.0789 12.933 13.9226 13.0893C13.7663 13.2455 13.5544 13.3333 13.3334 13.3333Z" fill="#DAEFFF"/>
</g>
</svg>
