<svg width="40" height="50" viewBox="0 0 40 50" fill="none" xmlns="http://www.w3.org/2000/svg">
<path id="Vector" d="M19.4616 50C19.4224 50 19.3824 49.9955 19.3423 49.9858C19.0612 49.9185 18.8867 49.6301 18.9523 49.3417C19.5005 46.9349 19.8917 44.3016 20.1149 41.5147C20.1386 41.2199 20.3931 40.9976 20.6784 41.0246C20.9659 41.0486 21.18 41.3076 21.1563 41.6027C20.929 44.4416 20.5296 47.1276 19.9699 49.5857C19.9135 49.8328 19.6988 50 19.4614 50H19.4616ZM14.784 49.2971C14.7586 49.2971 14.7328 49.2952 14.7067 49.2913C14.4212 49.248 14.2242 48.9753 14.2666 48.6824C14.2864 48.5452 14.3096 48.3972 14.3441 48.2452C15.4597 43.347 15.8405 37.5683 15.4758 31.0693C15.4593 30.7738 15.6794 30.5201 15.9676 30.5032C16.2545 30.4875 16.5026 30.712 16.5193 31.0077C16.8896 37.6093 16.5003 43.4908 15.3619 48.4888C15.3375 48.5964 15.3197 48.707 15.3005 48.8398C15.262 49.1059 15.0388 49.2971 14.784 49.2971ZM24.4634 49.1903C24.4301 49.1903 24.3967 49.1871 24.3631 49.1805C24.0799 49.1239 23.8947 48.8426 23.9499 48.5518C24.5545 45.3625 24.919 41.8739 25.0337 38.1829C25.0429 37.8872 25.2828 37.6599 25.5725 37.6642C25.8609 37.6736 26.0872 37.9211 26.078 38.2172C25.9616 41.965 25.5907 45.5113 24.9756 48.7566C24.9271 49.0124 24.7083 49.1901 24.4634 49.1901V49.1903ZM10.3961 47.0946C10.3602 47.0946 10.3236 47.0905 10.2872 47.0826C10.0049 47.0213 9.82474 46.7365 9.88472 46.4468C10.0116 45.8338 10.1265 45.2064 10.226 44.5829C10.2726 44.2908 10.5403 44.0927 10.8262 44.1408C11.1109 44.1886 11.304 44.4643 11.2574 44.7564C11.1552 45.3964 11.0373 46.0401 10.9069 46.6698C10.8546 46.9218 10.6375 47.0946 10.3961 47.0946ZM29.7243 46.1874C29.7021 46.1874 29.6797 46.1859 29.657 46.1829C29.3709 46.1452 29.1686 45.8765 29.2053 45.5829C29.5966 42.4606 29.7949 39.1102 29.7947 35.6257C29.7947 35.3296 30.0285 35.0896 30.3172 35.0896C30.6058 35.0896 30.8396 35.3296 30.8396 35.6257C30.8396 39.1559 30.6386 42.5519 30.2417 45.7193C30.2079 45.9899 29.983 46.1872 29.7241 46.1872L29.7243 46.1874ZM6.23953 43.2811C6.21633 43.2811 6.19293 43.2796 6.16931 43.2764C5.88341 43.237 5.68278 42.9672 5.72124 42.6737C6.38206 37.6352 6.13692 32.3753 5.81507 28.8496C5.78832 28.5548 5.99919 28.2934 6.28655 28.2657C6.57496 28.2411 6.82867 28.4548 6.85563 28.7495C7.18249 32.3305 7.43098 37.6781 6.75699 42.8163C6.72167 43.0856 6.49742 43.2809 6.23974 43.2809L6.23953 43.2811ZM11.2444 40.7473C11.2319 40.7473 11.2191 40.7469 11.2064 40.7458C10.9186 40.7246 10.7021 40.4682 10.7228 40.1729C11.0647 35.2888 10.8502 30.015 10.0853 24.4981C9.51502 20.3839 8.97624 16.4981 12.1146 12.9917C12.3098 12.7734 12.6404 12.7593 12.8528 12.9593C13.0653 13.1598 13.0793 13.4988 12.8841 13.7167C10.0803 16.8496 10.5621 20.324 11.1198 24.3472C11.895 29.9393 12.1121 35.2895 11.765 40.2495C11.7451 40.5316 11.5159 40.7471 11.2444 40.7471V40.7473ZM34.9559 40.1551C34.9481 40.1551 34.9406 40.1551 34.9329 40.1547C34.6447 40.1418 34.4211 39.8916 34.4334 39.5959C34.8092 30.6717 33.8184 22.8604 33.1941 18.9985C33.1469 18.7064 33.3394 18.4305 33.624 18.3818C33.9091 18.3338 34.1776 18.5308 34.2248 18.8231C34.8558 22.7262 35.8573 30.6209 35.4771 39.6424C35.465 39.9302 35.2336 40.1553 34.9555 40.1553L34.9559 40.1551ZM20.8502 37.5823H20.8408C20.5524 37.5769 20.3227 37.3327 20.3277 37.0366C20.3659 34.8289 20.3126 32.5383 20.1695 30.2287C20.1513 29.9333 20.3697 29.6785 20.6577 29.6597C20.9436 29.6427 21.194 29.8651 21.2123 30.1606C21.3574 32.4992 21.4113 34.8193 21.3724 37.0559C21.3674 37.3486 21.1344 37.5823 20.8502 37.5823ZM1.93561 36.323C1.647 36.323 1.41314 36.0831 1.41314 35.7872C1.41251 32.6388 1.18638 29.3704 0.74061 26.0729C0.701111 25.7795 0.900696 25.5087 1.18638 25.4682C1.47291 25.4292 1.73603 25.6324 1.77552 25.9255C2.22778 29.2718 2.45725 32.5897 2.45787 35.7869C2.45787 36.0828 2.22422 36.323 1.93561 36.323ZM25.5395 32.9577C25.2596 32.9577 25.0279 32.7302 25.0176 32.4409C24.7545 24.9199 23.6324 19.2547 23.5848 19.0174C23.278 17.4922 22.1835 16.2522 20.7285 15.782C20.4533 15.693 20.3005 15.3919 20.3873 15.1095C20.474 14.8274 20.7672 14.6711 21.0426 14.7592C22.8583 15.3463 24.2247 16.895 24.6082 18.8008C24.6567 19.0422 25.7957 24.7928 26.0621 32.4025C26.0724 32.6984 25.8471 32.9469 25.5587 32.9575C25.5522 32.9575 25.5459 32.9579 25.5397 32.9579L25.5395 32.9577ZM30.2097 31.6386C29.9326 31.6386 29.7017 31.4151 29.6883 31.128C29.3431 23.6994 28.2647 18.2703 28.2191 18.0428C27.369 13.8147 23.6884 10.7461 19.4677 10.7461C18.8671 10.7461 18.2623 10.8089 17.6698 10.9326C17.2482 11.0206 16.8039 11.1556 16.3113 11.3452C16.0411 11.4492 15.74 11.3087 15.6386 11.0315C15.5372 10.7542 15.6741 10.4455 15.9444 10.3413C16.489 10.1316 16.9851 9.98147 17.4612 9.88177C18.1222 9.74368 18.7971 9.67378 19.4675 9.67378C24.1814 9.67378 28.2923 13.1024 29.2421 17.8263C29.2885 18.057 30.3828 23.5661 30.7318 31.077C30.7456 31.3727 30.523 31.624 30.2348 31.6379C30.2262 31.6383 30.2181 31.6386 30.2097 31.6386ZM39.4771 28.3397C39.2059 28.3397 38.9766 28.1246 38.9566 27.8427C38.4709 21.0033 37.5277 16.2931 37.4878 16.0961C36.8589 12.9686 35.4361 10.0306 33.3728 7.59905C33.1834 7.37584 33.2062 7.03727 33.4238 6.84279C33.6415 6.64853 33.9715 6.6719 34.1609 6.89511C36.3419 9.46515 37.846 12.5719 38.5108 15.8787C38.5511 16.0779 39.5081 20.8554 39.9986 27.7648C40.0197 28.0601 39.8032 28.317 39.5154 28.3384C39.5024 28.3395 39.4897 28.3399 39.4769 28.3399L39.4771 28.3397ZM15.6307 27.0778C15.3675 27.0778 15.141 26.8746 15.112 26.5999C14.7491 23.1895 14.318 20.9804 14.3136 20.9591C13.8647 18.7034 14.867 16.4079 16.8077 15.2461C17.057 15.0967 17.377 15.1831 17.5222 15.4389C17.6677 15.6945 17.5835 16.023 17.3343 16.172C15.7807 17.1022 14.9782 18.9393 15.3375 20.7441C15.3418 20.7655 15.782 23.0161 16.1508 26.4833C16.1822 26.7777 15.9751 27.042 15.6881 27.0744C15.6689 27.0766 15.6497 27.0776 15.6309 27.0776L15.6307 27.0778ZM20.1812 25.1721C19.9212 25.1721 19.6961 24.9733 19.6633 24.7021C19.4527 22.9588 19.2186 21.4159 18.9482 19.9846C18.8932 19.6941 19.0784 19.4125 19.3615 19.3561C19.6443 19.2997 19.9189 19.4895 19.9739 19.7805C20.2491 21.2357 20.4867 22.8025 20.7003 24.5702C20.7358 24.864 20.5325 25.1318 20.2462 25.1682C20.2245 25.171 20.2027 25.1721 20.1812 25.1721ZM5.80149 24.8558C5.54778 24.8558 5.32499 24.6658 5.2857 24.4006C5.13774 23.407 5.0322 22.8454 5.03116 22.8403C4.25288 18.9327 5.01945 14.9337 7.19064 11.5841C9.36266 8.23331 12.6735 5.94566 16.5132 5.14308C17.4865 4.94003 18.4804 4.83689 19.4677 4.83689C25.4297 4.83689 30.923 8.65164 33.1375 14.3295C33.2447 14.6044 33.1143 14.9164 32.8463 15.0264C32.578 15.1364 32.2743 15.0028 32.1671 14.7277C30.1103 9.45293 25.0065 5.90899 19.4677 5.90899C18.5502 5.90899 17.6263 6.00462 16.7216 6.19353C13.1546 6.93928 10.0787 9.06461 8.06087 12.1776C6.04496 15.2877 5.33294 18.9998 6.05583 22.6299C6.05771 22.6402 6.16743 23.2221 6.31853 24.2389C6.362 24.5314 6.16618 24.805 5.88091 24.8498C5.85436 24.8541 5.82761 24.8558 5.80149 24.8558ZM0.601005 22.1432C0.334544 22.1432 0.106955 21.935 0.0814587 21.6573C-0.179778 18.8077 0.190133 15.8654 1.15065 13.1489C1.24887 12.8704 1.54919 12.7271 1.82004 12.8277C2.09131 12.9289 2.23133 13.2362 2.1331 13.5145C1.22484 16.083 0.875199 18.8638 1.12201 21.5567C1.14897 21.8516 0.938105 22.1129 0.650745 22.1408C0.634026 22.1423 0.617516 22.1432 0.601215 22.1432H0.601005ZM3.62152 9.83031C3.52288 9.83031 3.42319 9.80179 3.33479 9.74197C3.09383 9.57922 3.02695 9.24666 3.18557 8.99943C6.05646 4.52512 10.453 1.47264 15.5652 0.404182C15.8486 0.343287 16.1239 0.532405 16.1816 0.822301C16.2392 1.1122 16.0566 1.39545 15.7738 1.45441C10.9359 2.46583 6.77538 5.3545 4.05852 9.58909C3.95821 9.7454 3.79143 9.83031 3.62152 9.83031ZM30.5017 4.74512C30.3962 4.74512 30.2894 4.71253 30.1972 4.64434C27.0279 2.30738 23.3177 1.0721 19.4679 1.0721C19.1793 1.0721 18.9454 0.832165 18.9454 0.53605C18.9454 0.239936 19.1793 0 19.4679 0C23.538 0 27.459 1.30496 30.807 3.7738C31.0413 3.94662 31.0948 4.28154 30.9264 4.52191C30.8242 4.66771 30.6641 4.74512 30.5017 4.74512Z" fill="#232324"/>
</svg>
