<svg width="16" height="16" viewBox="0 0 16 16" fill="none" xmlns="http://www.w3.org/2000/svg">
<path d="M1.83337 2.1666L3.22004 2.4066L3.86204 10.0553C3.91337 10.6799 4.43537 11.1593 5.06204 11.1573H12.3347C12.9327 11.1586 13.44 10.7186 13.5247 10.1266L14.1574 5.7546C14.228 5.26593 13.8887 4.8126 13.4007 4.74193C13.358 4.73593 3.44271 4.7326 3.44271 4.7326" stroke="#232220" stroke-linecap="round" stroke-linejoin="round"/>
<path d="M9.41675 7.19655H11.2654" stroke="#232220" stroke-linecap="round" stroke-linejoin="round"/>
<path fill-rule="evenodd" clip-rule="evenodd" d="M4.76965 13.4683C4.97032 13.4683 5.13232 13.631 5.13232 13.831C5.13232 14.0317 4.97032 14.1943 4.76965 14.1943C4.56898 14.1943 4.40698 14.0317 4.40698 13.831C4.40698 13.631 4.56898 13.4683 4.76965 13.4683Z" fill="#232220" stroke="#232220" stroke-linecap="round" stroke-linejoin="round"/>
<path fill-rule="evenodd" clip-rule="evenodd" d="M12.2898 13.4683C12.4905 13.4683 12.6531 13.631 12.6531 13.831C12.6531 14.0317 12.4905 14.1943 12.2898 14.1943C12.0891 14.1943 11.9271 14.0317 11.9271 13.831C11.9271 13.631 12.0891 13.4683 12.2898 13.4683Z" fill="#232220" stroke="#232220" stroke-linecap="round" stroke-linejoin="round"/>
</svg>
