<svg width="15" height="15" viewBox="0 0 15 15" fill="none" xmlns="http://www.w3.org/2000/svg">
<path d="M6.33329 8.66666L7.3563 11.3266C8.05952 13.1551 8.41113 14.0693 8.88328 14.2992C9.29163 14.4981 9.77314 14.4754 10.161 14.239C10.6094 13.9657 10.8735 13.0225 11.4018 11.136L13.3107 4.31881C13.6451 3.12447 13.8123 2.52729 13.6571 2.11751C13.5218 1.76022 13.2397 1.47815 12.8824 1.34284C12.4726 1.18764 11.8755 1.35485 10.6811 1.68926L3.86385 3.5981C1.97741 4.1263 1.03418 4.39041 0.760868 4.83884C0.52448 5.22669 0.501793 5.7082 0.700665 6.11655C0.930604 6.5887 1.84482 6.94032 3.67324 7.64356L6.33329 8.66666ZM6.33329 8.66666L7.99996 6.99999" stroke="white" stroke-linecap="round" stroke-linejoin="round"/>
</svg>
