<svg width="10" height="13" viewBox="0 0 10 13" fill="none" xmlns="http://www.w3.org/2000/svg">
<g id="Group 1">
<g id="Group">
<path id="Vector" d="M9 12L5.18844 8.08036C5.16371 8.05488 5.13434 8.03467 5.102 8.02089C5.06967 8.0071 5.035 8 5 8C4.965 8 4.93033 8.0071 4.898 8.02089C4.86566 8.03467 4.83629 8.05488 4.81156 8.08036L1 12" stroke="#6A6C6E" stroke-width="1.5" stroke-linecap="round" stroke-linejoin="round"/>
</g>
<g id="Group_2">
<path id="Vector_2" d="M9 5L5.18844 1.08036C5.16371 1.05488 5.13434 1.03467 5.102 1.02089C5.06967 1.0071 5.035 1 5 1C4.965 1 4.93033 1.0071 4.898 1.02089C4.86566 1.03467 4.83629 1.05488 4.81156 1.08036L1 5" stroke="#6A6C6E" stroke-width="1.5" stroke-linecap="round" stroke-linejoin="round"/>
</g>
</g>
</svg>
