<svg width="20" height="21" viewBox="0 0 20 21" fill="none" xmlns="http://www.w3.org/2000/svg">
<g id="Icon">
<path id="Vector" d="M15.0001 17.1664L15.0001 2.9997C15 2.85372 14.9615 2.71032 14.8886 2.58388C14.8156 2.45743 14.7107 2.35237 14.5844 2.2792C14.4581 2.20604 14.3147 2.16735 14.1688 2.16699C14.0228 2.16664 13.8793 2.20465 13.7526 2.2772L11.2501 3.71053L8.74758 2.2772C8.62149 2.20498 8.47872 2.16699 8.33341 2.16699C8.18811 2.16699 8.04533 2.20498 7.91925 2.2772L5.41675 3.71053L2.91425 2.2772C2.78757 2.20465 2.64406 2.16664 2.49807 2.16699C2.35209 2.16735 2.20876 2.20604 2.08244 2.2792C1.95611 2.35237 1.85122 2.45743 1.77827 2.58388C1.70531 2.71032 1.66686 2.85372 1.66675 2.9997L1.66675 17.1664C1.66675 17.6084 1.84234 18.0323 2.1549 18.3449C2.46746 18.6574 2.89139 18.833 3.33341 18.833L16.6667 18.833C16.2247 18.833 15.8008 18.6574 15.4882 18.3449C15.1757 18.0323 15.0001 17.6084 15.0001 17.1664Z" fill="#D3D7DB"/>
<path id="Vector_2" d="M18.3325 12.167V17.167C18.3325 17.609 18.1569 18.0329 17.8443 18.3455C17.5318 18.6581 17.1079 18.8337 16.6658 18.8337C16.2238 18.8337 15.7999 18.6581 15.4873 18.3455C15.1748 18.0329 14.9992 17.609 14.9992 17.167L14.9992 10.5003H16.6658C17.1079 10.5003 17.5318 10.6759 17.8443 10.9885C18.1569 11.301 18.3325 11.725 18.3325 12.167ZM9.16667 8.83366H7.5C7.27899 8.83366 7.06702 8.74586 6.91074 8.58958C6.75446 8.4333 6.66667 8.22134 6.66667 8.00033C6.66667 7.77931 6.75446 7.56735 6.91074 7.41107C7.06702 7.25479 7.27899 7.16699 7.5 7.16699L9.16667 7.16699C9.38768 7.16699 9.59964 7.25479 9.75592 7.41107C9.9122 7.56735 10 7.77931 10 8.00033C10 8.22134 9.9122 8.4333 9.75592 8.58958C9.59964 8.74586 9.38768 8.83366 9.16667 8.83366ZM10.8333 12.167H5.83333C5.61232 12.167 5.40036 12.0792 5.24408 11.9229C5.0878 11.7666 5 11.5547 5 11.3337C5 11.1126 5.0878 10.9007 5.24408 10.7444C5.40036 10.5881 5.61232 10.5003 5.83333 10.5003H10.8333C11.0543 10.5003 11.2663 10.5881 11.4226 10.7444C11.5789 10.9007 11.6667 11.1126 11.6667 11.3337C11.6667 11.5547 11.5789 11.7666 11.4226 11.9229C11.2663 12.0792 11.0543 12.167 10.8333 12.167ZM10.8333 15.5003L5.83333 15.5003C5.61232 15.5003 5.40036 15.4125 5.24408 15.2562C5.0878 15.1 5 14.888 5 14.667C5 14.446 5.0878 14.234 5.24408 14.0777C5.40036 13.9215 5.61232 13.8337 5.83333 13.8337H10.8333C11.0543 13.8337 11.2663 13.9215 11.4226 14.0777C11.5789 14.234 11.6667 14.446 11.6667 14.667C11.6667 14.888 11.5789 15.1 11.4226 15.2562C11.2663 15.4125 11.0543 15.5003 10.8333 15.5003Z" fill="#9FA3A6"/>
</g>
</svg>
