<svg width="16" height="16" viewBox="0 0 16 16" fill="none" xmlns="http://www.w3.org/2000/svg">
<path d="M6.88688 11.0619H2.6864" stroke="black" stroke-linecap="round" stroke-linejoin="round"/>
<path d="M8.76038 4.60025H12.9609" stroke="black" stroke-linecap="round" stroke-linejoin="round"/>
<path fill-rule="evenodd" clip-rule="evenodd" d="M5.81761 4.56417C5.81761 3.7004 5.11217 3 4.24218 3C3.37219 3 2.66675 3.7004 2.66675 4.56417C2.66675 5.42794 3.37219 6.12834 4.24218 6.12834C5.11217 6.12834 5.81761 5.42794 5.81761 4.56417Z" stroke="black" stroke-linecap="round" stroke-linejoin="round"/>
<path fill-rule="evenodd" clip-rule="evenodd" d="M13.3334 11.0358C13.3334 10.172 12.6285 9.47165 11.7585 9.47165C10.8879 9.47165 10.1825 10.172 10.1825 11.0358C10.1825 11.8996 10.8879 12.6 11.7585 12.6C12.6285 12.6 13.3334 11.8996 13.3334 11.0358Z" stroke="black" stroke-linecap="round" stroke-linejoin="round"/>
</svg>
