<svg width="40" height="39" viewBox="0 0 40 39" fill="none" xmlns="http://www.w3.org/2000/svg">
<path d="M5.8 14.7004C5.8 14.7004 5.4 14.6004 5.4 15.6004C5.4 16.6004 5 33.6004 5 33.6004C5 33.6004 5.1 33.9004 5.4 33.9004C5.7 33.9004 32.2 35.1004 32.2 35.1004L32 10.9004L5.8 14.7004Z" fill="#FEC523"/>
<path d="M32.8 34.6004L32.1 35.1004L32 10.9004L33.1 11.5004V34.0004C33.1 34.2004 33 34.4004 32.8 34.6004Z" fill="#F5B114"/>
<path d="M32.2001 35.2008C32.1001 35.2008 32.1001 35.1008 32.1001 35.1008V11.1008L5.80007 14.8008C5.60007 14.8008 5.50007 15.0008 5.50007 15.2008L5.40007 20.0008C5.40007 20.1008 5.30007 20.1008 5.30007 20.1008C5.20007 20.1008 5.20007 20.0008 5.20007 20.0008L5.30007 15.2008C5.30007 14.9008 5.50007 14.6008 5.80007 14.6008L32.0001 10.8008C32.1001 10.8008 32.2001 10.8008 32.2001 10.9008C32.2001 11.0008 32.3001 11.0008 32.3001 11.1008V35.1008C32.3001 35.1008 32.2001 35.1008 32.2001 35.2008Z" fill="#030303"/>
<path d="M32.2001 35.2008L5.20005 34.0008C5.00005 34.0008 4.80005 33.8008 4.80005 33.6008L5.10005 20.0008C5.10005 19.9008 5.20005 19.9008 5.20005 19.9008C5.30005 19.9008 5.30005 20.0008 5.30005 20.0008L5.00005 33.6008C5.00005 33.7008 5.10005 33.8008 5.20005 33.8008L32.1 35.0008L32.8 34.5008C32.9 34.4008 33 34.3008 33 34.1008V11.6008C33 11.6008 33.0001 11.5008 32.9001 11.5008L32.1 11.1008L16.4 23.3008C16 23.6008 15.5 23.6008 15.1 23.3008L5.50005 15.0008C5.40005 14.9008 5.40005 14.9008 5.50005 14.8008C5.50005 14.7008 5.60005 14.7008 5.70005 14.8008L15.3 23.1008C15.6 23.3008 16 23.3008 16.3 23.1008L32 10.8008L33 11.3008C33.1 11.4008 33.2001 11.5008 33.2001 11.6008V34.0008C33.2001 34.2008 33.1001 34.5008 32.9001 34.6008L32.2001 35.2008Z" fill="#030303"/>
<path d="M10.4 9.49961L15.4 7.59961L29.1 2.59961L29.3 2.69961L29.2 2.89961L23.5 14.1996L18.4 12.2996L18.2 16.1996L18 16.0996L15.8 11.3996L10.4 9.49961Z" fill="#7DC7FF"/>
<path d="M10.4 9.59961L10.6 10.3996L10.9 10.6996L15.2 12.0996L18.4 17.6996H18.5L19.1 13.6996L19.4 13.5996L23.8 15.5996L23.5 14.1996L18.4 12.2996L10.4 9.59961Z" fill="#45AEFF"/>
<path d="M25.7 5.20117L15.8 11.5012L18.1 16.2012H18.2L18.4 12.3012L25.9 5.20117H25.7Z" fill="#008DFA"/>
<path d="M18.6001 17.4996L21.0001 14.3996L19.4001 13.5996L19.1001 13.6996L18.6001 17.4996Z" fill="#008DFA"/>
<path d="M23.5 14.2012L28.1 5.20117L23.8 15.6012L23.5 14.2012Z" fill="#008DFA"/>
<path d="M23.4 14.4004H23.3L18.5 12.5004C18.4 12.5004 18.4 12.4004 18.4 12.3004C18.4 12.2004 18.5 12.2004 18.6 12.2004L23.4 14.1004H23.5L29.2 2.70039L25.4 4.10039C25.3 4.10039 25.3 4.10039 25.2 4.00039C25.1 3.90039 25.2 3.90039 25.3 3.80039L29.1 2.40039C29.2 2.40039 29.3 2.40039 29.4 2.50039C29.5 2.60039 29.5 2.70039 29.4 2.80039L23.7 14.2004C23.6 14.3004 23.5 14.4004 23.4 14.4004Z" fill="black"/>
<path d="M18.1 16.4C18 16.4 17.9 16.3 17.9 16.3L15.7 11.7C15.7 11.6 15.6 11.6 15.6 11.6L10.4 9.8C10.3 9.8 10.3 9.7 10.3 9.6C10.3 9.5 10.4 9.4 10.4 9.4L25.2 4C25.3 4 25.3 4 25.4 4.1C25.4 4.2 25.4 4.2 25.3 4.3L10.6 9.5L15.7 11.3C15.8 11.3 15.9 11.4 16 11.5L18.1 16L18.3 12.5C18.3 12.3 18.4 12.2 18.5 12L25.2 5.8C25.2 5.8 25.3 5.8 25.4 5.8C25.4 5.9 25.4 5.9 25.4 6L18.7 12.2C18.6 12.3 18.6 12.4 18.6 12.5L18.4 16.2C18.3 16.3 18.3 16.3 18.1 16.4Z" fill="black"/>
<path d="M25.2001 6.09962C25.1001 5.99962 25.1001 5.89962 25.1001 5.89962L25.5001 5.59962L25.3001 5.69962C25.2001 5.69962 25.2001 5.69962 25.1001 5.69962C25.1001 5.59962 25.1001 5.59962 25.1001 5.49962L25.7001 5.19962C25.8001 5.09962 25.9001 5.19962 26.0001 5.29962C26.1001 5.39962 26.0001 5.49962 26.0001 5.59962L25.2001 6.09962C25.3001 6.09962 25.3001 5.99962 25.2001 6.09962Z" fill="black"/>
<path d="M18.4 17.9012C18.3 17.9012 18.2 17.9012 18.2 17.8012L15.4 12.6012C15.3 12.4012 15.2 12.3012 15 12.2012L10.9 10.8012C10.7 10.7012 10.6 10.6012 10.5 10.4012L10.4 9.50117C10.4 9.40117 10.4 9.40117 10.5 9.40117C10.6 9.40117 10.6 9.40117 10.6 9.50117L10.7 10.4012C10.7 10.5012 10.8 10.6012 10.9 10.6012L15.1 12.0012C15.3 12.1012 15.6 12.3012 15.7 12.5012L18.5 17.7012L19.1 13.9012C19.1 13.8012 19.2 13.7012 19.3 13.6012C19.4 13.5012 19.5 13.5012 19.6 13.6012L23.7 15.5012H23.8C23.8 15.5012 23.9 15.5012 23.9 15.4012L29.3 2.80117C29.3 2.70117 29.4 2.70117 29.5 2.70117C29.6 2.70117 29.6 2.80117 29.6 2.90117L24 15.4012C24 15.5012 23.9 15.6012 23.8 15.6012C23.7 15.6012 23.6 15.6012 23.5 15.6012L19.4 13.7012H19.3C19.3 13.7012 19.3 13.8012 19.2 13.8012L18.6 17.6012C18.6 17.8012 18.5 17.9012 18.4 17.9012Z" fill="black"/>
<path d="M23.8 15.5996C23.7 15.5996 23.7 15.5996 23.7 15.4996L23.4 14.1996C23.4 14.0996 23.4 14.0996 23.5 14.0996C23.6 14.0996 23.6 14.0996 23.6 14.1996L23.9 15.4996L23.8 15.5996Z" fill="black"/>
<path d="M15.8001 11.6008C15.8001 11.6008 15.7001 11.6008 15.7001 11.5008C15.7001 11.4008 15.7001 11.4008 15.7001 11.3008L25.2001 5.30078C25.3001 5.30078 25.3001 5.30078 25.4001 5.30078C25.5001 5.30078 25.4001 5.40078 25.4001 5.50078L15.8001 11.6008Z" fill="black"/>
<path d="M18.5 17.7996C18.4 17.6996 18.4 17.5996 18.4 17.5996L21 14.2996C21 14.1996 21.1 14.1996 21.2 14.2996C21.2 14.2996 21.3 14.3996 21.2 14.4996L18.5 17.7996Z" fill="black"/>
</svg>
