<svg width="21" height="20" viewBox="0 0 21 20" fill="none" xmlns="http://www.w3.org/2000/svg">
<g id="Icon">
<path id="Vector" d="M17.7087 7.50024H2.7087C2.24858 7.50036 1.87548 7.12746 1.87537 6.66734C1.87537 6.6672 1.87537 6.66705 1.87537 6.66691V4.16691C1.87522 3.8083 2.10476 3.4899 2.44504 3.37671L9.94504 0.876709C10.1162 0.819743 10.3012 0.819743 10.4724 0.876709L17.9724 3.37671C18.3127 3.48991 18.5422 3.80831 18.542 4.16691V6.66691C18.5422 7.12703 18.1692 7.50013 17.7091 7.50024C17.709 7.50024 17.7088 7.50024 17.7087 7.50024ZM17.7087 18.3336H2.7087C2.24858 18.3337 1.87548 17.9608 1.87537 17.5007C1.87537 17.5005 1.87537 17.5004 1.87537 17.5002V15.8336C1.87687 14.4535 2.99527 13.3351 4.37537 13.3336H16.042C17.4221 13.3351 18.5405 14.4535 18.542 15.8336V17.5002C18.5422 17.9604 18.1692 18.3335 17.7091 18.3336C17.709 18.3336 17.7088 18.3336 17.7087 18.3336Z" fill="#7DC7FF"/>
<path id="Vector_2" d="M3.83337 7.5V13.3966C4.00834 13.3576 4.18875 13.3335 4.37537 13.3333H16.042C16.1418 13.3334 16.2366 13.3515 16.3334 13.363V7.5H3.83337Z" fill="#ECF7FF"/>
<path id="Vector_3" d="M7.16671 13.3333V7.5H3.83337V13.3966C4.00834 13.3576 4.18875 13.3335 4.37537 13.3333H7.16671ZM13 7.5V13.3333H16.042C16.1418 13.3334 16.2366 13.3515 16.3334 13.363V7.5H13Z" fill="#008DFA"/>
</g>
</svg>
