<svg width="16" height="15" viewBox="0 0 16 15" fill="none" xmlns="http://www.w3.org/2000/svg">
<g id="Group">
<path id="Vector" d="M0.5 7.5C0.5 9.48912 1.29018 11.3968 2.6967 12.8033C4.10322 14.2098 6.01088 15 8 15C9.98912 15 11.8968 14.2098 13.3033 12.8033C14.7098 11.3968 15.5 9.48912 15.5 7.5C15.5 5.51088 14.7098 3.60322 13.3033 2.1967C11.8968 0.790176 9.98912 0 8 0C6.01088 0 4.10322 0.790176 2.6967 2.1967C1.29018 3.60322 0.5 5.51088 0.5 7.5Z" fill="#232324"/>
<path id="Vector_2" d="M9.5 10.5H9C8.73478 10.5 8.48043 10.3946 8.29289 10.2071C8.10536 10.0196 8 9.76522 8 9.5V7C8 6.86739 7.94732 6.74022 7.85355 6.64645C7.75978 6.55268 7.63261 6.5 7.5 6.5H7" stroke="white" stroke-width="1.25" stroke-linecap="round" stroke-linejoin="round"/>
<path id="Vector_3" d="M7.75 4C7.70055 4 7.65222 4.01466 7.61111 4.04213C7.57 4.0696 7.53795 4.10865 7.51903 4.15433C7.50011 4.20001 7.49516 4.25028 7.5048 4.29877C7.51445 4.34727 7.53826 4.39181 7.57322 4.42678C7.60819 4.46174 7.65273 4.48555 7.70123 4.4952C7.74972 4.50484 7.79999 4.49989 7.84567 4.48097C7.89135 4.46205 7.9304 4.43 7.95787 4.38889C7.98534 4.34778 8 4.29945 8 4.25C8 4.1837 7.97366 4.12011 7.92678 4.07322C7.87989 4.02634 7.8163 4 7.75 4Z" stroke="white" stroke-width="1.25" stroke-linecap="round" stroke-linejoin="round"/>
</g>
</svg>
