<svg width="16" height="16" viewBox="0 0 16 16" fill="none" xmlns="http://www.w3.org/2000/svg">
<path d="M3.99996 4.66668L5.99996 1.33334M9.99996 1.33334L12 4.66668M6.16446 14.6667H9.83546C11.0814 14.6667 11.7044 14.6667 12.215 14.4435C12.6653 14.2467 13.0525 13.9293 13.3338 13.5264C13.6527 13.0694 13.7749 12.4585 14.0193 11.2368L14.3126 9.77011C14.6625 8.02073 14.8374 7.14604 14.6006 6.46151C14.3929 5.8611 13.9776 5.35457 13.4296 5.03314C12.8048 4.66668 11.9128 4.66668 10.1288 4.66668H5.87112C4.0871 4.66668 3.19509 4.66668 2.57029 5.03314C2.02228 5.35457 1.60703 5.8611 1.39931 6.46151C1.1625 7.14604 1.33744 8.02073 1.68731 9.77011L1.98065 11.2368C2.225 12.4585 2.34718 13.0694 2.66615 13.5264C2.94743 13.9293 3.33458 14.2467 3.78487 14.4435C4.2955 14.6667 4.91849 14.6667 6.16446 14.6667Z" stroke="#232220" stroke-linecap="round" stroke-linejoin="round"/>
</svg>
