<svg width="16" height="16" viewBox="0 0 16 16" fill="none" xmlns="http://www.w3.org/2000/svg">
<path d="M14.6668 8.66666L10.8623 10.5689C9.81283 11.0936 9.2881 11.356 8.73771 11.4593C8.25024 11.5507 7.75001 11.5507 7.26253 11.4593C6.71214 11.356 6.18741 11.0936 5.13796 10.5689L1.33346 8.66666M14.6668 12L10.8623 13.9022C9.81283 14.427 9.2881 14.6893 8.73771 14.7926C8.25024 14.8841 7.75001 14.8841 7.26253 14.7926C6.71214 14.6893 6.18741 14.427 5.13796 13.9022L1.33346 12M3.81634 6.57477L6.09201 7.7126C6.79165 8.06242 7.14147 8.23733 7.5084 8.30617C7.83338 8.36714 8.16687 8.36714 8.49185 8.30617C8.85878 8.23733 9.2086 8.06242 9.90823 7.7126L12.1839 6.57477C13.4122 5.96063 14.0263 5.65355 14.2234 5.23802C14.3949 4.87642 14.3949 4.4569 14.2234 4.09529C14.0263 3.67976 13.4122 3.37269 12.1839 2.75855L9.90823 1.62071C9.2086 1.27089 8.85878 1.09598 8.49185 1.02714C8.16687 0.966171 7.83338 0.966171 7.5084 1.02714C7.14147 1.09598 6.79165 1.27089 6.09201 1.62071L3.81634 2.75855C2.58806 3.37269 1.97392 3.67976 1.77684 4.09529C1.60534 4.4569 1.60534 4.87642 1.77684 5.23802C1.97392 5.65355 2.58806 5.96063 3.81634 6.57477Z" stroke="white" stroke-linecap="round" stroke-linejoin="round"/>
</svg>
