<svg width="40" height="31" viewBox="0 0 40 31" fill="none" xmlns="http://www.w3.org/2000/svg">
<path d="M31.8 1.2L35.4 8.6C35.4 8.6 35.4 8.7 35.4 9C35.4 9.3 27.9 29.3 27.9 29.3C27.9 29.3 27.3 30.5 25.8 30.5L4.79998 30.4C4.79998 30.4 4.39998 30.3 4.09998 29.9C3.79998 29.5 0.599976 22.6 0.599976 22.6L31.1 1L31.8 1.2Z" fill="#45ADFF"/>
<path d="M31.0001 0.599609C31.0001 0.599609 31.6001 0.599609 31.7001 0.999609C31.8001 1.39961 31.5001 1.89961 31.5001 1.89961L24.2001 21.6996C24.2001 21.6996 23.6001 23.0996 22.1001 23.0996L1.10008 22.9996C1.10008 22.9996 0.100084 22.5996 0.500084 21.7996L9.30008 1.59961C9.30008 1.59961 9.80008 0.69961 10.8001 0.69961L31.0001 0.599609Z" fill="#7DC7FF"/>
<path d="M22.1 23.3L1.30004 23.1C1.00004 23.1 0.700036 22.9 0.500036 22.7C0.300036 22.5 0.300036 22.1 0.400036 21.8L9.10004 1.7C9.40004 1 10.1 0.5 10.9 0.5H31.1C31.3 0.5 31.6 0.6 31.7 0.8C31.8 1 31.9 1.2 31.8 1.5L24.3 21.7C24 22.6 23.1 23.2 22.1 23.3ZM10.9 0.8C10.2 0.8 9.60004 1.2 9.30004 1.8L0.600036 21.9C0.500036 22.1 0.500036 22.4 0.700036 22.6C0.900036 22.8 1.10004 22.9 1.30004 22.9L22.1 23C23 23 23.8 22.4 24.1 21.6L31.6 1.4C31.7 1.2 31.6 1.1 31.5 1C31.4 0.9 31.3 0.8 31.1 0.8H10.9Z" fill="#231F20"/>
<path d="M23 24.7004L2 24.6004C1.6 24.6004 1.3 24.4004 1.2 24.1004L0.5 22.7004C0.5 22.6004 0.5 22.6004 0.6 22.5004C0.7 22.4004 0.7 22.5004 0.8 22.6004L1.5 24.0004C1.6 24.2004 1.9 24.4004 2.1 24.4004L23.1 24.5004C24 24.5004 24.8 23.9004 25.1 23.1004L32.5 3.00039C32.5 2.90039 32.5 2.80039 32.5 2.60039L31.7 1.10039C31.7 1.00039 31.7 1.00039 31.7 0.900391C31.8 0.900391 31.8 0.900391 31.9 1.00039L32.7 2.50039C32.8 2.70039 32.8 2.90039 32.7 3.10039L25.3 23.2004C24.8 24.1004 23.9 24.7004 23 24.7004Z" fill="#231F20"/>
<path d="M23.7001 26.2L2.70007 26.1C2.40007 26.1 2.00007 25.9 1.90007 25.6L1.20007 24.2C1.20007 24.1 1.20007 24.1 1.30007 24C1.40007 23.9 1.40007 24 1.50007 24.1L2.10007 25.4C2.20007 25.6 2.40007 25.8 2.70007 25.8L23.7001 25.9C24.6001 25.9 25.4001 25.3 25.7001 24.5L33.1001 4.4C33.1001 4.3 33.1001 4.1 33.1001 4L32.4001 2.7C32.4001 2.6 32.4001 2.6 32.4001 2.5C32.5001 2.5 32.5001 2.5 32.6001 2.6L33.3001 3.9C33.4001 4.1 33.4001 4.3 33.3001 4.5L25.9001 24.6C25.6001 25.6 24.7001 26.2 23.7001 26.2Z" fill="#231F20"/>
<path d="M24.4 27.6996L3.40002 27.5996C3.10002 27.5996 2.70002 27.3996 2.60002 27.0996L1.90002 25.6996C1.90002 25.5996 1.90002 25.5996 2.00002 25.4996C2.10002 25.3996 2.10002 25.4996 2.20002 25.5996L2.90002 26.9996C3.00002 27.1996 3.20002 27.3996 3.50002 27.3996L24.5 27.4996C25.4 27.4996 26.2 26.8996 26.5 26.0996L33.9 5.99961C33.9 5.89961 33.9 5.79961 33.9 5.59961L33.2 4.29961C33.2 4.19961 33.2 4.19961 33.2 4.09961C33.3 4.09961 33.3 4.09961 33.4 4.19961L34 5.49961C34.1 5.69961 34.1 5.89961 34 6.09961L26.6 26.1996C26.3 27.0996 25.4 27.6996 24.4 27.6996Z" fill="#231F20"/>
<path d="M25.1 29.2008L4.09998 29.1008C3.79998 29.1008 3.39998 28.9008 3.29998 28.6008L2.59998 27.2008C2.59998 27.1008 2.59998 27.1008 2.69998 27.0008C2.79998 26.9008 2.79998 27.0008 2.89998 27.1008L3.49998 28.4008C3.59998 28.6008 3.79998 28.8008 4.09998 28.8008L25.1 28.9008C26 28.9008 26.8 28.3008 27.1 27.5008L34.5 7.4008C34.5 7.3008 34.5 7.2008 34.5 7.0008L33.8 5.6008C33.8 5.5008 33.8 5.5008 33.9 5.4008C34 5.3008 34 5.4008 34.1 5.5008L34.8 6.9008C34.9 7.1008 34.9 7.3008 34.8 7.5008L27.4 27.6008C27 28.5008 26.1 29.1008 25.1 29.2008Z" fill="#231F20"/>
<path d="M25.8 30.6008L4.80005 30.5008C4.50005 30.5008 4.10005 30.3008 4.00005 30.0008L3.30005 28.6008C3.30005 28.5008 3.30005 28.5008 3.40005 28.4008C3.50005 28.4008 3.50005 28.4008 3.60005 28.5008L4.30005 29.9008C4.40005 30.1008 4.60005 30.3008 4.90005 30.3008L25.9 30.4008C26.8 30.4008 27.6 29.8008 27.9 29.0008L35.3 8.9008C35.3 8.8008 35.3 8.7008 35.3 8.5008L34.6 7.1008C34.6 7.0008 34.6 7.0008 34.7001 6.9008C34.8001 6.8008 34.8001 6.9008 34.9001 7.0008L35.6 8.4008C35.7 8.6008 35.7 8.8008 35.6 9.0008L28.2001 29.1008C27.7001 30.0008 26.8 30.6008 25.8 30.6008Z" fill="#231F20"/>
<path d="M27.3001 4.39922H11.2001C11.1001 4.39922 11.1001 4.29922 11.1001 4.29922L11.2001 4.19922H27.3001C27.4001 4.19922 27.4001 4.29922 27.4001 4.29922L27.3001 4.39922Z" fill="#231F20"/>
<path d="M10.1 7.3C10 7.3 10 7.2 10 7.2L10.1 7.1L26 7C26.1 7 26.1 7.1 26.1 7.1C26.1 7.1 26.1 7.2 26 7.2L10.1 7.3Z" fill="#231F20"/>
<path d="M24.8 10.5996L9.1 10.3996C9.1 10.3996 9 10.2996 9 10.1996C9 10.0996 9.1 10.0996 9.1 10.0996L24.7 10.2996C24.8 10.2996 24.8 10.3996 24.8 10.3996C24.9 10.4996 24.8 10.5996 24.8 10.5996Z" fill="#231F20"/>
<path d="M23.5 13.5008H7.40005C7.30005 13.5008 7.30005 13.5008 7.30005 13.4008C7.30005 13.3008 7.40005 13.3008 7.40005 13.3008H23.5C23.6 13.3008 23.6 13.3008 23.6 13.4008C23.6 13.5008 23.6 13.5008 23.5 13.5008Z" fill="#231F20"/>
<path d="M22.5 16.7004H5.69998C5.59998 16.7004 5.59998 16.7004 5.59998 16.6004C5.59998 16.5004 5.59998 16.4004 5.69998 16.4004H22.5C22.6 16.4004 22.6 16.4004 22.6 16.5004C22.6 16.6004 22.6 16.7004 22.5 16.7004Z" fill="#231F20"/>
<path d="M21.3 19.7996H4.6C4.5 19.7996 4.5 19.7996 4.5 19.6996C4.5 19.5996 4.6 19.5996 4.6 19.5996H21.4C21.5 19.5996 21.5 19.5996 21.5 19.6996C21.5 19.7996 21.4 19.7996 21.3 19.7996Z" fill="#231F20"/>
<path d="M20.9001 14.5993C23.4001 17.5993 27.6001 18.1993 30.2001 15.9993C30.4001 15.8993 30.6001 15.6993 30.7001 15.4993C30.8001 15.3993 30.8001 15.3993 30.7001 15.4993C32.8001 13.1993 32.6001 9.3993 30.3001 6.5993C32.4001 8.9993 32.5001 12.2993 30.5001 13.9993C28.5001 15.6993 25.3001 14.9993 23.2001 12.5993C21.1001 10.1993 21.0001 6.7993 23.0001 5.1993C24.7001 3.6993 27.5001 4.0993 29.5001 5.7993C27.1001 3.6993 23.9001 3.2993 21.6001 4.7993C21.4001 4.8993 21.2001 5.0993 21.0001 5.1993C18.3001 7.3993 18.3001 11.5993 20.9001 14.5993Z" fill="#5E3EEB"/>
<path d="M21.9 13.7003C24.3 16.5003 28 17.2003 30.6 15.5003C32.3 14.4003 32.3 14.4003 30.6 15.5003C30.8 15.4003 31 15.2003 31.2 15.1003C33.8 12.9003 33.8 8.70028 31.3 5.70028C28.8 2.70028 24.6 2.10028 22 4.30028C21.8 4.50028 21.6 4.60028 21.5 4.80028C19.4 7.10028 19.6 10.9003 21.9 13.7003ZM22.9 5.20028C24.6 3.70028 27.3 4.10028 29.4 5.80028L29.5 5.90028L29.6 6.00028L29.7 6.10028C29.7 6.20028 29.8 6.20028 29.9 6.30028C30 6.40028 30.1 6.50028 30.2 6.60028C32.3 9.00028 32.4 12.3003 30.4 14.0003C28.4 15.7003 25.2 15.0003 23.1 12.6003C21 10.2003 20.9 6.90028 22.9 5.20028Z" fill="#7E65EF"/>
<path d="M30.3 13.7994C30.3 13.7994 30.6 13.0994 30.7 12.4994C30.8 11.8994 30.9 9.29935 28.8 7.19935C26.7 5.09935 24.5 5.29935 24.5 5.29935L23.2 5.39935L22.4 5.79935C22.4 5.79935 24.8 2.99935 28.3 5.09935C31.8 7.19935 31.9 10.6994 31.8 11.3994C31.7 12.0994 31.3 13.4994 30 14.3994L30.3 13.7994Z" fill="#5E3EEB"/>
<g opacity="0.8">
<path d="M30.3658 14.1635C32.3299 12.552 32.2749 9.23814 30.2431 6.7617C28.2113 4.28527 24.972 3.58406 23.0079 5.1955C21.0439 6.80695 21.0988 10.1208 23.1306 12.5973C25.1624 15.0737 28.4017 15.7749 30.3658 14.1635Z" fill="#F4F7FA"/>
</g>
<path d="M34.8001 16.0002L39.3001 20.1002C39.3001 20.1002 39.1001 20.7002 38.2001 21.8002C37.3001 22.9002 36.7001 22.4002 36.7001 22.4002L32.5001 18.5002C32.5001 18.5002 32.3001 18.5002 32.4001 17.9002C32.5001 17.3002 33.4001 16.5002 33.8001 16.1002C34.2001 15.7002 34.5001 15.8002 34.5001 15.8002L34.8001 16.0002Z" fill="#5E3EEB"/>
<path d="M33.9 15.201L39 20.001C39 20.001 38.1 20.001 37.3 21.101C36.5 22.201 36.7 22.501 36.7 22.501L31.6 17.801C31.6 17.801 31.4 17.801 31.5 17.201C31.6 16.601 32.5 15.801 32.9 15.401C33.3 15.001 33.6 15.101 33.6 15.101L33.9 15.201Z" fill="#7E65EF"/>
<path d="M31.8001 14.5L32.8001 15.5L32.1001 16.1L31.7001 16.7L30.6001 15.6L31.8001 14.5Z" fill="#7E65EF"/>
<path d="M32 14.8L31.1 16.1L30.5 15.6L31.8 14.5L32 14.8Z" fill="#5E3EEB"/>
<path d="M27.5 16.4992C27.2 16.4992 26.8 16.4992 26.5 16.3992C24.7 16.0992 23 15.1992 21.8 13.6992C20.6 12.1992 19.9 10.3992 19.9 8.59916C19.9 6.79916 20.6 5.19916 21.9 4.09916C23.2 2.99916 24.9 2.59916 26.6 2.89916C28.4 3.19916 30.1 4.09916 31.3 5.59916C32.5 7.09916 33.2 8.89916 33.2 10.6992C33.2 12.4992 32.5 14.0992 31.2 15.1992C30.2 16.0992 28.9 16.4992 27.5 16.4992ZM25.6 3.09916C24.3 3.09916 23 3.59916 22 4.39916C20.8 5.39916 20.1 6.99916 20.1 8.69916C20.1 10.3992 20.7 12.1992 22 13.5992C23.3 14.9992 24.8 15.9992 26.5 16.1992C28.2 16.4992 29.8 15.9992 31 14.9992C32.2 13.9992 32.9 12.3992 32.9 10.6992C32.9 8.99916 32.2 7.19916 31 5.79916C29.8 4.39916 28.2 3.39916 26.4 3.19916C26.3 3.09916 25.9 3.09916 25.6 3.09916Z" fill="black"/>
<path d="M26.5 17.4992C24.5 17.4992 22.3 16.4992 20.8 14.6992C19.6 13.1992 18.9 11.3992 18.9 9.59922C18.9 7.79922 19.6 6.19922 20.9 5.09922L22 4.19922C22 4.19922 22.1 4.19922 22.2 4.19922C22.3 4.19922 22.2 4.29922 22.2 4.39922L21 5.29922C19.8 6.29922 19.1 7.89922 19.1 9.59922C19.1 11.2992 19.7 13.0992 21 14.4992C23.5 17.3992 27.6 18.0992 30.1 15.8992L31.4 14.6992C31.4 14.6992 31.5 14.6992 31.6 14.6992C31.6 14.6992 31.6 14.7992 31.6 14.8992L30.3 16.0992C29.2 16.9992 27.8 17.4992 26.5 17.4992Z" fill="black"/>
<path d="M27.8 15.1006C26.2 15.1006 24.4 14.3006 23.1 12.7006C21 10.2006 20.9 6.80062 22.9 5.10062C23.9 4.30062 25.2 4.00063 26.6 4.20063C28 4.50063 29.3 5.30063 30.4 6.50063C32.5 9.00063 32.6 12.4006 30.6 14.1006C29.7 14.7006 28.8 15.1006 27.8 15.1006ZM25.6 4.40062C24.6 4.40062 23.7 4.70062 23 5.30062C21.1 6.90062 21.2 10.2006 23.2 12.5006C25.2 14.8006 28.4 15.5006 30.3 13.9006C32.2 12.3006 32.1 9.00062 30.1 6.70062C29.1 5.60062 27.8 4.80063 26.5 4.50063C26.2 4.40063 25.9 4.40062 25.6 4.40062Z" fill="black"/>
<path d="M29.9 14.4994C29.8 14.3994 29.8 14.2994 29.8 14.2994C31.2 12.5994 30.9 9.6994 29.1 7.5994C27.3 5.4994 24.6 4.6994 22.6 5.7994C22.5 5.7994 22.5 5.7994 22.4 5.6994C22.3 5.5994 22.4 5.5994 22.4 5.4994C24.5 4.3994 27.3 5.0994 29.2 7.2994C31.1 9.5994 31.4 12.5994 29.9 14.4994Z" fill="black"/>
<path d="M36.7001 22.5993L31.6001 17.8993C31.4001 17.6993 31.3001 17.3993 31.4001 17.0993C31.6001 16.5993 31.9001 16.0993 32.3001 15.6993C32.6001 15.3993 32.9001 15.1993 33.3001 14.9993C33.6001 14.8993 33.9001 14.8993 34.1001 15.0993L39.1001 19.7993C39.1001 19.7993 39.1001 19.8993 39.1001 19.9993C39.1001 19.9993 39.0001 19.9993 38.9001 19.9993L33.9001 15.2993C33.8001 15.1993 33.6001 15.0993 33.4001 15.1993C33.0001 15.3993 32.7001 15.5993 32.4001 15.8993C32.0001 16.2993 31.7001 16.6993 31.5001 17.1993C31.4001 17.3993 31.5001 17.5993 31.6001 17.6993L36.6001 22.3993C36.8001 22.3993 36.8001 22.4993 36.7001 22.5993Z" fill="black"/>
<path d="M36.9001 22.6996C36.8001 22.6996 36.7001 22.6996 36.6001 22.5996C36.5001 22.4996 36.4001 22.2996 36.6001 21.7996C36.8001 21.4996 37.0001 21.0996 37.4001 20.7996C37.7001 20.4996 38.1001 20.1996 38.4001 19.9996C38.9001 19.7996 39.1001 19.7996 39.2001 19.9996C39.3001 20.1996 39.4001 20.2996 39.2001 20.7996C39.0001 21.0996 38.8001 21.4996 38.4001 21.7996C38.1001 22.0996 37.7001 22.3996 37.4001 22.5996C37.2001 22.6996 37.1001 22.6996 36.9001 22.6996ZM37.6001 20.8996C37.3001 21.1996 37.0001 21.5996 36.9001 21.8996C36.8001 22.1996 36.8001 22.3996 36.8001 22.3996C36.8001 22.3996 37.0001 22.4996 37.3001 22.2996C37.6001 22.0996 37.9001 21.8996 38.3001 21.5996C38.6001 21.2996 38.9001 20.8996 39.0001 20.5996C39.1001 20.2996 39.1001 20.0996 39.1001 20.0996C39.1001 20.0996 38.9001 19.9996 38.6001 20.1996C38.3001 20.3996 37.9001 20.5996 37.6001 20.8996Z" fill="black"/>
<path d="M32.8001 15.6004L31.7001 14.6004C31.7001 14.6004 31.7001 14.5004 31.7001 14.4004C31.7001 14.4004 31.8001 14.4004 31.9001 14.4004L32.9001 15.4004C32.9001 15.4004 33.0001 15.5004 32.8001 15.6004Z" fill="black"/>
<path d="M31.7 16.8L30.5 15.7C30.5 15.7 30.5 15.6 30.5 15.5C30.5 15.5 30.6 15.5 30.7 15.5L31.8 16.5C31.8 16.6 31.8 16.7 31.7 16.8Z" fill="black"/>
</svg>
