<svg width="16" height="16" viewBox="0 0 16 16" fill="none" xmlns="http://www.w3.org/2000/svg">
<path fill-rule="evenodd" clip-rule="evenodd" d="M2.33331 6.87848C2.33331 3.81191 4.8959 1.33331 7.99561 1.33331C11.1041 1.33331 13.6666 3.81191 13.6666 6.87848C13.6666 8.42377 13.1047 9.8584 12.1796 11.0744C11.1592 12.4157 9.90142 13.5843 8.48567 14.5016C8.16165 14.7136 7.86923 14.7296 7.51361 14.5016C6.0898 13.5843 4.83204 12.4157 3.82031 11.0744C2.89464 9.8584 2.33331 8.42377 2.33331 6.87848ZM6.12944 7.05114C6.12944 8.07844 6.96772 8.88642 7.99558 8.88642C9.02411 8.88642 9.87046 8.07844 9.87046 7.05114C9.87046 6.03183 9.02411 5.18452 7.99558 5.18452C6.96772 5.18452 6.12944 6.03183 6.12944 7.05114Z" fill="#A5957E"/>
</svg>
