<svg width="40" height="34" viewBox="0 0 40 34" fill="none" xmlns="http://www.w3.org/2000/svg">
<path d="M33.3 4L8.59998 28L9.89997 29.3C9.89997 29.3 12.9 32.2 16.8 32.7C20.7 33.2 24.8 32.7 27.8 31.1C30.8 29.5 33.6 27.6 35.3 25.2C37 22.8 38 20.6 38.7 17.8C39.4 15 38.6 11.6 38.5 11C38.4 10.4 36.6 6 33.3 4Z" fill="#D93C48"/>
<path d="M32.2 3.29922C32.2 3.29922 36 6.39922 36.9 10.0992C37.8 13.7992 37.6 17.4992 35.9 21.0992C34.2 24.6992 30.8 28.3992 25.7 30.5992C20.6 32.7992 14.5 31.7992 11.5 30.0992C8.49997 28.3992 5.19997 24.2992 4.89997 21.0992C4.59997 17.8992 4.19997 14.3992 6.89997 10.0992C9.59997 5.89922 13.5 2.69922 16.5 1.79922C19.6 0.799218 26.1 -1.10078 32.2 3.29922Z" fill="#FD8E97"/>
<path d="M32.8001 5.09904C32.8001 5.09904 38.9001 10.999 34.5001 20.399C34.5001 20.399 29.9001 29.899 18.6001 30.399C18.6001 30.399 8.30005 30.599 5.90005 21.499C5.90005 21.499 3.40005 13.699 10.7001 6.49904C10.7001 6.49904 15.5001 1.69904 21.9001 1.29904C21.9001 1.29904 28.5 0.699035 32.8001 5.09904Z" fill="#FC4E5A"/>
<path d="M25.1 9.40039L18.3 14.1004L19 15.0004C19 15.0004 20.1 16.2004 22.3 15.9004C24.5 15.6004 25.5 13.8004 25.8 13.1004C26 12.3004 26.4001 10.6004 25.1 9.40039Z" fill="#FD8E97"/>
<path d="M24.5 8.30039C24.5 8.30039 26.3 10.2004 25.2 12.4004C24.1 14.6004 22 15.4004 20.1 15.0004C18.2 14.6004 17.4 12.4004 17.6 11.2004C17.7 10.3004 18.3 8.30039 21.1 7.60039C23 7.10039 24.5 8.30039 24.5 8.30039Z" fill="white"/>
<path d="M26.9 18.0997C26.9 18.0997 27.4 18.5997 27.5 18.8997C27.6 19.1997 27.6 22.5997 27.6 22.5997C27.6 22.5997 27.4 23.4997 26.5 23.5997C25.6 23.6997 13.7 23.7997 13.7 23.7997C13.7 23.7997 13.3 23.4997 13.3 23.0997C13.3 22.6997 13.5 19.5997 13.5 19.5997L14 18.7997C14 18.7997 16.5 15.9997 20.9 16.1997C24.4 16.2997 26.9 18.0997 26.9 18.0997Z" fill="white"/>
<path d="M27.4 18.5004C27.4 18.5004 28.2 19.0004 28.3 20.0004C28.4 21.0004 28.3 23.6004 28.3 23.6004C28.3 23.6004 28.2 24.4004 27 24.5004C25.8 24.6004 14.6 24.7004 14.6 24.7004C14.6 24.7004 14.1 24.6004 13.8 24.3004C13.5 24.0004 13.3 23.6004 13.3 23.6004L13.6 23.8004L26.6 23.6004C26.6 23.6004 27.6 23.5004 27.6 22.3004C27.6 21.0004 27.6 19.2004 27.6 19.2004L27.2 18.4004L27.4 18.5004Z" fill="#FD8E97"/>
<g opacity="0.2">
<path d="M27.6 22.6992L28.3 23.4992C28.3 23.4992 28.2 23.9992 28 24.1992C27.8 24.3992 27.2 24.4992 27.2 24.4992L26.4 23.5992C26.4 23.5992 27 23.3992 27.2 23.2992C27.4 23.1992 27.6 22.6992 27.6 22.6992Z" fill="white"/>
</g>
<path d="M18.9001 31.9998C14.8001 31.9998 10.8001 30.4998 8.10006 27.4998C7.70006 27.0998 7.40006 26.6998 7.10006 26.1998C4.70006 22.9998 3.90006 18.8998 4.90006 14.5998C5.90006 10.3998 8.50006 6.59979 12.2001 3.89979C18.7001 -0.700213 27.0001 -0.900213 32.5001 3.29979C33.5001 4.09979 34.4001 4.99979 35.1001 5.99979C39.9001 12.6998 37.6001 22.6998 29.9001 28.2998C26.5001 30.7998 22.6001 31.9998 18.9001 31.9998ZM7.20006 26.0998C7.50006 26.5998 7.90006 26.9998 8.20006 27.2998C13.3001 32.8998 22.6001 33.1998 29.7001 28.0998C37.3001 22.5998 39.7001 12.7998 34.9001 6.09979C34.2001 5.09979 33.3001 4.19979 32.3001 3.39979C26.9001 -0.800213 18.7001 -0.500213 12.4001 3.99979C8.70006 6.69979 6.10006 10.3998 5.10006 14.5998C4.20006 18.8998 4.90006 22.8998 7.20006 26.0998ZM18.5001 30.4998C18.1001 30.4998 17.7001 30.4998 17.2001 30.4998C13.2001 30.1998 9.80006 28.3998 7.60006 25.3998C6.50006 23.8998 5.80006 22.0998 5.50006 20.1998V20.0998C4.70006 14.4998 7.50006 8.49979 12.8001 4.69979C16.5001 2.09979 20.9001 0.799787 25.0001 1.29979C28.8001 1.69979 31.9001 3.49979 34.0001 6.39979C38.4001 12.5998 36.1001 21.7998 28.9001 27.0998C25.8001 29.2998 22.1001 30.4998 18.5001 30.4998ZM5.80006 20.0998C6.10006 21.9998 6.80006 23.6998 7.90006 25.1998C10.0001 28.0998 13.3001 29.8998 17.3001 30.1998C21.3001 30.4998 25.3001 29.2998 28.8001 26.7998C36.0001 21.5998 38.3001 12.4998 33.9001 6.39979C31.9001 3.59979 28.8001 1.79979 25.1001 1.39979C21.0001 0.999787 16.6001 2.29979 12.9001 4.89979C7.80006 8.59979 4.90006 14.4998 5.80006 20.0998ZM14.9001 24.7998C14.2001 24.7998 13.8001 24.3998 13.6001 24.1998C13.3001 23.8998 13.2001 23.5998 13.2001 23.3998C13.2001 23.2998 13.2001 23.1998 13.2001 23.0998L13.3001 19.9998C13.3001 19.4998 13.6001 18.8998 14.0001 18.5998C15.5001 17.2998 17.3001 16.0998 21.0001 16.0998H21.1001C23.4001 16.0998 25.8001 17.2998 27.0001 18.0998C27.1001 18.1998 27.2001 18.1998 27.2001 18.2998C28.4001 18.7998 28.4001 20.0998 28.4001 20.1998V23.3998C28.4001 24.0998 27.9001 24.5998 27.2001 24.5998L14.9001 24.7998ZM13.6001 23.7998C13.7001 23.8998 13.7001 23.8998 13.8001 23.9998C14.0001 24.1998 14.4001 24.4998 15.0001 24.4998L27.4001 24.2998C27.9001 24.2998 28.4001 23.7998 28.4001 23.2998V20.0998C28.4001 19.9998 28.4001 19.0998 27.7001 18.5998C27.8001 18.7998 27.8001 18.9998 27.8001 19.0998V22.2998C27.8001 22.9998 27.3001 23.4998 26.6001 23.4998L14.0001 23.6998C13.8001 23.8998 13.7001 23.8998 13.6001 23.7998ZM13.4001 23.3998C13.4001 23.4998 13.5001 23.4998 13.5001 23.5998C13.6001 23.6998 13.7001 23.6998 13.9001 23.6998L26.5001 23.4998C27.0001 23.4998 27.5001 22.9998 27.5001 22.4998V19.2998C27.5001 18.9998 27.4001 18.6998 27.1001 18.4998C27.0001 18.3998 27.0001 18.3998 26.9001 18.2998C25.7001 17.5998 23.4001 16.3998 21.1001 16.3998H21.0001C17.4001 16.3998 15.6001 17.5998 14.2001 18.8998C13.8001 19.1998 13.6001 19.6998 13.6001 20.0998L13.5001 23.1998C13.3001 23.1998 13.3001 23.2998 13.4001 23.3998ZM21.5001 15.9998C20.5001 15.9998 19.5001 15.5998 18.8001 14.8998C18.7001 14.7998 18.6001 14.6998 18.5001 14.5998C18.4001 14.3998 18.3001 14.2998 18.2001 14.0998C18.1001 13.9998 18.1001 13.8998 18.0001 13.7998C16.8001 12.0998 17.4001 9.59979 19.3001 8.19979C20.9001 7.09979 23.0001 6.99979 24.3001 8.09979C24.6001 8.29979 24.8001 8.49979 25.0001 8.79979C25.1001 8.99979 25.2001 9.09979 25.3001 9.29979C25.4001 9.39979 25.4001 9.49979 25.5001 9.59979C26.0001 10.2998 26.2001 11.2998 26.1001 12.1998C25.9001 13.2998 25.2001 14.3998 24.2001 15.0998C23.3001 15.7998 22.4001 16.0998 21.5001 15.9998ZM18.8001 14.5998L18.9001 14.6998C20.1001 15.9998 22.3001 16.0998 24.0001 14.8998C25.0001 14.1998 25.6001 13.1998 25.8001 12.0998C25.9001 11.2998 25.8001 10.5998 25.5001 9.99979C25.8001 11.4998 25.1001 13.1998 23.6001 14.2998C22.1001 15.4998 20.2001 15.4998 18.8001 14.5998ZM18.4001 13.9998C19.6001 15.2998 21.8001 15.3998 23.5001 14.1998C25.1001 12.9998 25.8001 10.9998 25.0001 9.49979C24.9001 9.29979 24.8001 9.19979 24.7001 8.99979C24.5001 8.79979 24.3001 8.59979 24.1001 8.39979C22.8001 7.39979 20.9001 7.49979 19.3001 8.59979C17.5001 9.89979 16.9001 12.2998 18.1001 13.7998C18.2001 13.7998 18.3001 13.8998 18.4001 13.9998C18.4001 13.8998 18.4001 13.8998 18.4001 13.9998Z" fill="#231F20"/>
<path d="M19.9 33.1992C15.2 33.1992 10.8 31.2992 8.09998 27.5992C8.09998 27.5992 8.09998 27.4992 8.09998 27.3992C8.19998 27.3992 8.19998 27.3992 8.29998 27.3992C13.1 33.9992 23.2 34.7992 31 29.2992C34.8 26.5992 37.4 22.7992 38.4 18.5992C39.4 14.3992 38.7 10.3992 36.4 7.19922C35.3 5.69922 34 4.49922 32.4 3.59922C32.3 3.59922 32.3 3.49922 32.4 3.39922C32.4 3.29922 32.5 3.29922 32.6 3.39922C34.2 4.29922 35.6 5.59922 36.7 7.09922C39 10.3992 39.8 14.4992 38.7 18.6992C37.6 22.8992 35 26.7992 31.2 29.4992C27.6 31.8992 23.6 33.1992 19.9 33.1992Z" fill="#231F20"/>
<path d="M18.5 30.4988C18.1 30.4988 17.7 30.4988 17.2 30.4988C13.2 30.1988 9.8 28.3988 7.6 25.3988C6.5 23.7988 5.8 22.0988 5.5 20.1988C5.5 20.0988 5.5 20.0988 5.6 20.0988C5.7 20.0988 5.7 20.0988 5.7 20.1988C6 22.0988 6.7 23.7988 7.8 25.2988C9.9 28.1988 13.3 29.9988 17.2 30.2988C21.2 30.5988 25.2 29.3988 28.7 26.8988C35.9 21.6988 38.2 12.5988 33.8 6.49883C31.8 3.69883 28.7 1.89883 25 1.49883C24.9 1.49883 24.9 1.39883 24.9 1.39883L25 1.29883C28.8 1.69883 31.9 3.49883 34 6.39883C38.4 12.5988 36.1 21.7988 28.9 27.0988C25.8 29.2988 22.1 30.4988 18.5 30.4988Z" fill="#231F20"/>
<path d="M12.1 18.3L9.3 20.3L9.2 20.4V20.3L8.5 19.3L8.6 19.2L15.1 14.5L15.7 15.7V15.8L12.1 18.3Z" fill="#D3D7DB"/>
<path d="M8.20007 17.0988C8.30007 17.0988 8.30007 17.0988 8.40007 17.1988L8.50007 19.0988C8.50007 19.1988 8.60007 19.1988 8.70007 19.1988L15.2001 14.4988C15.3001 14.4988 15.3001 14.3988 15.2001 14.2988L8.50007 11.2988C8.40007 11.2988 8.30007 11.2988 8.30007 11.3988V12.9988C8.30007 13.0988 8.20007 13.1988 8.10007 13.1988L1.00007 13.9988C0.900073 13.9988 0.700073 14.0988 0.700073 14.2988V17.7988C0.700073 17.8988 0.700073 17.9988 0.800073 17.9988L1.60007 18.9988C1.70007 19.0988 1.80007 19.0988 1.90007 19.0988L8.50007 18.2988" fill="#E1E7EB"/>
<path d="M7.8 18.5996L1.5 19.2996L0.5 18.0996L8.1 17.0996C8.1 17.0996 8.2 17.0996 8.2 17.2996C8.2 17.4996 8.3 18.3996 8.3 18.3996L7.8 18.5996Z" fill="#D3D7DB"/>
<path d="M1.70002 19.4003C1.60002 19.4003 1.40002 19.3003 1.30002 19.2003L0.500024 18.2003C0.400024 18.1003 0.400024 18.0003 0.400024 17.9003V14.4003C0.400024 14.2003 0.600024 14.0003 0.800024 14.0003L7.90002 13.2003C8.00002 13.2003 8.00002 13.2003 8.00002 13.1003V11.5003C8.00002 11.4003 8.10002 11.3003 8.10002 11.3003C8.10002 11.3003 8.30002 11.2003 8.30002 11.3003L15 14.3003C15.1 14.3003 15.1 14.4003 15.1 14.5003C15.1 14.6003 15.1 14.7003 15 14.7003L8.50002 19.4003C8.40002 19.4003 8.40002 19.5003 8.30002 19.4003C8.20002 19.4003 8.20002 19.3003 8.20002 19.2003V18.7003L1.70002 19.4003ZM0.800024 18.1003L1.50002 19.0003C1.50002 19.1003 1.60002 19.1003 1.70002 19.1003L8.20002 18.3003L8.10002 17.2003C8.20002 17.2003 0.800024 18.1003 0.800024 18.1003ZM8.50002 18.5003V19.1003L15 14.4003L8.30002 11.4003V13.0003C8.30002 13.2003 8.20002 13.3003 8.00002 13.3003L0.900024 14.1003C0.800024 14.1003 0.700024 14.2003 0.700024 14.3003V17.8003L8.10002 17.0003C8.20002 17.0003 8.20002 17.0003 8.30002 17.1003C8.40002 17.1003 8.40002 17.2003 8.40002 17.3003L8.50002 18.5003Z" fill="black"/>
<path d="M9.20005 20.5004C9.10005 20.5004 9.10005 20.5004 9.00005 20.4004L8.30005 19.3004C8.30005 19.3004 8.30005 19.2004 8.30005 19.1004C8.30005 19.0004 8.40005 19.1004 8.50005 19.1004L9.20005 20.2004L15.5 15.7004L15 14.5004C15 14.4004 15 14.4004 15.1 14.4004C15.2 14.4004 15.2 14.4004 15.2 14.4004L15.8 15.6004C15.9 15.7004 15.8 15.8004 15.7 15.9004L9.30005 20.5004C9.40005 20.4004 9.30005 20.5004 9.20005 20.5004Z" fill="black"/>
</svg>
