<svg width="20" height="20" viewBox="0 0 20 20" fill="none" xmlns="http://www.w3.org/2000/svg">
<g id="Icon">
<path id="Vector" d="M8.33333 10.833H3.33333C2.8731 10.833 2.5 11.2061 2.5 11.6663V16.6663C2.5 17.1266 2.8731 17.4997 3.33333 17.4997H8.33333C8.79357 17.4997 9.16667 17.1266 9.16667 16.6663V11.6663C9.16667 11.2061 8.79357 10.833 8.33333 10.833Z" fill="#BABEC2"/>
<path id="Vector_2" d="M8.33333 2.5H3.33333C2.8731 2.5 2.5 2.8731 2.5 3.33333V8.33333C2.5 8.79357 2.8731 9.16667 3.33333 9.16667H8.33333C8.79357 9.16667 9.16667 8.79357 9.16667 8.33333V3.33333C9.16667 2.8731 8.79357 2.5 8.33333 2.5Z" fill="#BABEC2"/>
<path id="Vector_3" d="M16.6666 2.5H11.6666C11.2064 2.5 10.8333 2.8731 10.8333 3.33333V8.33333C10.8333 8.79357 11.2064 9.16667 11.6666 9.16667H16.6666C17.1269 9.16667 17.5 8.79357 17.5 8.33333V3.33333C17.5 2.8731 17.1269 2.5 16.6666 2.5Z" fill="#BABEC2"/>
<path id="Vector_4" d="M16.6666 13.333H15V11.6663C15 11.4453 14.9122 11.2334 14.7559 11.0771C14.5996 10.9208 14.3877 10.833 14.1666 10.833C13.9456 10.833 13.7337 10.9208 13.5774 11.0771C13.4211 11.2334 13.3333 11.4453 13.3333 11.6663V13.333H11.6666C11.4456 13.333 11.2337 13.4208 11.0774 13.5771C10.9211 13.7334 10.8333 13.9453 10.8333 14.1663C10.8333 14.3874 10.9211 14.5993 11.0774 14.7556C11.2337 14.9119 11.4456 14.9997 11.6666 14.9997H13.3333V16.6663C13.3333 16.8874 13.4211 17.0993 13.5774 17.2556C13.7337 17.4119 13.9456 17.4997 14.1666 17.4997C14.3877 17.4997 14.5996 17.4119 14.7559 17.2556C14.9122 17.0993 15 16.8874 15 16.6663V14.9997H16.6666C16.8877 14.9997 17.0996 14.9119 17.2559 14.7556C17.4122 14.5993 17.5 14.3874 17.5 14.1663C17.5 13.9453 17.4122 13.7334 17.2559 13.5771C17.0996 13.4208 16.8877 13.333 16.6666 13.333Z" fill="#9FA3A6"/>
</g>
</svg>
