<svg width="32" height="48" viewBox="0 0 32 48" fill="none" xmlns="http://www.w3.org/2000/svg">
<g id="outline" clip-path="url(#clip0_543_28298)">
<g id="Group 43391">
<path id="Vector" d="M0.82359 19.6237C0.82359 19.6237 0.674773 21.4358 0.886136 22.1662C1.0975 22.8966 7.64112 45.1905 7.64112 45.1905L8.04443 45.5782L9.04086 47.4525C9.04086 47.4525 9.20261 47.9366 11.6872 47.8766C14.1718 47.8166 20.9225 46.2165 23.4329 45.3126C25.9434 44.4087 28.2274 43.584 29.5193 42.7894C30.8112 41.9947 31.8292 41.1743 31.7861 40.6731L31.6222 38.7538L31.7516 38.2119L26.1505 19.1331L24.7788 14.6735L23.6659 13.0135C23.6659 13.0135 23.2561 12.5508 22.7385 12.4887C22.2208 12.4266 18.1791 12.4094 12.2825 14.0373C6.38588 15.6653 1.46415 17.8137 0.82359 19.6237Z" fill="white"/>
<path id="Vector_2" d="M8.04049 45.5804L9.03691 47.4547C9.03691 47.4547 9.98589 48.153 12.2225 47.8445C14.459 47.5361 20.7762 46.4908 24.7748 44.8436C28.7735 43.1964 31.3508 42.2132 31.7778 40.6731L31.6139 38.7539C31.6139 38.7539 30.8202 39.5893 29.6017 40.2983C28.3831 41.0073 25.4456 42.3417 19.7345 44.0939C14.0233 45.8461 9.54806 45.9703 9.54806 45.9703L8.03833 45.5804H8.04049Z" fill="#E1E7EB"/>
<path id="Vector_3" d="M0.77124 4.6073V2.64309C0.77124 2.64309 0.77124 2.08403 2.21627 1.64921C3.6613 1.21438 6.3702 0.603912 10.921 0.244056C15.4717 -0.115799 23.9521 0.244057 24.5841 1.91696V3.94543C24.5841 3.94543 23.9759 3.01794 22.4575 2.81874C20.9391 2.61953 16.8693 1.86769 11.6392 2.22326C6.40902 2.57883 2.51606 2.868 0.77124 4.6073Z" fill="#45ABFF"/>
<path id="Vector_4" d="M1.34931 4.48877C1.34931 4.48877 5.28971 6.12739 11.7578 5.66687C18.226 5.20634 22.0413 5.16778 24.1916 3.53772L23.9565 3.27854C23.9565 3.27854 18.9959 1.55637 13.1964 2.20111L7.77646 2.52027C7.77646 2.52027 3.85762 2.79659 1.08618 4.27457L1.35146 4.48663L1.34931 4.48877Z" fill="#008AF7"/>
<path id="Vector_5" d="M1.08686 4.28019C1.08686 4.28019 2.50601 5.17769 4.62826 5.34691C6.75052 5.51613 6.87777 5.56111 6.87777 5.56111C6.87777 5.56111 9.23727 5.73889 10.9152 5.67678C12.5932 5.61466 16.5487 5.49042 19.2748 5.08558C22.001 4.68075 23.7286 3.90534 23.7286 3.90534L24.4079 3.53906C24.4079 3.53906 24.7336 4.1581 24.3109 4.44084C23.8882 4.72359 20.6811 6.34294 12.192 6.56142C12.192 6.56142 6.48524 6.65353 3.66635 6.08375C0.847456 5.51398 0.810791 4.77285 0.810791 4.77285C0.810791 4.77285 0.862553 4.39372 1.08686 4.27805V4.28019Z" fill="#45ABFF"/>
<path id="Vector_6" d="M4.1979 16.9445C4.1979 16.9445 0.335135 18.6196 0.822563 19.6242C1.30999 20.6288 5.76802 20.1404 8.27202 19.5064C10.776 18.8723 14.7617 18.0348 18.191 16.5933C21.6202 15.1517 23.7209 13.8558 23.6605 13.0118C23.6001 12.1679 20.1989 12.4678 20.1989 12.4678L16.2607 13.0118L15.4476 13.2153L12.2771 14.0357C12.2771 14.0357 6.51642 15.6979 4.1979 16.9445Z" fill="#E1E7EB"/>
<path id="Vector_7" d="M12.5922 17.5744C17.9359 15.9892 22.1194 14.2108 21.9363 13.6021C21.7533 12.9934 17.2729 13.7849 11.9293 15.3701C6.58557 16.9552 2.40206 18.7337 2.58512 19.3424C2.76818 19.9511 7.2485 19.1595 12.5922 17.5744Z" fill="white"/>
<g id="Group">
<path id="Vector_8" d="M2.92145 20.3392C1.81934 20.3392 0.872524 20.1785 0.717237 19.6516C0.311765 18.2743 5.93013 15.7532 11.5938 14.1145C11.9022 14.0246 12.2085 13.9389 12.5126 13.8553C12.5687 13.8403 12.629 13.8725 12.6441 13.9303C12.6592 13.9881 12.6269 14.046 12.5687 14.061C12.2667 14.1445 11.9604 14.2302 11.6542 14.318C4.88626 16.2801 0.64175 18.6299 0.926443 19.5938C1.07095 20.0843 2.44049 20.2492 4.59294 20.0329C6.8597 19.8058 9.78427 19.1953 12.8296 18.3128C19.5975 16.3529 23.8421 14.0053 23.5595 13.0414C23.3654 12.3774 20.7816 12.1846 15.5666 13.3241C15.5083 13.337 15.4501 13.3006 15.4371 13.2427C15.4242 13.1849 15.4609 13.1271 15.5191 13.1142C19.2827 12.2895 23.4258 11.8226 23.7644 12.9793C24.1699 14.3566 18.5515 16.8777 12.8879 18.5163C9.83172 19.401 6.89205 20.0136 4.61235 20.2428C4.06238 20.2985 3.47358 20.3392 2.92145 20.3392Z" fill="#030303"/>
<g id="Group_2" opacity="0.3">
<path id="Vector_9" d="M14.0374 41.7894C13.9943 41.7894 13.9533 41.7637 13.936 41.7208C13.9145 41.6651 13.9403 41.603 13.9964 41.5816C15.5903 40.9583 17.3351 40.3714 19.177 39.838C22.3323 38.9255 25.3647 38.2915 27.7178 38.0559C29.4194 37.8845 31.4964 37.8524 31.7336 38.6642C31.7509 38.722 31.7185 38.7799 31.6603 38.797C31.6021 38.8141 31.5439 38.7799 31.5266 38.7242C31.3778 38.2165 29.9608 38.0452 27.7393 38.2679C25.3992 38.5036 22.3798 39.1333 19.2374 40.0437C17.402 40.5749 15.6636 41.1596 14.0762 41.7808C14.0633 41.7851 14.0503 41.7872 14.0374 41.7872V41.7894Z" fill="#030303"/>
</g>
<g id="Group_3" opacity="0.3">
<path id="Vector_10" d="M8.05974 45.6292C8.01229 45.6292 7.96915 45.5992 7.95621 45.5521C7.71681 44.7403 9.48751 43.6586 11.0145 42.896C11.0684 42.8703 11.1331 42.8896 11.159 42.9432C11.1849 42.9967 11.1633 43.061 11.1116 43.0867C9.11655 44.0849 8.01445 44.9845 8.16326 45.4921C8.18052 45.55 8.14816 45.6078 8.08993 45.6249C8.07915 45.6271 8.07052 45.6292 8.05974 45.6292Z" fill="#030303"/>
</g>
<path id="Vector_11" d="M2.9505 21.1596C2.57522 21.1596 2.23876 21.1403 1.9476 21.1039C1.88937 21.0953 1.84623 21.0417 1.85486 20.9839C1.86349 20.9261 1.91741 20.8832 1.97564 20.8918C4.02456 21.1553 8.37476 20.4484 13.0571 19.0925C16.165 18.1929 19.0205 17.124 21.0975 16.0852C23.0709 15.0977 24.1601 14.2088 24.0134 13.7076C23.9962 13.6497 24.0285 13.5919 24.0868 13.5747C24.145 13.5576 24.2032 13.5919 24.2205 13.6476C24.4556 14.4508 22.7064 15.5218 21.1946 16.2758C19.1047 17.3211 16.2362 18.3942 13.1175 19.2982C9.06708 20.4698 5.25823 21.1596 2.9505 21.1596Z" fill="#030303"/>
<path id="Vector_12" d="M26.8259 21.5518C26.7784 21.5518 26.7353 21.5218 26.7223 21.4747L24.9214 15.3379C24.8028 14.9373 24.6216 14.5603 24.3801 14.2176L23.5735 13.0716C23.5389 13.0224 23.5519 12.956 23.5993 12.9217C23.6489 12.8874 23.7158 12.9003 23.7503 12.9474L24.5569 14.0934C24.8114 14.4554 25.0034 14.8538 25.1285 15.2779L26.9294 21.4147C26.9466 21.4726 26.9143 21.5304 26.856 21.5475C26.8453 21.5497 26.8366 21.5518 26.8259 21.5518Z" fill="#030303"/>
<path id="Vector_13" d="M9.85364 45.9376C8.6933 45.9376 7.69687 45.7684 7.53512 45.2158L0.812485 22.3157C0.687393 21.8915 0.635631 21.4546 0.652885 21.0133L0.713274 19.6146C0.715431 19.5546 0.767193 19.5097 0.825426 19.5118C0.885815 19.5139 0.931107 19.5632 0.928951 19.6232L0.868561 21.0219C0.851307 21.4396 0.900913 21.8551 1.01953 22.2557L7.74217 45.1558C7.8953 45.6763 9.34249 45.8519 11.6179 45.6227C14.0119 45.3828 17.0982 44.7381 20.3118 43.8085C23.5254 42.8788 26.478 41.7736 28.6261 40.6983C30.6664 39.6765 31.7944 38.7555 31.6413 38.235L27.7224 24.8818C27.7052 24.8239 27.7375 24.7661 27.7958 24.749C27.854 24.7318 27.9122 24.7661 27.9295 24.8218L31.8483 38.175C32.092 39.004 30.2825 40.1092 28.7232 40.8889C26.5642 41.9685 23.5987 43.078 20.3722 44.012C17.1457 44.9459 14.0442 45.5927 11.6394 45.8348C11.0593 45.8926 10.436 45.9355 9.85364 45.9355V45.9376Z" fill="#030303"/>
<path id="Vector_14" d="M11.0423 47.9991C9.94023 47.9991 8.99341 47.8385 8.83813 47.3115L7.94523 45.6258C7.91719 45.5744 7.93876 45.508 7.99052 45.4823C8.04228 45.4544 8.10914 45.4758 8.13502 45.5272L9.03439 47.2323C9.18536 47.7421 10.5571 47.907 12.7074 47.6907C14.9741 47.4636 17.8987 46.8531 20.944 45.9706C27.712 44.0107 31.9565 41.6631 31.6739 40.6992L31.5057 38.7585C31.5014 38.6986 31.5445 38.6472 31.6049 38.6429C31.6653 38.6386 31.7171 38.6814 31.7214 38.7414L31.8853 40.6606C32.2865 42.0165 26.6681 44.5376 21.0044 46.1763C17.9483 47.0609 15.0086 47.6735 12.7289 47.9027C12.179 47.9584 11.5902 47.9991 11.038 47.9991H11.0423Z" fill="#030303"/>
<path id="Vector_15" d="M3.51204 19.6113C2.66444 19.6113 2.20505 19.4656 2.12093 19.1743C1.9829 18.7073 2.88443 18.0262 4.79963 17.148C6.61131 16.319 9.08081 15.4344 11.7552 14.6611C16.651 13.2431 22.0192 12.2942 22.3233 13.3245C22.6253 14.3569 17.5849 16.4197 12.6891 17.8377C10.5841 18.4482 8.54162 18.9344 6.7817 19.2471C6.72346 19.2578 6.66739 19.2193 6.6566 19.1614C6.64582 19.1036 6.68464 19.0479 6.74287 19.0372C8.49417 18.7266 10.5302 18.2404 12.6287 17.6342C18.4584 15.9463 22.3082 14.0399 22.1163 13.3866C21.9243 12.7333 17.6475 13.181 11.8156 14.8689C9.14982 15.64 6.69111 16.5204 4.88806 17.345C2.88443 18.2618 2.25249 18.8616 2.32582 19.1165C2.38621 19.32 2.99873 19.487 4.54082 19.3457C4.59905 19.3392 4.65297 19.3842 4.65728 19.442C4.6616 19.502 4.61846 19.5534 4.56023 19.5577C4.16123 19.5941 3.81183 19.6113 3.51204 19.6113Z" fill="#030303"/>
<path id="Vector_16" d="M2.49415 19.4847C2.47258 19.4847 2.44886 19.4782 2.42945 19.4632C2.382 19.429 2.37121 19.3604 2.40572 19.3133C3.12608 18.3365 7.12903 16.6208 11.9235 15.2328C16.6727 13.8576 20.8547 13.1743 22.0905 13.5706C22.1466 13.5877 22.1789 13.6499 22.1595 13.7055C22.1423 13.7612 22.0819 13.7934 22.0236 13.7741C20.8417 13.395 16.6188 14.0954 11.9818 15.4384C7.22824 16.8136 3.2749 18.4972 2.57826 19.4397C2.5567 19.4675 2.52434 19.4825 2.49199 19.4825L2.49415 19.4847Z" fill="#030303"/>
</g>
<g id="Group_4">
<path id="Vector_17" d="M10.6389 6.68744C5.48642 6.68744 0.745857 6.03627 0.702721 4.77464C0.650959 3.34164 6.72009 2.27278 12.6167 2.06715C15.7979 1.95577 18.798 2.08 21.0647 2.4163C22.7039 2.65834 24.6644 3.12101 24.6924 3.9414C24.7204 4.76178 22.7988 5.3594 21.1812 5.71497C18.9446 6.20763 15.9597 6.53964 12.7784 6.64888C12.0645 6.67459 11.3485 6.6853 10.6389 6.6853V6.68744ZM14.8554 2.2428C14.1264 2.2428 13.3802 2.25565 12.6253 2.28135C5.57701 2.52554 0.881733 3.76361 0.918398 4.76821C0.952906 5.77066 5.72582 6.68101 12.772 6.43682C15.9403 6.32758 18.9101 5.99771 21.1359 5.5072C23.2474 5.04238 24.4961 4.45976 24.4789 3.94997C24.4616 3.44017 23.174 2.94537 21.0345 2.62835C19.3199 2.37346 17.1782 2.2428 14.8576 2.2428H14.8554Z" fill="#030303"/>
<path id="Vector_18" d="M6.87527 5.66819C6.87527 5.66819 6.87095 5.66819 6.86664 5.66819C3.89031 5.46042 1.75727 4.99775 1.0175 4.40227C0.972206 4.36586 0.963579 4.29732 1.0024 4.25233C1.03907 4.20735 1.10808 4.19878 1.15337 4.23734C1.86079 4.80711 3.94854 5.2505 6.88389 5.45614C6.94428 5.46042 6.98742 5.51183 6.98311 5.56966C6.97879 5.62535 6.93134 5.66819 6.87527 5.66819Z" fill="#030303"/>
<path id="Vector_19" d="M10.5484 5.78817C10.4945 5.78817 10.4406 5.78817 10.3888 5.78817C10.3285 5.78817 10.281 5.7389 10.281 5.68107C10.281 5.62109 10.3285 5.57397 10.3888 5.57397C10.4363 5.57611 10.4945 5.57397 10.5484 5.57397C11.2774 5.57397 12.0215 5.56112 12.7699 5.53541C18.2524 5.34477 23.0749 4.47298 24.2374 3.45982C24.2827 3.42126 24.3496 3.42555 24.3906 3.47053C24.4294 3.51551 24.4251 3.58191 24.3798 3.62261C23.1655 4.68076 18.3947 5.55683 12.7785 5.75175C12.0301 5.77746 11.2817 5.79031 10.5506 5.79031L10.5484 5.78817Z" fill="#030303"/>
<path id="Vector_20" d="M24.5851 4.05649C24.5247 4.05649 24.4773 4.00937 24.4773 3.94939V1.92092C24.4579 1.39827 22.9438 0.672135 18.736 0.35512C18.6756 0.350836 18.6325 0.299428 18.6368 0.239452C18.6411 0.179476 18.6928 0.136636 18.7532 0.14092C20.5261 0.273724 24.652 0.714975 24.693 1.91664V3.94725C24.693 4.00722 24.6455 4.05435 24.5851 4.05435V4.05649Z" fill="#030303"/>
<path id="Vector_21" d="M0.81056 4.87826C0.75017 4.87826 0.702721 4.83113 0.702721 4.77116V2.74269C0.650959 1.31397 6.72009 0.245119 12.6167 0.0394869C13.6541 0.00307297 14.685 -0.00763701 15.6793 0.00521496C15.7397 0.00521496 15.7871 0.0544809 15.785 0.114457C15.7828 0.174433 15.7267 0.219415 15.675 0.219415C14.6829 0.206563 13.6562 0.217273 12.6232 0.253687C5.57701 0.497874 0.881733 1.73809 0.918398 2.74054V4.77116C0.918398 4.83113 0.870949 4.87826 0.81056 4.87826Z" fill="#030303"/>
</g>
</g>
</g>
<defs>
<clipPath id="clip0_543_28298">
<rect width="31.814" height="48" fill="white" transform="translate(0.0930176)"/>
</clipPath>
</defs>
</svg>
