<svg width="37" height="37" viewBox="0 0 37 37" fill="none" xmlns="http://www.w3.org/2000/svg">
<path d="M23.789 12.4746L3.38904 32.2746L4.38904 33.3746C4.38904 33.3746 6.88904 35.6746 10.089 36.1746C13.289 36.6746 16.689 36.1746 19.189 34.8746C21.689 33.5746 23.989 31.9746 25.389 29.9746C26.789 27.9746 27.589 26.1746 28.189 23.8746C28.789 21.5746 28.189 18.7746 27.989 18.2746C27.789 17.7746 26.489 14.1746 23.789 12.4746Z" fill="#298D7B"/>
<path d="M22.8891 11.8738C22.8891 11.8738 26.0891 14.4738 26.7891 17.4738C27.4891 20.4738 27.3891 23.5738 25.8891 26.5738C24.3891 29.5738 21.6891 32.5738 17.4891 34.3738C13.2891 36.1738 8.28909 35.3738 5.68909 33.9738C3.08909 32.5738 0.589091 29.1738 0.289091 26.4738C-0.0109085 23.7738 -0.210908 20.9738 1.98909 17.3738C4.18909 13.8738 7.38909 11.2738 9.98909 10.5738C12.5891 9.87381 17.8891 8.27381 22.8891 11.8738Z" fill="#A4DCCF"/>
<path d="M23.389 13.3736C23.389 13.3736 28.389 18.2736 24.789 25.9736C24.789 25.9736 20.989 33.7736 11.689 34.2736C11.689 34.2736 3.18905 34.4736 1.18905 26.9736C1.18905 26.9736 -0.810954 20.5736 5.08905 14.5736C5.08905 14.5736 9.08905 10.6736 14.289 10.2736C14.389 10.2736 19.889 9.77363 23.389 13.3736Z" fill="#49B9A0"/>
<path d="M16.989 16.875L11.389 20.775L11.889 21.475C11.889 21.475 12.789 22.475 14.589 22.175C16.389 21.875 17.189 20.475 17.489 19.875C17.789 19.275 18.089 17.975 16.989 16.875Z" fill="#A4DCCF"/>
<path d="M16.4891 15.9747C16.4891 15.9747 17.8891 17.5747 17.0891 19.2747C16.2891 20.9747 14.3891 21.6747 12.8891 21.4747C11.3891 21.2747 10.6891 19.3747 10.8891 18.2747C10.9891 17.5747 11.4891 15.8747 13.7891 15.2747C15.2891 14.9747 16.4891 16.0747 16.4891 15.9747Z" fill="#D2EEE7"/>
<path d="M18.4891 24.0735C18.4891 24.0735 18.9891 24.4735 18.9891 24.7735C18.9891 25.0735 19.0891 27.7735 19.0891 27.7735C19.0891 27.7735 18.8891 28.4735 18.1891 28.5735C17.4891 28.6735 7.58906 28.7735 7.58906 28.7735C7.58906 28.7735 7.28906 28.4735 7.28906 28.2735C7.28906 28.0735 7.38906 25.3735 7.38906 25.3735L7.78906 24.7735C7.78906 24.7735 9.88906 22.4735 13.4891 22.5735C16.4891 22.6735 18.4891 24.0735 18.4891 24.0735Z" fill="#D2EEE7"/>
<path d="M18.889 24.3734C18.889 24.3734 19.589 24.7734 19.689 25.5734C19.789 26.3734 19.689 28.5734 19.689 28.5734C19.689 28.5734 19.589 29.2734 18.589 29.2734C17.589 29.2734 8.38904 29.4734 8.38904 29.4734C8.38904 29.4734 7.98904 29.3734 7.78904 29.1734C7.58904 28.9734 7.38904 28.5734 7.38904 28.5734L7.58904 28.7734L18.289 28.5734C18.289 28.5734 19.089 28.4734 19.089 27.4734C19.089 26.4734 19.089 24.8734 19.089 24.8734L18.689 24.2734L18.889 24.3734Z" fill="#A4DCCF"/>
<g opacity="0.42">
<path d="M19.0891 27.875L19.6891 28.575C19.6891 28.575 19.5891 28.975 19.4891 29.175C19.3891 29.375 18.7891 29.475 18.7891 29.475L18.0891 28.675C18.0891 28.675 18.5891 28.575 18.6891 28.375C18.7891 28.175 19.0891 27.875 19.0891 27.875Z" fill="#D2EEE7"/>
</g>
<path d="M11.8891 35.5743C8.48909 35.5743 5.18909 34.3743 2.98909 31.8743C2.68909 31.5743 2.38909 31.1743 2.08909 30.8743C0.189092 28.1743 -0.510908 24.7743 0.389092 21.2743C1.18909 17.7743 3.38909 14.6743 6.48909 12.4743C11.7891 8.67426 18.5891 8.47426 23.1891 11.9743C23.9891 12.5743 24.7891 13.3743 25.3891 14.2743C29.3891 19.8743 27.3891 28.0743 21.0891 32.6743C18.0891 34.5743 14.8891 35.5743 11.8891 35.5743ZM2.28909 30.6743C2.58909 31.0743 2.78909 31.3743 3.08909 31.6743C7.28909 36.2743 14.8891 36.5743 20.7891 32.3743C27.0891 27.8743 28.9891 19.7743 25.0891 14.2743C24.4891 13.4743 23.7891 12.6743 22.9891 12.0743C18.5891 8.67426 11.7891 8.87426 6.58909 12.5743C3.48909 14.7743 1.38909 17.8743 0.589092 21.2743C-0.210908 24.6743 0.389092 28.0743 2.28909 30.6743ZM11.5891 34.3743C7.98909 34.3743 4.68909 32.8743 2.68909 30.0743C1.78909 28.7743 1.18909 27.3743 0.889092 25.7743L0.789092 25.6743C0.0890915 21.0743 2.48909 16.0743 6.78909 12.9743C9.78909 10.7743 13.4891 9.77426 16.8891 10.1743C19.9891 10.5743 22.5891 12.0743 24.2891 14.3743C27.9891 19.4743 26.0891 27.1743 20.0891 31.4743C17.4891 33.4743 14.3891 34.3743 11.5891 34.3743ZM1.08909 25.7743C1.28909 27.2743 1.88909 28.6743 2.78909 29.9743C6.38909 34.9743 14.0891 35.5743 19.9891 31.3743C25.8891 27.1743 27.7891 19.5743 24.1891 14.6743C22.5891 12.3743 19.9891 10.9743 16.8891 10.5743C13.4891 10.1743 9.88909 11.1743 6.98909 13.2743C2.68909 16.2743 0.389092 21.1743 1.08909 25.7743ZM8.58909 29.6743C7.98909 29.6743 7.68909 29.3743 7.48909 29.1743C7.28909 28.9743 7.08909 28.6743 7.08909 28.4743C7.08909 28.3743 7.08909 28.3743 7.08909 28.2743L7.18909 25.6743C7.18909 25.1743 7.38909 24.7743 7.78909 24.4743C8.98909 23.3743 10.4891 22.4743 13.5891 22.3743H13.6891C12.9891 22.2743 12.2891 21.9743 11.7891 21.4743C11.6891 21.3743 11.6891 21.2743 11.5891 21.1743C11.4891 21.0743 11.3891 20.8743 11.3891 20.7743C11.2891 20.6743 11.2891 20.6743 11.1891 20.5743C10.6891 19.8743 10.5891 19.0743 10.7891 18.1743C10.9891 17.2743 11.5891 16.4743 12.2891 15.9743C13.5891 15.0743 15.2891 14.9743 16.4891 15.8743C16.6891 16.0743 16.8891 16.2743 16.9891 16.4743C17.0891 16.5743 17.1891 16.7743 17.1891 16.8743C17.2891 16.9743 17.2891 16.9743 17.3891 17.0743C17.7891 17.6743 17.9891 18.4743 17.8891 19.2743C17.6891 20.2743 17.1891 21.0743 16.2891 21.7743C15.5891 22.2743 14.8891 22.4743 14.0891 22.5743C15.8891 22.6743 17.5891 23.5743 18.5891 24.1743C18.6891 24.1743 18.6891 24.2743 18.7891 24.3743C19.7891 24.7743 19.7891 25.8743 19.7891 25.9743V28.5743C19.7891 29.1743 19.2891 29.5743 18.7891 29.6743H8.58909ZM7.58909 28.8743C7.78909 29.0743 8.18909 29.3743 8.58909 29.3743L18.7891 29.1743C19.1891 29.1743 19.5891 28.7743 19.5891 28.3743V25.7743C19.5891 25.6743 19.5891 25.0743 19.0891 24.6743C19.0891 24.7743 19.0891 24.8743 19.1891 25.0743V27.6743C19.1891 28.2743 18.6891 28.6743 18.1891 28.7743L7.78909 28.9743C7.78909 28.9743 7.68909 28.9743 7.58909 28.8743ZM13.5891 22.6743C10.5891 22.6743 9.08909 23.6743 7.88909 24.6743C7.58909 24.8743 7.38909 25.2743 7.38909 25.6743L7.28909 28.2743C7.28909 28.3743 7.28909 28.4743 7.38909 28.5743C7.48909 28.6743 7.58909 28.6743 7.68909 28.6743L18.0891 28.4743C18.4891 28.4743 18.8891 28.0743 18.8891 27.6743V25.0743C18.8891 24.8743 18.7891 24.5743 18.5891 24.3743C18.5891 24.3743 18.4891 24.2743 18.3891 24.2743C17.4891 23.6743 15.4891 22.6743 13.5891 22.6743ZM11.9891 21.3743C12.9891 22.3743 14.7891 22.4743 16.1891 21.4743C16.9891 20.8743 17.4891 20.0743 17.6891 19.1743C17.7891 18.6743 17.6891 18.0743 17.4891 17.6743C17.6891 18.8743 17.0891 20.1743 15.8891 21.0743C14.5891 21.8743 13.0891 21.9743 11.9891 21.3743ZM11.4891 20.6743C12.4891 21.7743 14.2891 21.8743 15.6891 20.8743C16.9891 19.8743 17.5891 18.2743 16.9891 16.9743C16.8891 16.8743 16.8891 16.6743 16.7891 16.5743C16.6891 16.3743 16.4891 16.1743 16.2891 16.0743C15.2891 15.2743 13.6891 15.2743 12.3891 16.1743C11.6891 16.6743 11.1891 17.4743 10.9891 18.2743C10.7891 19.0743 10.8891 19.8743 11.3891 20.4743C11.3891 20.4743 11.3891 20.5743 11.4891 20.6743Z" fill="#231F20"/>
<path d="M12.689 36.5738C8.78904 36.5738 5.18904 34.9738 2.88904 31.8738C2.88904 31.7738 2.88904 31.7738 2.88904 31.6738C2.98904 31.6738 2.98904 31.6738 3.08904 31.6738C6.98904 37.0738 15.389 37.7738 21.689 33.2738C24.789 31.0738 26.889 27.9738 27.789 24.4738C28.689 20.9738 27.989 17.6738 26.189 15.0738C25.289 13.8738 24.189 12.8738 22.889 12.0738C22.789 12.0738 22.789 11.9738 22.889 11.8738C22.889 11.7738 22.989 11.7738 23.089 11.8738C24.389 12.6738 25.589 13.6738 26.489 14.9738C28.389 17.6738 28.989 21.0738 28.189 24.5738C27.289 28.0738 25.189 31.2738 21.989 33.4738C18.989 35.5738 15.789 36.5738 12.689 36.5738Z" fill="#231F20"/>
<path d="M11.589 34.375C7.98904 34.375 4.68904 32.875 2.68904 30.075C1.78904 28.775 1.18904 27.275 0.889038 25.775C0.889038 25.675 0.889038 25.675 0.989038 25.675C1.08904 25.675 1.08904 25.675 1.08904 25.775C1.28904 27.375 1.88904 28.775 2.78904 29.975C6.38904 34.975 14.089 35.575 19.989 31.375C25.889 27.175 27.789 19.575 24.189 14.675C22.589 12.375 19.989 10.975 16.889 10.575C16.789 10.575 16.789 10.475 16.789 10.475C16.789 10.375 16.889 10.375 16.889 10.375C19.989 10.775 22.589 12.275 24.289 14.575C27.989 19.675 26.089 27.375 20.089 31.675C17.489 33.475 14.389 34.375 11.589 34.375Z" fill="#231F20"/>
<path d="M32.6891 8.67471C33.8891 12.9747 31.6891 17.2747 27.7891 18.3747C24.3891 19.2747 20.2891 16.6747 19.1891 12.4747C18.0891 8.27471 19.9891 3.97471 23.5891 2.97471C27.3891 1.77471 31.4891 4.37471 32.6891 8.67471Z" fill="#45AEFF"/>
<path d="M29.519 17.792C33.4056 16.7192 35.6031 12.3967 34.4274 8.13749C33.2517 3.87827 29.148 1.29519 25.2614 2.36802C21.3749 3.44085 19.1773 7.76333 20.353 12.0225C21.5287 16.2818 25.6325 18.8648 29.519 17.792Z" fill="#7DC7FF"/>
<path d="M26.4891 8.57422L28.1891 15.0742L30.0891 14.4742L28.3891 8.07422L26.4891 8.57422Z" fill="#FAFDFF"/>
<path d="M26.6598 7.23218C27.3519 7.04112 27.7462 6.28201 27.5404 5.53665C27.3347 4.79128 26.6068 4.34192 25.9147 4.53298C25.2226 4.72403 24.8283 5.48314 25.034 6.22851C25.2398 6.97387 25.9677 7.42323 26.6598 7.23218Z" fill="#DAEFFF"/>
<path d="M27.0574 7.1228C27.7495 6.93175 28.1438 6.17264 27.938 5.42727C27.7323 4.68191 27.0044 4.23255 26.3123 4.4236C25.6202 4.61465 25.2259 5.37377 25.4316 6.11913C25.6374 6.86449 26.3652 7.31385 27.0574 7.1228Z" fill="#FAFDFF"/>
<path d="M26.489 8.57422L28.189 15.0742L27.689 15.2742L25.889 8.87422L25.989 8.67422L26.489 8.57422Z" fill="#DAEFFF"/>
<path d="M26.5891 18.5746C23.2891 18.5746 20.0891 16.0746 19.0891 12.4746C17.8891 8.17461 20.0891 3.77461 24.0891 2.67461L24.9891 2.47461C25.0891 2.47461 25.0891 2.47461 25.0891 2.57461C25.0891 2.67461 25.0891 2.67461 24.9891 2.77461L24.0891 2.97461C20.2891 3.97461 18.1891 8.27461 19.2891 12.4746C20.4891 16.6746 24.4891 19.2746 28.2891 18.1746L29.0891 17.9746C29.1891 17.9746 29.1891 17.9746 29.1891 18.0746C29.1891 18.1746 29.1891 18.1746 29.0891 18.1746L28.2891 18.3746C27.6891 18.4746 27.0891 18.5746 26.5891 18.5746Z" fill="black"/>
<path d="M27.7891 18.1734C24.4891 18.1734 21.2891 15.6734 20.2891 12.0734C19.0891 7.77344 21.2891 3.37344 25.1891 2.27344C27.0891 1.77344 29.0891 2.07344 30.8891 3.17344C32.6891 4.27344 33.8891 6.07344 34.4891 8.17344C35.0891 10.2734 34.8891 12.4734 33.9891 14.2734C33.0891 16.0734 31.4891 17.4734 29.5891 17.9734C28.9891 18.0734 28.3891 18.1734 27.7891 18.1734ZM27.0891 2.27344C26.4891 2.27344 25.8891 2.37344 25.3891 2.47344C21.5891 3.47344 19.4891 7.77344 20.5891 11.9734C21.6891 16.1734 25.7891 18.7734 29.5891 17.6734C31.3891 17.1734 32.8891 15.8734 33.7891 14.0734C34.6891 12.3734 34.7891 10.1734 34.2891 8.17344C33.6891 6.17344 32.4891 4.37344 30.7891 3.37344C29.5891 2.57344 28.2891 2.27344 27.0891 2.27344Z" fill="black"/>
<path d="M26.789 7.27345C26.189 7.27345 25.5891 6.77345 25.3891 6.17345C25.2891 5.77345 25.289 5.37345 25.489 5.07345C25.689 4.77345 25.989 4.47345 26.289 4.37345C26.589 4.27345 26.989 4.37345 27.289 4.47345C27.689 4.67345 27.889 5.07345 27.989 5.47345C28.089 5.87345 28.0891 6.27345 27.8891 6.57345C27.6891 6.87345 27.389 7.17345 27.089 7.27345C26.989 7.27345 26.889 7.27345 26.789 7.27345ZM26.689 4.57345C26.589 4.57345 26.4891 4.57345 26.3891 4.57345C26.0891 4.67345 25.889 4.87345 25.689 5.17345C25.489 5.47345 25.489 5.77345 25.589 6.17345C25.789 6.87345 26.389 7.27345 26.989 7.07345C27.289 6.97345 27.489 6.77345 27.689 6.47345C27.889 6.17345 27.889 5.87345 27.789 5.47345C27.689 5.17345 27.489 4.87345 27.189 4.67345C26.989 4.57345 26.889 4.57345 26.689 4.57345Z" fill="black"/>
<path d="M26.289 7.475C26.089 7.475 25.789 7.375 25.589 7.275C25.189 7.075 24.9891 6.675 24.8891 6.275C24.7891 5.875 24.789 5.475 24.989 5.175C25.189 4.875 25.489 4.575 25.789 4.475L26.289 4.375C26.389 4.375 26.3891 4.375 26.3891 4.475C26.3891 4.575 26.389 4.575 26.289 4.675L25.789 4.775C25.489 4.875 25.289 5.075 25.089 5.375C24.889 5.675 24.889 5.975 24.989 6.375C25.089 6.675 25.289 6.975 25.589 7.175C25.989 7.175 26.289 7.275 26.589 7.175L27.089 7.075C27.189 7.075 27.189 7.075 27.189 7.175C27.189 7.275 27.189 7.275 27.089 7.375H26.689C26.489 7.375 26.389 7.475 26.289 7.475Z" fill="black"/>
<path d="M28.289 15.0746C28.289 15.0746 28.189 15.0746 28.189 14.9746L26.389 8.57461C26.389 8.47461 26.389 8.47461 26.489 8.47461C26.589 8.47461 26.589 8.47461 26.589 8.57461L28.389 14.9746C28.389 15.0746 28.389 15.0746 28.289 15.0746Z" fill="black"/>
<path d="M30.1891 14.5734C30.1891 14.5734 30.0891 14.5734 30.0891 14.4734L28.1891 7.97344C28.1891 7.87344 28.1891 7.87344 28.2891 7.77344C28.3891 7.77344 28.3891 7.77344 28.3891 7.87344L30.2891 14.3734C30.2891 14.4734 30.2891 14.5734 30.1891 14.5734Z" fill="black"/>
<path d="M27.7891 15.2734C27.6891 15.2734 27.6891 15.2734 27.5891 15.2734C27.4891 15.2734 27.4891 15.1734 27.3891 15.0734L25.6891 8.87344C25.6891 8.67344 25.7891 8.47344 25.8891 8.47344L28.0891 7.77344C28.1891 7.77344 28.1891 7.77344 28.2891 7.87344C28.3891 7.97344 28.2891 7.97344 28.1891 8.07344L25.9891 8.77344L25.8891 8.87344L27.5891 15.0734C27.5891 15.0734 27.5891 15.0734 27.5891 15.1734C27.5891 15.2734 27.5891 15.1734 27.6891 15.1734L29.9891 14.3734C30.0891 14.3734 30.0891 14.3734 30.1891 14.4734C30.2891 14.5734 30.1891 14.5734 30.0891 14.6734L27.7891 15.2734Z" fill="black"/>
</svg>
