<svg width="21" height="20" viewBox="0 0 21 20" fill="none" xmlns="http://www.w3.org/2000/svg">
<g id="Icon">
<path id="Vector" d="M2.16663 4.44434C2.16662 5.46709 2.99572 6.29619 4.01847 6.29619H4.01848H16.9814C18.0042 6.29619 18.8333 7.12529 18.8333 8.14804V15.5555C18.8333 16.5782 18.0042 17.4073 16.9814 17.4073H4.01848C2.99573 17.4073 2.16663 16.5782 2.16663 15.5555V4.44434Z" fill="#D3D7DB"/>
<path id="Vector_2" d="M4.01848 6.29649H15.1296V4.25944C15.1296 3.33898 14.3834 2.59277 13.4629 2.59277H3.83329C2.91283 2.59277 2.16663 3.33898 2.16663 4.25944V4.44463C2.16663 5.46738 2.99573 6.29649 4.01848 6.29649Z" fill="#9FA3A6"/>
<path id="Vector_3" d="M18.8333 14.167H16.432C15.2147 14.1891 14.1495 13.3529 13.8818 12.1652C13.6088 10.8095 14.4866 9.48919 15.8423 9.21625C16.004 9.1837 16.1684 9.16721 16.3333 9.16699H18.8333V14.167Z" fill="#9FA3A6"/>
</g>
</svg>
