<svg width="35" height="37" viewBox="0 0 35 37" fill="none" xmlns="http://www.w3.org/2000/svg">
<path d="M6.29991 36.0009C29.4999 37.3009 34.1999 7.80093 34.1999 7.80093L33.5999 6.80093C33.4999 6.60093 33.2999 6.60093 33.1999 6.50093C31.4999 6.50093 22.3999 6.00093 18.7999 1.10093C18.5999 0.800927 18.1999 0.700927 17.8999 0.900927C16.1999 2.00093 10.8999 5.10093 4.79991 4.70093C4.59991 4.70093 4.49991 4.80093 4.39991 4.90093C3.19991 7.20093 -5.30009 24.6009 6.29991 36.0009Z" fill="#45AEFF"/>
<path d="M31.1 8.1L30.9 9.1C30.9 9.1 21.7 8.1 17.6 3.8C17.6 3.8 12.4 7.2 5.49999 6.9L4.59999 9.1L3.79999 11.2L2.79999 14.9L2.29999 17.2L1.99999 21.3C1.99999 21.3 1.99999 24.6 2.49999 26.1C2.99999 27.6 3.39999 29 3.39999 29L4.69999 31.3L5.99999 33L6.99999 34H7.99999L11.6 33.6L13.1 33.4C13.1 33.4 9.29999 34.7 6.89999 34.6L5.49999 33.2L4.49999 32L3.69999 30.8C3.69999 30.8 3.09999 29.7 2.59999 28.7C2.09999 27.7 1.59999 25.6 1.59999 25.6C1.59999 25.6 1.29999 23.2 1.19999 21.2C1.09999 19.2 1.59999 17.1 1.59999 17.1L2.29999 13.8L3.49999 10.1L4.89999 6.9L5.49999 5.8C5.49999 5.8 8.09999 5.9 10.6 5.4C13.1 4.9 14.4 4.2 14.4 4.2L16 3.6L18 2.5C18 2.5 18.6 3.9 22.4 5.8C26.2 7.7 31.1 8.1 31.1 8.1Z" fill="#008DFA"/>
<path d="M33.4999 6.70117L34.1999 7.80117L33.2999 11.6012L31.9999 16.0012L29.8999 20.9012L28.3999 23.4012L25.3999 27.7012L22.9999 30.1012L20.1999 32.4012L16.5999 34.4012L13.9999 35.3012L11.9999 35.7012L8.29993 36.0012C8.29993 36.0012 11.2999 35.5012 13.4999 34.9012C15.6999 34.3012 18.4999 32.6012 19.9999 31.6012C21.4999 30.6012 23.4999 28.5012 23.4999 28.5012L26.0999 25.2012C26.0999 25.2012 27.8999 22.7012 28.4999 21.4012C29.0999 20.1012 30.9999 15.9012 30.9999 15.9012L32.4999 11.4012L33.4999 6.70117Z" fill="#008DFA"/>
<path d="M30.9 9.10078C30.9 9.10078 29.9 12.7008 29.4 14.2008C28.9 15.7008 28 17.6008 28 17.6008L26.6 20.4008L6.9 34.0008C6.9 34.0008 2.7 30.4008 2.4 25.2008L2.2 24.7008L2 21.0008L2.2 18.1008L2.7 15.4008L6.2 15.1008H9L10.5 15.2008C10.5 15.2008 11.9 11.9008 12.4 10.8008C12.9 9.70078 14.2 7.60078 14.2 7.60078L15.9 5.40078L17.6 3.80078C17.6 3.80078 20.4 6.60078 24.8 7.80078C29.2 9.00078 30.9 9.00078 30.9 9.10078Z" fill="#7DC7FF"/>
<path d="M26.6 20.4C26.6 20.4 20.6 16.1 10.5 15.1L11.1 13.6L12.8 10L14.3 7.4L16.2 5L17.3 4C17.3 4 11.2 7.5 5.49995 6.9C5.49995 6.9 2.99995 13.3 2.69995 15.4H2.89995C2.89995 15.4 8.29995 14.7 10.7 15.1L10.4 15.5L9.19995 19.5L7.99995 24.8L7.29995 29.8L6.89995 34C6.89995 34 11.5 33.8 13.2 33.3C14.9 32.8 17.7 30.9 17.7 30.9C17.7 30.9 19.9 29.2 21.2999 27.9C22.6999 26.6 23.7999 24.9 23.7999 24.9L25.6 22.4L26.6 20.4Z" fill="#0075CF"/>
<path d="M6.89993 34.8002C6.79993 34.8002 6.69993 34.8002 6.59993 34.7002C-4.50007 24.9002 4.09993 7.90017 5.09993 6.00017C5.19993 5.90017 5.29993 5.80017 5.49993 5.80017C5.79993 5.80017 5.99993 5.80017 6.29993 5.80017C11.6999 5.80017 16.2999 3.30017 17.5999 2.50017C17.7999 2.40017 17.9999 2.50017 18.1999 2.70017C21.7999 7.00017 30.0999 7.90017 30.9999 8.00017C31.0999 8.00017 31.0999 8.00017 31.1999 8.10017C31.1999 8.20017 31.1999 8.20017 31.1999 8.30017C25.1999 34.0002 8.79993 34.8002 6.89993 34.8002ZM5.39993 6.10017C5.29993 6.10017 5.29993 6.10017 5.29993 6.20017C4.29993 8.10017 -4.20007 24.9002 6.79993 34.6002C6.89993 34.6002 6.89993 34.7002 6.99993 34.7002C8.79993 34.7002 24.9999 33.9002 30.9999 8.40017C29.8999 8.30017 21.6999 7.30017 17.9999 3.00017C17.8999 2.90017 17.7999 2.90017 17.6999 2.90017C16.2999 3.60017 11.2999 6.30017 5.39993 6.10017Z" fill="black"/>
<path d="M7.79995 36.2009C7.29995 36.2009 6.79995 36.2009 6.29995 36.2009C-5.50005 24.7009 3.29995 7.00093 4.29995 5.00093C4.39995 4.80093 4.59995 4.70093 4.79995 4.70093C11 5.10093 16.4 1.90093 17.9 0.900927C18.3 0.700927 18.7 0.800927 19 1.10093C22.6 6.10093 32.3 6.40093 33.4 6.50093C33.6 6.50093 33.7 6.60093 33.8 6.70093L34.4 7.70093C34.5 7.80093 34.5 7.90093 34.5 8.00093C34.3 8.80093 33 16.3009 28.8 23.3009C23.5 31.9009 16.5 36.2009 7.79995 36.2009ZM6.39995 35.9009C15.7 36.4009 23.1 32.1009 28.4 23.1009C32.6 16.1009 33.9 8.70093 34.1 7.90093C34.1 7.80093 34.1 7.80093 34.1 7.80093L33.5 6.80093C33.5 6.70093 33.4 6.70093 33.4 6.70093C32.3 6.70093 22.5 6.40093 18.8 1.20093C18.6 1.00093 18.3 0.900927 18.1 1.10093C16.6 2.10093 11.1 5.40093 4.89995 4.90093C4.79995 4.90093 4.69995 5.00093 4.59995 5.10093C3.49995 7.00093 -5.20005 24.5009 6.39995 35.9009Z" fill="black"/>
<path d="M6.29995 36.2012C6.19995 36.2012 6.19995 36.2012 6.19995 36.1012C6.19995 36.0012 6.29995 36.0012 6.29995 36.0012C18.2 35.8012 24.9 27.9012 28.5 21.3012C32.2999 14.1012 33.4 6.90117 33.4 6.80117C33.4 6.70117 33.5 6.70117 33.5 6.70117C33.6 6.70117 33.5999 6.80117 33.5999 6.80117C33.5999 6.90117 32.6 14.2012 28.7 21.4012C25.2 28.0012 18.4 36.0012 6.29995 36.2012Z" fill="black"/>
<path d="M7.5 34.2016C7.3 34.2016 7.20001 34.2016 7.10001 34.2016C6.90001 34.2016 6.70001 34.1016 6.60001 34.0016C-2.79999 24.8016 4.50001 8.80158 5.3 7.00158C5.4 6.80158 5.5 6.80158 5.7 6.80158C10.6 7.30158 16.2 4.30158 17.3 3.70158C17.4 3.60158 17.6 3.70158 17.7 3.80158C21.6 8.00158 30.7 9.00158 30.8 9.00158C31 8.90158 31 9.00158 31 9.10158C31 9.20158 30.9 9.20158 30.9 9.20158C30.9 9.20158 28.5 8.90158 25.8 8.20158C23.2 7.50158 19.7 6.20158 17.7 3.90158C17.7 3.90158 17.7 3.90158 17.6 3.90158C16.5 4.50158 10.8 7.50158 5.8 7.00158C5.70001 7.00158 5.7 7.00158 5.7 7.10158C4.8 8.90158 -2.39999 24.7016 6.8 33.8016C6.9 33.9016 7.00001 33.9016 7.10001 33.9016C7.70001 33.9016 9.3 33.9016 13.3 33.1016C13.4 33.1016 13.4 33.1016 13.4 33.2016C13.4 33.3016 13.4 33.3016 13.3 33.4016C10.1 34.1016 8.4 34.2016 7.5 34.2016Z" fill="black"/>
<path d="M6.89993 34.0016C6.79993 34.0016 6.79993 33.9016 6.79993 33.9016C7.79993 21.4016 10.5999 13.8016 12.8999 9.70156C15.2999 5.20156 17.4999 3.70156 17.5999 3.60156C17.6999 3.60156 17.6999 3.60156 17.7999 3.60156C17.7999 3.70156 17.7999 3.70156 17.7999 3.80156C17.6999 3.90156 9.09993 10.0016 7.19993 33.9016C6.99993 34.0016 6.99993 34.0016 6.89993 34.0016Z" fill="black"/>
<path d="M26.6 20.6012C26.4 20.5012 16.2 13.4012 2.69998 15.6012C2.59998 15.6012 2.59998 15.6012 2.59998 15.5012C2.59998 15.4012 2.59998 15.4012 2.69998 15.4012C16.3 13.2012 26.7 20.3012 26.7 20.4012C26.8 20.4012 26.8 20.5012 26.7 20.6012C26.7 20.5012 26.7 20.6012 26.6 20.6012Z" fill="black"/>
</svg>
