<svg width="20" height="20" viewBox="0 0 20 20" fill="none" xmlns="http://www.w3.org/2000/svg">
<g id="Icon">
<path id="Vector" d="M8.33333 10.834H3.33333C2.8731 10.834 2.5 11.2071 2.5 11.6673V16.6673C2.5 17.1276 2.8731 17.5007 3.33333 17.5007H8.33333C8.79357 17.5007 9.16667 17.1276 9.16667 16.6673V11.6673C9.16667 11.2071 8.79357 10.834 8.33333 10.834Z" fill="#7DC7FF"/>
<path id="Vector_2" d="M8.33333 2.5H3.33333C2.8731 2.5 2.5 2.8731 2.5 3.33333V8.33333C2.5 8.79357 2.8731 9.16667 3.33333 9.16667H8.33333C8.79357 9.16667 9.16667 8.79357 9.16667 8.33333V3.33333C9.16667 2.8731 8.79357 2.5 8.33333 2.5Z" fill="#7DC7FF"/>
<path id="Vector_3" d="M16.6667 2.5H11.6667C11.2065 2.5 10.8334 2.8731 10.8334 3.33333V8.33333C10.8334 8.79357 11.2065 9.16667 11.6667 9.16667H16.6667C17.1269 9.16667 17.5 8.79357 17.5 8.33333V3.33333C17.5 2.8731 17.1269 2.5 16.6667 2.5Z" fill="#7DC7FF"/>
<path id="Vector_4" d="M16.6667 13.334H15V11.6673C15 11.4463 14.9122 11.2343 14.756 11.0781C14.5997 10.9218 14.3877 10.834 14.1667 10.834C13.9457 10.834 13.7337 10.9218 13.5775 11.0781C13.4212 11.2343 13.3334 11.4463 13.3334 11.6673V13.334H11.6667C11.4457 13.334 11.2337 13.4218 11.0775 13.5781C10.9212 13.7343 10.8334 13.9463 10.8334 14.1673C10.8334 14.3883 10.9212 14.6003 11.0775 14.7566C11.2337 14.9129 11.4457 15.0007 11.6667 15.0007H13.3334V16.6673C13.3334 16.8883 13.4212 17.1003 13.5775 17.2566C13.7337 17.4129 13.9457 17.5007 14.1667 17.5007C14.3877 17.5007 14.5997 17.4129 14.756 17.2566C14.9122 17.1003 15 16.8883 15 16.6673V15.0007H16.6667C16.8877 15.0007 17.0997 14.9129 17.256 14.7566C17.4122 14.6003 17.5 14.3883 17.5 14.1673C17.5 13.9463 17.4122 13.7343 17.256 13.5781C17.0997 13.4218 16.8877 13.334 16.6667 13.334Z" fill="#008DFA"/>
</g>
</svg>
