<svg width="21" height="20" viewBox="0 0 21 20" fill="none" xmlns="http://www.w3.org/2000/svg">
<g id="Icon">
<path id="Vector" d="M1.91663 4.44531C1.91662 5.46806 2.74572 6.29716 3.76847 6.29717H3.76848H16.7314C17.7542 6.29717 18.5833 7.12627 18.5833 8.14902V15.5564C18.5833 16.5792 17.7542 17.4083 16.7314 17.4083H3.76848C2.74573 17.4083 1.91663 16.5792 1.91663 15.5564V4.44531Z" fill="#7DC7FF"/>
<path id="Vector_2" d="M3.76848 6.29551H14.8796V4.25846C14.8796 3.33801 14.1334 2.5918 13.2129 2.5918H3.58329C2.66283 2.5918 1.91663 3.33801 1.91663 4.25846V4.44366C1.91663 5.46641 2.74573 6.29551 3.76848 6.29551Z" fill="#008DFA"/>
<path id="Vector_3" d="M18.5833 14.166H16.182C14.9647 14.1881 13.8995 13.3519 13.6318 12.1643C13.3588 10.8085 14.2366 9.48822 15.5923 9.21527C15.754 9.18272 15.9184 9.16623 16.0833 9.16602H18.5833V14.166Z" fill="#008DFA"/>
</g>
</svg>
