<svg width="21" height="20" viewBox="0 0 21 20" fill="none" xmlns="http://www.w3.org/2000/svg">
<path d="M10.75 11.829C10.6037 11.829 10.46 11.7905 10.3333 11.7175L2.83331 7.38648C2.43465 7.15621 2.29813 6.64636 2.5284 6.2477C2.60153 6.12109 2.70669 6.01593 2.83331 5.94279L10.3333 1.61499C10.5913 1.46688 10.9086 1.46688 11.1666 1.61499L18.6666 5.94279C19.0653 6.17306 19.2018 6.68291 18.9715 7.08157C18.8984 7.20819 18.7933 7.31334 18.6666 7.38648L11.1666 11.7175C11.0399 11.7905 10.8962 11.829 10.75 11.829Z" fill="#DAEFFF"/>
<path d="M18.6666 9.27651L17.0299 8.33203L11.1666 11.7179C10.9088 11.8666 10.5912 11.8666 10.3333 11.7179L4.47007 8.33203L2.83331 9.27651C2.43465 9.50677 2.29813 10.0166 2.5284 10.4153C2.60153 10.5419 2.70669 10.6471 2.83331 10.7202L10.3333 15.0512C10.5912 15.1999 10.9088 15.1999 11.1666 15.0512L18.6666 10.7202C19.0653 10.4899 19.2018 9.98007 18.9715 9.58141C18.8984 9.4548 18.7933 9.34964 18.6666 9.27651Z" fill="#7DC7FF"/>
<path d="M18.6666 12.6095L17.0299 11.665L11.1666 15.0509C10.9088 15.1996 10.5912 15.1996 10.3333 15.0509L4.47007 11.665L2.83331 12.6095C2.43465 12.8398 2.29813 13.3496 2.5284 13.7483C2.60153 13.8749 2.70669 13.9801 2.83331 14.0532L10.3333 18.3842C10.5912 18.5329 10.9088 18.5329 11.1666 18.3842L18.6666 14.0532C19.0653 13.8229 19.2018 13.3131 18.9715 12.9144C18.8984 12.7878 18.7933 12.6826 18.6666 12.6095Z" fill="#008DFA"/>
</svg>
