<svg width="21" height="20" viewBox="0 0 21 20" fill="none" xmlns="http://www.w3.org/2000/svg">
<g id="Icon">
<path id="Vector" d="M8.26661 3.04972L2.43328 14.7081C2.20412 15.1685 2.12254 15.6884 2.19965 16.1969C2.27677 16.7053 2.50884 17.1777 2.86421 17.5494C3.21958 17.9212 3.68096 18.1743 4.18545 18.2743C4.68994 18.3743 5.21299 18.3162 5.68328 18.1081L9.66661 16.3247L10.1583 16.1081C10.2665 16.0627 10.3826 16.0393 10.4999 16.0393C10.6173 16.0393 10.7334 16.0627 10.8416 16.1081L11.3333 16.3247L15.3166 18.1081C15.7855 18.3214 16.3095 18.3823 16.8148 18.2821C17.3201 18.182 17.7812 17.9258 18.1333 17.5497C18.5805 17.09 18.8315 16.4744 18.8333 15.8331C18.8294 15.4429 18.7382 15.0585 18.5666 14.7081L12.7333 3.04972C12.5266 2.63411 12.2081 2.28442 11.8136 2.03996C11.419 1.79551 10.9641 1.666 10.4999 1.666C10.0358 1.666 9.58087 1.79551 9.18632 2.03996C8.79177 2.28442 8.47325 2.63411 8.26661 3.04972Z" fill="#B5DFFF"/>
<path id="Vector_2" d="M10.5 7.9502C10.6095 7.94987 10.718 7.97119 10.8193 8.01296C10.9205 8.05472 11.0125 8.11609 11.09 8.19354C11.1674 8.27099 11.2288 8.36298 11.2705 8.46424C11.3123 8.56549 11.3336 8.674 11.3333 8.78353L11.3333 16.3252L10.8416 16.1085C10.7334 16.0631 10.6173 16.0398 10.5 16.0398C10.3826 16.0398 10.2665 16.0631 10.1583 16.1085L9.66663 16.3252L9.66663 8.78353C9.6663 8.674 9.68763 8.56549 9.72939 8.46424C9.77115 8.36298 9.83252 8.27099 9.90997 8.19354C9.98742 8.11609 10.0794 8.05472 10.1807 8.01296C10.2819 7.97119 10.3904 7.94987 10.5 7.9502Z" fill="#008DFA"/>
</g>
</svg>
