<svg width="20" height="20" viewBox="0 0 20 20" fill="none" xmlns="http://www.w3.org/2000/svg">
<g id="Icon">
<path id="Vector" d="M7.76661 3.04972L1.93328 14.7081C1.70412 15.1685 1.62254 15.6884 1.69965 16.1969C1.77677 16.7053 2.00884 17.1777 2.36421 17.5494C2.71958 17.9212 3.18096 18.1743 3.68545 18.2743C4.18994 18.3743 4.71299 18.3162 5.18328 18.1081L9.16661 16.3247L9.65828 16.1081C9.76647 16.0627 9.88262 16.0393 9.99995 16.0393C10.1173 16.0393 10.2334 16.0627 10.3416 16.1081L10.8333 16.3247L14.8166 18.1081C15.2855 18.3214 15.8095 18.3823 16.3148 18.2821C16.8201 18.182 17.2812 17.9258 17.6333 17.5497C18.0805 17.09 18.3315 16.4744 18.3333 15.8331C18.3294 15.4429 18.2382 15.0585 18.0666 14.7081L12.2333 3.04972C12.0266 2.63411 11.7081 2.28442 11.3136 2.03996C10.919 1.79551 10.4641 1.666 9.99994 1.666C9.5358 1.666 9.08087 1.79551 8.68632 2.03996C8.29177 2.28442 7.97325 2.63411 7.76661 3.04972Z" fill="#B5DFFF"/>
<path id="Vector_2" d="M9.99996 7.9502C10.1095 7.94987 10.218 7.97119 10.3193 8.01296C10.4205 8.05472 10.5125 8.11609 10.59 8.19354C10.6674 8.27099 10.7288 8.36298 10.7705 8.46424C10.8123 8.56549 10.8336 8.674 10.8333 8.78353L10.8333 16.3252L10.3416 16.1085C10.2334 16.0631 10.1173 16.0398 9.99996 16.0398C9.88264 16.0398 9.76649 16.0631 9.6583 16.1085L9.16663 16.3252L9.16663 8.78353C9.1663 8.674 9.18763 8.56549 9.22939 8.46424C9.27115 8.36298 9.33252 8.27099 9.40997 8.19354C9.48742 8.11609 9.57942 8.05472 9.68067 8.01296C9.78192 7.97119 9.89044 7.94987 9.99996 7.9502Z" fill="#008DFA"/>
</g>
</svg>
