<svg width="36" height="33" viewBox="0 0 36 33" fill="none" xmlns="http://www.w3.org/2000/svg">
<g id="Starter Business-01" clip-path="url(#clip0_527_10804)">
<g id="Group">
<g id="Group_2">
<g id="Group_3">
<g id="Group_4">
<g id="Group_5">
<g id="Group_6">
<path id="Vector" d="M7.56202 3.1377C7.56202 3.1377 5.67152 3.21814 5.34973 4.94775C5.02795 6.67736 3.49945 15.1645 3.49945 15.1645C3.49945 15.1645 3.37878 15.607 3.90169 15.8483L2.2123 25.4215C2.2123 25.4215 2.13186 25.9042 2.61454 26.0248C3.09722 26.1455 27.7542 32.2997 27.7542 32.2997C27.7542 32.2997 28.1564 32.4606 28.2771 31.9377C28.3978 31.4148 30.0872 20.7958 30.0872 20.7958L30.3285 20.3533L32.3799 9.13099C32.3799 9.13099 32.7821 8.08518 33.4257 7.6025C34.0693 7.11982 34.3508 7.11982 34.3508 7.11982L32.7419 6.83825L7.56202 3.1377Z" fill="#C1C5C9"/>
</g>
</g>
<g id="Group_7">
<g id="Group_8">
<path id="Vector_2" d="M14.1587 3.94202L15.5263 2.05152C15.5263 2.05152 17.1755 -0.241216 19.79 0.120795C22.4045 0.482806 23.3296 2.93644 23.3296 2.93644L24.2146 5.63141L23.1285 5.47052C23.1285 5.47052 22.4447 1.56884 19.5486 1.24705C19.5486 1.24705 17.1352 0.683924 15.285 4.26381L14.0782 4.10292L14.1587 3.94202Z" fill="#C1C5C9"/>
</g>
</g>
<g id="Group_9">
<g id="Group_10">
<path id="Vector_3" d="M28.076 32.2998L31.5755 32.0183C31.5755 32.0183 32.0582 31.7769 32.1386 31.254C32.2191 30.7311 35.9196 9.89535 35.9196 9.89535C35.9196 9.89535 36.0403 7.84396 34.3509 7.16016L33.4258 7.64284L28.3978 31.4149L28.2772 32.0183L28.076 32.2998Z" fill="#C1C5C9"/>
</g>
</g>
<g id="Group_11">
<g id="Group_12">
<path id="Vector_4" d="M16.0894 4.38439C16.0894 4.38439 17.1353 1.97098 18.8649 1.20673C18.8649 1.20673 17.2559 0.724053 15.2448 4.26372L16.0894 4.38439Z" fill="#9FA3A6"/>
</g>
</g>
<g id="Group_13">
<g id="Group_14">
<path id="Vector_5" d="M21.6001 0.724067C21.6001 0.724067 24.1341 1.93077 24.9788 5.71178L24.1744 5.59111C24.1744 5.59111 23.8123 4.18328 23.3699 3.13747C22.9274 2.09166 21.8414 1.04585 21.8414 1.04585L20.9967 0.522949L21.6001 0.724067Z" fill="#9FA3A6"/>
</g>
</g>
<g id="Group_15">
<g id="Group_16">
<path id="Vector_6" d="M33.7475 7.52197C33.7475 7.52197 32.6213 7.84376 32.3397 9.49292C32.0582 11.1019 30.3688 20.3935 30.3688 20.3935L30.1274 20.8359L28.3978 31.4549L31.1732 31.2136C31.1732 31.2136 31.495 31.1331 31.5755 30.6907C31.6559 30.2885 35.1956 10.7398 35.1956 10.7398C35.1956 10.7398 35.7989 8.20577 33.7475 7.52197Z" fill="#9FA3A6"/>
</g>
</g>
<g id="Group_17">
<g id="Group_18">
<path id="Vector_7" d="M14.3598 17.1758L17.9799 17.8596L17.6581 19.9914L13.9174 19.1065L14.2391 17.1758H14.3598Z" fill="#45AEFF"/>
</g>
</g>
<g id="Group_19">
<g id="Group_20">
<path id="Vector_8" d="M18.3419 17.98L18.1005 19.6694L17.6581 19.9912L17.9799 17.8594L18.3419 17.98Z" fill="#BABEC2"/>
</g>
</g>
<g id="Group_21">
<g id="Group_22">
<g id="Group_23">
<path id="Vector_9" d="M29.3229 21.2382C29.2425 21.2382 29.1621 21.2382 29.0816 21.198L18.2213 18.9455L18.2615 18.7846L29.1218 21.0371C29.4034 21.0773 29.6447 21.0371 29.8861 20.8762C30.1274 20.7153 30.2481 20.5142 30.2883 20.2326L32.2593 9.33209C32.4201 8.36672 33.1039 7.56225 34.0291 7.20024L34.1095 7.16002L7.88384 3.25834C6.71736 3.09745 5.63132 3.86169 5.43021 5.02818L3.57993 15.084C3.5397 15.4058 3.74082 15.7276 4.06261 15.7678L14.0783 17.8997L14.038 18.0606L4.02238 15.969C3.62015 15.8885 3.33859 15.4863 3.41903 15.0438L5.26931 4.98795C5.51065 3.74102 6.67713 2.89633 7.92406 3.05723L34.1498 6.9589C34.2302 6.9589 34.2704 7.03935 34.3107 7.1198C34.3107 7.20024 34.2704 7.28069 34.19 7.28069L34.0693 7.32091C33.2246 7.68292 32.581 8.40695 32.4201 9.33209L30.4492 20.2326C30.409 20.5544 30.2079 20.7958 29.9665 20.9969C29.8056 21.1578 29.5643 21.2382 29.3229 21.2382Z" fill="black"/>
</g>
</g>
<g id="Group_24">
<g id="Group_25">
<path id="Vector_10" d="M27.8749 32.3802C27.8347 32.3802 27.7944 32.3802 27.7542 32.3802L2.57433 26.1053C2.25255 26.0249 2.05143 25.7031 2.13187 25.3813L3.86148 15.8081L4.02238 15.8483L2.29277 25.4215C2.25255 25.6629 2.41344 25.864 2.61456 25.9444L27.7542 32.2193C27.8347 32.2595 27.9553 32.2193 28.0358 32.1791C28.1162 32.1388 28.1565 32.0584 28.1967 31.9377L30.0067 20.7958L30.1676 20.836L28.3576 31.9779C28.3174 32.1388 28.2369 32.2595 28.1162 32.3399C28.076 32.3802 27.9553 32.3802 27.8749 32.3802Z" fill="black"/>
</g>
</g>
<g id="Group_26">
<g id="Group_27">
<path id="Vector_11" d="M27.8749 32.3802C27.8347 32.3802 27.7944 32.34 27.7944 32.2998C27.7944 32.2595 27.8347 32.2193 27.8749 32.2193L31.3341 31.8975C31.6559 31.8573 31.9375 31.616 32.0179 31.2942C32.7419 27.1512 35.1956 13.435 35.7185 10.6595C35.9196 9.53329 35.8391 8.64837 35.3967 8.00479C34.914 7.28077 34.1497 7.1601 34.1497 7.1601C34.1095 7.1601 34.0693 7.11988 34.0693 7.03943C34.0693 6.99921 34.1095 6.95898 34.19 6.95898C34.2302 6.95898 34.9944 7.11988 35.5576 7.88412C36.0402 8.56792 36.1609 9.49306 35.9196 10.6595C35.3967 13.435 32.943 27.1512 32.219 31.2942C32.1386 31.6964 31.8168 32.0182 31.3743 32.0584L27.8749 32.3802Z" fill="black"/>
</g>
</g>
<g id="Group_28">
<g id="Group_29">
<path id="Vector_12" d="M28.3978 31.495C28.3576 31.495 28.3174 31.4548 28.3174 31.4146C28.3174 31.3744 28.3576 31.3341 28.3978 31.3341L31.0526 31.0928C31.2537 31.0928 31.4146 30.9319 31.4548 30.7308C31.6157 29.9263 31.9375 28.076 32.38 25.7029C33.3855 20.3531 34.8738 12.228 35.1151 10.6995C35.276 9.61347 35.1554 8.809 34.7129 8.24588C34.2705 7.64252 33.6269 7.6023 33.6269 7.6023C33.5867 7.6023 33.5464 7.56208 33.5464 7.52185C33.5464 7.48163 33.5867 7.44141 33.6269 7.44141C33.6671 7.44141 34.3509 7.52185 34.8336 8.16543C35.3163 8.76878 35.4369 9.6537 35.276 10.78C35.0347 12.3084 33.5464 20.4336 32.5408 25.7833C32.0984 28.1565 31.7766 30.0068 31.6157 30.8112C31.5755 31.0928 31.3341 31.2939 31.0526 31.3341L28.3978 31.495Z" fill="black"/>
</g>
</g>
<g id="Group_30">
<g id="Group_31">
<path id="Vector_13" d="M23.0883 5.55089C23.0481 5.55089 23.0079 5.51066 23.0079 5.47044L22.6861 4.34418C22.2436 2.73524 21.0369 1.56876 19.6291 1.32742C18.3822 1.12631 17.1353 1.72966 16.3308 2.85592L15.3252 4.26374C15.285 4.30396 15.2448 4.30396 15.2045 4.30396C15.1643 4.26374 15.1643 4.22351 15.1643 4.18329L16.1699 2.77547C17.0146 1.56876 18.342 0.965412 19.6291 1.16653C21.1174 1.36765 22.3643 2.61457 22.847 4.30396L23.1688 5.43022C23.209 5.47044 23.1688 5.51066 23.0883 5.55089Z" fill="black"/>
</g>
</g>
<g id="Group_32">
<g id="Group_33">
<path id="Vector_14" d="M24.2146 5.67173C24.1743 5.67173 24.1341 5.63151 24.1341 5.59129L23.6917 4.0628C23.0883 2.0114 21.5598 0.482908 19.7498 0.201344C18.1408 -0.0399973 16.5721 0.684025 15.5263 2.17229L14.1587 4.10302C14.1185 4.14324 14.0783 4.14324 14.038 4.14324C13.9978 4.10302 13.9978 4.0628 13.9978 4.02257L15.3654 2.09185C16.4514 0.563355 18.1006 -0.200891 19.7498 0.0404497C21.6403 0.322014 23.209 1.89073 23.8526 4.02257L24.295 5.55106C24.295 5.59129 24.2548 5.67173 24.2146 5.67173Z" fill="black"/>
</g>
</g>
<g id="Group_34">
<g id="Group_35">
<path id="Vector_15" d="M16.0894 4.4649C16.0492 4.4649 16.0492 4.4649 16.0894 4.4649C16.0089 4.42468 15.9687 4.38446 16.0089 4.34423C16.0894 4.22356 17.5374 1.00569 19.5486 1.12636C19.5888 1.12636 19.6291 1.16658 19.6291 1.2068C19.6291 1.24703 19.5888 1.28725 19.5486 1.28725C17.6983 1.16658 16.2101 4.38446 16.2101 4.38446C16.1296 4.4649 16.0894 4.4649 16.0894 4.4649Z" fill="black"/>
</g>
</g>
<g id="Group_36">
<g id="Group_37">
<path id="Vector_16" d="M24.9788 5.83252C24.9386 5.83252 24.8984 5.7923 24.8984 5.75207C24.2146 2.93643 22.847 1.60906 21.8012 0.965483C20.7151 0.281684 19.7498 0.24146 19.7498 0.24146C19.7095 0.24146 19.6693 0.201237 19.6693 0.161013C19.6693 0.12079 19.7095 0.0805664 19.7498 0.0805664C19.79 0.0805664 23.6917 0.24146 25.0593 5.75207C25.0995 5.75207 25.0593 5.7923 24.9788 5.83252Z" fill="black"/>
</g>
</g>
<g id="Group_38">
<g id="Group_39">
<path id="Vector_17" d="M17.5777 20.0719C17.5375 20.0719 17.5375 20.0719 17.4973 20.0719L13.9174 19.3077C13.7967 19.2675 13.7565 19.187 13.7565 19.0663L14.0783 17.2563C14.0783 17.2161 14.1185 17.1356 14.1587 17.0954C14.1989 17.0552 14.2794 17.0552 14.3196 17.0552L18.1811 17.8194C18.3017 17.8596 18.3822 17.9401 18.3822 18.0608L18.1408 19.6295C18.1408 19.7099 18.1006 19.7501 18.0202 19.7904L17.6984 19.9915C17.6984 20.0719 17.6581 20.0719 17.5777 20.0719ZM14.3196 17.2563L13.9978 19.0663L17.5777 19.8306C17.6179 19.8306 17.6179 19.8306 17.6581 19.8306L17.9799 19.6295L18.0202 19.5893L18.2615 18.0205C18.2615 17.9803 18.2615 17.9803 18.2213 17.9803L14.3598 17.2161C14.3598 17.2563 14.3598 17.2563 14.3196 17.2563Z" fill="black"/>
</g>
</g>
<g id="Group_40">
<g id="Group_41">
<path id="Vector_18" d="M17.6581 20.0316C17.6179 20.0316 17.6179 20.0316 17.6581 20.0316C17.5776 20.0316 17.5776 19.9914 17.5776 19.911L17.8994 17.8998C17.8994 17.8596 17.9396 17.8193 18.0201 17.8193C18.0603 17.8193 18.1005 17.8596 18.1005 17.94L17.7788 19.9512C17.7385 19.9914 17.6983 20.0316 17.6581 20.0316Z" fill="black"/>
</g>
</g>
</g>
</g>
<g id="Group_42">
<g id="Group_43">
<path id="Vector_19" d="M32.4546 25.722L35.4993 27.4533V27.2742L35.3202 23.9907L34.8426 23.6922L32.574 22.4385H32.4546V25.722Z" fill="#FEC523"/>
</g>
<g id="Group_44">
<path id="Vector_20" d="M29.5289 27.5724L32.4542 25.7217L35.4392 27.453L35.1407 27.6918L32.5736 29.244C32.5736 29.244 32.5139 29.3037 32.3348 29.1843C32.2154 29.0649 29.5289 27.5724 29.5289 27.5724Z" fill="#FDDA73"/>
</g>
<g id="Group_45">
<path id="Vector_21" d="M29.4695 24.3489L29.5292 27.5727L32.4545 25.722V22.4385H32.3351L29.6486 24.1101L29.4695 24.3489Z" fill="#FDDA73"/>
</g>
<g id="Group_46">
<g id="Group_47">
<path id="Vector_22" d="M32.5141 29.363C32.4544 29.363 32.3947 29.363 32.335 29.3033L29.5888 27.8108C29.4694 27.7511 29.35 27.6317 29.35 27.4526V24.3481C29.35 24.169 29.4097 24.0496 29.5888 23.9302L32.2753 22.2586C32.3947 22.1989 32.5738 22.1989 32.6932 22.2586L35.32 23.7511C35.4394 23.8108 35.4991 23.9302 35.4991 24.0496L35.6782 27.2138C35.6782 27.3929 35.6185 27.572 35.4394 27.6317L32.6932 29.2436C32.6335 29.3033 32.5738 29.363 32.5141 29.363ZM32.4544 22.5571L29.7082 24.2287C29.6485 24.2287 29.6485 24.2884 29.6485 24.3481V27.4526C29.6485 27.5123 29.6485 27.5123 29.7082 27.572L32.4544 29.0645H32.5141L35.2603 27.4526C35.32 27.3929 35.32 27.3332 35.32 27.2735L35.1409 24.1093C35.1409 24.1093 35.1409 24.0496 35.0812 24.0496L32.4544 22.5571Z" fill="black"/>
</g>
<g id="Group_48">
<path id="Vector_23" d="M29.5888 27.691C29.5291 27.691 29.4694 27.691 29.4694 27.6313C29.4097 27.5716 29.4694 27.4522 29.5291 27.4522L32.335 25.7209C32.3947 25.7209 32.3947 25.6612 32.3947 25.6015L32.335 22.4374C32.335 22.3777 32.3947 22.2583 32.4544 22.2583C32.5141 22.2583 32.5738 22.318 32.5738 22.3777L32.6335 25.5418C32.6335 25.7209 32.5738 25.8403 32.3947 25.9L29.5888 27.6313C29.6485 27.691 29.5888 27.691 29.5888 27.691Z" fill="black"/>
</g>
<g id="Group_49">
<path id="Vector_24" d="M35.4991 27.572H35.4394L32.4544 25.8407C32.3947 25.781 32.335 25.7213 32.3947 25.6616C32.4544 25.6019 32.5141 25.5422 32.5738 25.6019L35.5588 27.3332C35.6185 27.3929 35.6782 27.4526 35.6185 27.5123C35.5588 27.572 35.4991 27.572 35.4991 27.572Z" fill="black"/>
</g>
</g>
</g>
<g id="Group_50">
<g id="Group_51">
<path id="Vector_25" d="M8.11566 6.06299L0.947544 7.37195C0.947544 7.37195 -1.35872 10.6132 1.82018 12.2338L8.67664 10.8625C8.67664 10.8625 7.49234 10.1769 7.36768 8.43158C7.24302 6.6863 8.11566 6.06299 8.11566 6.06299Z" fill="#45AEFF"/>
</g>
<g id="Group_52">
<path id="Vector_26" d="M2.1943 11.9225L9.42475 10.8628C9.42475 10.8628 11.8557 7.68392 8.7391 6.00098L1.82031 7.12294C1.82031 7.12294 3.00461 7.80859 3.06694 9.6162C3.12927 11.4238 2.1943 11.9225 2.1943 11.9225Z" fill="#45AEFF"/>
</g>
<g id="Group_53">
<path id="Vector_27" d="M7.24308 9.1167L0.261963 10.6127C0.261963 10.6127 0.760614 11.9216 1.57092 12.2333L8.73904 10.9243C8.73904 10.9243 8.24038 10.6127 7.92873 10.2387C7.61707 9.86468 7.24308 9.1167 7.24308 9.1167Z" fill="#008DFA"/>
</g>
<g id="Group_54">
<g id="Group_55">
<path id="Vector_28" d="M9.05085 11.1125C8.67686 11.1125 8.24054 10.8632 7.92888 10.4268C7.5549 9.99053 7.3679 9.36721 7.24324 8.68157C7.05625 7.18561 7.61723 6.00132 8.48987 5.87665C9.36251 5.75199 10.2351 6.81162 10.4221 8.30758C10.6091 9.80353 10.0482 10.9878 9.17551 11.1125C9.11318 11.1125 9.05085 11.1125 9.05085 11.1125ZM8.61453 6.18831H8.5522C7.86655 6.25064 7.3679 7.37261 7.5549 8.68157C7.61723 9.30488 7.86655 9.86586 8.17821 10.3022C8.48987 10.6762 8.80152 10.8632 9.11318 10.8632C9.79883 10.8008 10.2975 9.67887 10.1105 8.36991C9.98582 7.12328 9.30018 6.18831 8.61453 6.18831Z" fill="black"/>
</g>
<g id="Group_56">
<path id="Vector_29" d="M1.82038 12.4213C1.44639 12.4213 1.01007 12.1719 0.698416 11.7356C0.324428 11.2993 0.137433 10.676 0.0127706 9.99034C-0.174224 8.49438 0.386759 7.31009 1.2594 7.18542L8.42751 5.87646C8.48984 5.87646 8.61451 5.9388 8.61451 6.00113C8.61451 6.06346 8.55218 6.18812 8.48985 6.18812L1.38406 7.49708C0.698416 7.55941 0.199765 8.68138 0.386759 9.99034C0.449091 10.6137 0.698416 11.1746 1.01007 11.611C1.32173 11.9849 1.63339 12.1719 1.94504 12.1719L9.11316 10.863C9.17549 10.863 9.30015 10.9253 9.30015 10.9876C9.30015 11.05 9.23782 11.1746 9.17549 11.1746L1.94504 12.4213C1.94504 12.4213 1.88271 12.4213 1.82038 12.4213Z" fill="black"/>
</g>
</g>
</g>
</g>
</g>
</g>
</g>
<defs>
<clipPath id="clip0_527_10804">
<rect width="36" height="32.3799" fill="white"/>
</clipPath>
</defs>
</svg>
