<svg width="21" height="20" viewBox="0 0 21 20" fill="none" xmlns="http://www.w3.org/2000/svg">
<g id="Icon">
<path id="Vector" d="M10.5 18.3337C8.85185 18.3337 7.24068 17.8449 5.87027 16.9292C4.49986 16.0136 3.43176 14.7121 2.80103 13.1894C2.1703 11.6666 2.00527 9.99108 2.32681 8.37458C2.64836 6.75807 3.44203 5.27321 4.60747 4.10777C5.77291 2.94234 7.25776 2.14866 8.87427 1.82712C10.4908 1.50558 12.1663 1.6706 13.6891 2.30133C15.2118 2.93206 16.5133 4.00017 17.4289 5.37058C18.3446 6.74099 18.8334 8.35215 18.8334 10.0003C18.8308 12.2097 17.952 14.3278 16.3898 15.8901C14.8275 17.4523 12.7094 18.3311 10.5 18.3337Z" fill="#D3D7DB"/>
<path id="Vector_2" d="M10.5 1.66699C8.85185 1.66699 7.24068 2.15573 5.87027 3.07141C4.49986 3.98709 3.43176 5.28858 2.80103 6.8113C2.1703 8.33401 2.00527 10.0096 2.32681 11.6261C2.64836 13.2426 3.44203 14.7274 4.60747 15.8929C5.77291 17.0583 7.25776 17.852 8.87427 18.1735C10.4908 18.4951 12.1663 18.3301 13.6891 17.6993C15.2118 17.0686 16.5133 16.0005 17.4289 14.6301C18.3446 13.2597 18.8334 11.6485 18.8334 10.0003C18.8308 7.79096 17.952 5.67281 16.3898 4.11056C14.8275 2.5483 12.7094 1.66952 10.5 1.66699ZM3.83336 10.0003C3.83552 9.43771 3.90925 8.87766 4.05278 8.33366H5.59695C5.46776 9.44102 5.46776 10.5596 5.59695 11.667H4.05278C3.90925 11.123 3.83552 10.5629 3.83336 10.0003ZM7.16669 10.0003C7.16725 9.44282 7.2055 8.886 7.28118 8.33366H9.66669V11.667H7.28118C7.2055 11.1147 7.16725 10.5578 7.16669 10.0003ZM11.3334 3.58136C12.3573 4.33384 13.0773 5.42871 13.3624 6.66699H11.3334V3.58136ZM9.66669 3.58136V6.66699H7.63762C7.92279 5.42871 8.64276 4.33384 9.66669 3.58136ZM9.66669 13.3337V16.4193C8.64276 15.6668 7.92279 14.5719 7.63762 13.3337H9.66669ZM11.3334 16.4193V13.3337H13.3624C13.0773 14.5719 12.3573 15.6668 11.3334 16.4193ZM11.3334 11.667V8.33366H13.7189C13.8715 9.43953 13.8715 10.5611 13.7189 11.667H11.3334ZM15.4031 8.33366H16.9473C17.2399 9.42551 17.2399 10.5751 16.9473 11.667H15.4031C15.5323 10.5596 15.5323 9.44102 15.4031 8.33366ZM16.2646 6.66699H15.096C14.9103 5.92467 14.6407 5.20588 14.2925 4.52449C15.0988 5.08573 15.772 5.81711 16.2646 6.66699ZM6.70752 4.52445C6.35933 5.20584 6.08979 5.92462 5.9041 6.66695H4.73541C5.22806 5.81706 5.90127 5.08568 6.70752 4.52445ZM4.73541 13.3337H5.90412C6.08982 14.076 6.35934 14.7948 6.7075 15.4762C5.90126 14.9149 5.22805 14.1835 4.73541 13.3337ZM14.2925 15.4762C14.6407 14.7948 14.9102 14.076 15.0959 13.3337H16.2646C15.772 14.1836 15.0988 14.915 14.2925 15.4762L14.2925 15.4762Z" fill="#9FA3A6"/>
</g>
</svg>
