<svg width="20" height="20" viewBox="0 0 20 20" fill="none" xmlns="http://www.w3.org/2000/svg">
<g id="Icon">
<path id="Vector" d="M17.2087 7.50024H2.2087C1.74858 7.50036 1.37548 7.12746 1.37537 6.66734C1.37537 6.6672 1.37537 6.66705 1.37537 6.66691V4.16691C1.37522 3.8083 1.60476 3.4899 1.94504 3.37671L9.44504 0.876709C9.61621 0.819743 9.80122 0.819743 9.97239 0.876709L17.4724 3.37671C17.8127 3.48991 18.0422 3.80831 18.042 4.16691V6.66691C18.0422 7.12703 17.6692 7.50013 17.2091 7.50024C17.209 7.50024 17.2088 7.50024 17.2087 7.50024ZM17.2087 18.3336H2.2087C1.74858 18.3337 1.37548 17.9608 1.37537 17.5007C1.37537 17.5005 1.37537 17.5004 1.37537 17.5002V15.8336C1.37687 14.4535 2.49527 13.3351 3.87537 13.3336H15.542C16.9221 13.3351 18.0405 14.4535 18.042 15.8336V17.5002C18.0422 17.9604 17.6692 18.3335 17.2091 18.3336C17.209 18.3336 17.2088 18.3336 17.2087 18.3336Z" fill="#BABEC2"/>
<path id="Vector_2" d="M3.33337 7.5V13.3966C3.50834 13.3576 3.68875 13.3335 3.87537 13.3333H15.542C15.6418 13.3334 15.7366 13.3515 15.8334 13.363V7.5H3.33337Z" fill="#D3D7DB"/>
<path id="Vector_3" d="M6.66671 13.3333V7.5H3.33337V13.3966C3.50834 13.3576 3.68875 13.3335 3.87537 13.3333H6.66671ZM12.5 7.5V13.3333H15.542C15.6418 13.3334 15.7366 13.3515 15.8334 13.363V7.5H12.5Z" fill="#9FA3A6"/>
</g>
</svg>
